<svg width="16" height="16" viewBox="0 0 16 16" fill="none" xmlns="http://www.w3.org/2000/svg">
<g id="edit" clip-path="url(#clip0_25876_28548)">
<path id="Vector" d="M5.00821 14.9999H1.60774C1.4463 14.9999 1.29147 14.9358 1.17731 14.8217C1.06316 14.7075 0.999023 14.5527 0.999023 14.3912V10.9908C0.999098 10.8295 1.06313 10.6749 1.17707 10.5608L10.5605 1.17742C10.6747 1.06335 10.8294 0.999268 10.9908 0.999268C11.1522 0.999268 11.3069 1.06335 11.4211 1.17742L14.8216 4.5756C14.9356 4.68975 14.9997 4.84452 14.9997 5.00589C14.9997 5.16726 14.9356 5.32203 14.8216 5.43618L5.43812 14.8219C5.32405 14.9358 5.16944 14.9999 5.00821 14.9999Z" stroke="#999999" stroke-width="1.5" stroke-linecap="round" stroke-linejoin="round"/>
<path id="Vector_2" d="M8.34766 3.47925L12.5216 7.65316" stroke="#999999" stroke-width="1.5" stroke-linecap="round" stroke-linejoin="round"/>
</g>
<defs>
<clipPath id="clip0_25876_28548">
<rect width="16" height="16" fill="white"/>
</clipPath>
</defs>
</svg>
