<svg width="28" height="29" viewBox="0 0 28 29" fill="none" xmlns="http://www.w3.org/2000/svg">
<path fill-rule="evenodd" clip-rule="evenodd" d="M23.8492 25.2336C24.5294 25.2336 25.0807 24.6823 25.0807 24.0021V11.0581C25.0807 10.6781 24.9052 10.3193 24.6053 10.086L14.7534 2.42347C14.3087 2.07759 13.6861 2.07759 13.2414 2.42347L3.38949 10.086C3.08951 10.3193 2.91406 10.6781 2.91406 11.0581V24.0021C2.91406 24.6823 3.46542 25.2336 4.14554 25.2336H23.8492ZM8.06195 20.4268C6.08172 20.4268 4.55469 19.0476 4.55469 17.028C4.55469 14.9985 6.08172 13.6291 8.06195 13.6291C9.50032 13.6291 10.3377 14.4074 10.8008 15.2349L9.59884 15.826C9.32298 15.294 8.73187 14.8704 8.06195 14.8704C6.86002 14.8704 5.99306 15.7866 5.99306 17.028C5.99306 18.2693 6.86002 19.1855 8.06195 19.1855C8.73187 19.1855 9.32298 18.7619 9.59884 18.2299L10.8008 18.8111C10.3377 19.6288 9.50032 20.4268 8.06195 20.4268ZM17.2589 20.3086H15.5348L13.5447 17.6683L13.0324 18.289V20.3086H11.6335V13.7374H13.0324V16.6634L15.3575 13.7374H17.0815L14.4708 16.8211L17.2589 20.3086ZM17.8967 20.3086H21.4631C22.7241 20.3086 23.3743 19.5205 23.3743 18.5254C23.3743 17.7077 22.8226 17.028 22.1133 16.9196C22.734 16.7915 23.2463 16.23 23.2463 15.4123C23.2463 14.5354 22.6059 13.7374 21.3547 13.7374H17.8967V20.3086ZM21.8177 15.6586C21.8177 16.0822 21.5222 16.3482 21.0493 16.3482H19.2957V14.9689H21.0493C21.5222 14.9689 21.8177 15.2546 21.8177 15.6586ZM21.9458 18.3284C21.9458 18.8013 21.6306 19.0771 21.1084 19.0771H19.2957V17.5797H21.1084C21.6503 17.5797 21.9458 17.9146 21.9458 18.3284Z" fill="white"/>
</svg>
