<svg width="28" height="29" viewBox="0 0 28 29" fill="none" xmlns="http://www.w3.org/2000/svg">
<path fill-rule="evenodd" clip-rule="evenodd" d="M14 26.127C20.6274 26.127 26 20.7544 26 14.127C26 7.49954 20.6274 2.12695 14 2.12695C7.37258 2.12695 2 7.49954 2 14.127C2 20.7544 7.37258 26.127 14 26.127ZM9.19647 22.6027C9.50477 22.7802 9.86 22.8701 10.2523 22.8701C11.3101 22.8701 12.6383 22.2064 13.9996 20.9996C15.3596 22.2059 16.6872 22.8693 17.7447 22.8693C18.1366 22.8693 18.4914 22.7795 18.7994 22.6024C19.9551 21.9381 20.3224 20.1353 19.8115 17.6488C22.2203 16.8504 23.5996 15.6323 23.5996 14.2998C23.5996 12.9683 22.2203 11.7486 19.8114 10.9461C20.3195 8.4607 19.9523 6.65893 18.7994 5.99559C18.4909 5.81801 18.1356 5.7281 17.7433 5.7281C16.6876 5.7281 15.3606 6.39075 13.9997 7.59605C12.6391 6.39016 11.3114 5.72721 10.2541 5.72721C9.86176 5.72721 9.50692 5.81733 9.19951 5.995C8.04711 6.66118 7.6799 8.46392 8.18772 10.9485C5.77865 11.748 4.39955 12.9662 4.39955 14.2982C4.39955 15.6292 5.77895 16.8479 8.18762 17.649C7.67618 20.1358 8.04231 21.9386 9.19647 22.6027ZM17.7887 21.7122C17.0773 21.7122 15.9833 21.1394 14.8485 20.1757C15.3897 19.6099 15.8932 19.0092 16.3558 18.3776C17.1351 18.2925 17.9081 18.1574 18.6701 17.9731C19.0082 19.7995 18.8493 21.2036 18.2607 21.5907L18.2262 21.6105C18.1092 21.6779 17.962 21.7122 17.7887 21.7122ZM10.2079 21.7115C10.0357 21.7115 9.88934 21.6774 9.77279 21.6103C9.15717 21.2571 8.98407 19.836 9.32605 17.9755C10.0892 18.1573 10.8631 18.2906 11.6432 18.3744C12.1037 19.0051 12.6041 19.6056 13.1414 20.1724C12.0091 21.1376 10.9174 21.7115 10.2079 21.7115ZM13.9965 19.3771C13.7144 19.0907 13.4432 18.7939 13.1833 18.4873C13.4973 18.5015 13.7554 18.508 13.9995 18.508C14.2627 18.508 14.5307 18.5027 14.8133 18.4921C14.5524 18.7974 14.28 19.0926 13.9965 19.3771ZM14 17.3954C13.419 17.3925 12.8309 17.3606 12.2517 17.3005C11.9176 16.8308 11.6055 16.3459 11.3162 15.8474C11.0347 15.3617 10.7746 14.8577 10.5218 14.3077C10.7601 13.7762 11.0242 13.2567 11.3131 12.7508C11.6042 12.2479 11.9194 11.7594 12.2575 11.2868C12.8333 11.2305 13.4189 11.2018 13.9989 11.2018C14.5831 11.2048 15.1667 11.2364 15.7477 11.2964C16.0785 11.7587 16.3872 12.2365 16.6726 12.7282L16.6858 12.751C16.9735 13.2499 17.2376 13.762 17.4771 14.2857C17.2391 14.8194 16.9739 15.3407 16.6826 15.8475C16.3926 16.3498 16.0785 16.8379 15.7414 17.3101C15.1658 17.3666 14.58 17.3954 14 17.3954ZM17.2271 17.0995C17.3075 16.972 17.3867 16.8437 17.4646 16.7146L17.4646 16.7211L17.6477 16.4051C17.7845 16.168 17.9158 15.9277 18.0414 15.6845C18.177 16.0636 18.2982 16.4477 18.405 16.8359C18.0157 16.9382 17.6228 17.0262 17.2271 17.0995ZM10.7666 17.0922C10.3199 17.0112 9.93362 16.9277 9.59399 16.8388C9.68481 16.5071 9.80296 16.1383 9.95927 15.6977C10.0866 15.9347 10.2172 16.17 10.3511 16.4033C10.4848 16.6358 10.6234 16.8655 10.7666 17.0922ZM5.54614 14.2998C5.54614 13.5924 6.69303 12.7353 8.47715 12.1039C8.69838 12.8522 8.9678 13.5855 9.28373 14.2992C8.96661 15.0148 8.69614 15.7502 8.474 16.5007C6.69176 15.8676 5.54614 15.0087 5.54614 14.2998ZM19.5249 16.4945C19.3013 15.7452 19.0309 15.0106 18.7152 14.2951C19.0302 13.5801 19.2997 12.846 19.5219 12.0972C21.2793 12.721 22.4528 13.6003 22.4528 14.2996C22.4528 15.005 21.3072 15.8616 19.5249 16.4945ZM9.95767 12.9083C9.82231 12.5303 9.70107 12.1473 9.59419 11.7603C9.98252 11.6577 10.3746 11.5699 10.7697 11.4971C10.6255 11.7269 10.4851 11.9591 10.3483 12.1934C10.2053 12.4384 10.0744 12.6835 9.95767 12.9083ZM17.651 12.1953C17.5207 11.9672 17.387 11.7482 17.2352 11.5065C17.6896 11.5888 18.0676 11.6704 18.4048 11.7586C18.314 12.0886 18.1961 12.4562 18.0396 12.8961C17.9134 12.6606 17.7839 12.427 17.651 12.1953ZM9.3292 10.6255C8.98742 8.76515 9.15914 7.34345 9.77289 6.98918L9.79586 6.97535C9.90966 6.91613 10.0496 6.88602 10.2121 6.88602C10.9236 6.88602 12.0162 7.45925 13.1476 8.42343C12.6071 8.98999 12.1036 9.5906 11.6402 10.2216C10.862 10.3067 10.0901 10.4416 9.3292 10.6255ZM18.6699 10.6209C17.9088 10.4394 17.137 10.3062 16.3591 10.2222C15.8984 9.5909 15.3969 8.99028 14.858 8.42413C15.9898 7.46064 17.0812 6.88791 17.7905 6.88791C17.9629 6.88791 18.1096 6.92193 18.2262 6.9892L18.252 7.0039C18.8447 7.3822 19.0069 8.7886 18.6699 10.6209ZM14.8176 10.1084C14.5639 10.097 14.2862 10.0876 14.0113 10.0876L13.9994 10.0876C13.735 10.0879 13.4622 10.0933 13.1857 10.1038C13.4464 9.79867 13.7187 9.50361 14.0019 9.21926C14.2842 9.50602 14.5562 9.80259 14.8176 10.1084ZM13.2679 14.2999C13.2679 14.7027 13.5961 15.0305 13.9996 15.0305C14.4029 15.0305 14.7311 14.7027 14.7311 14.2999C14.7311 13.897 14.4029 13.5692 13.9996 13.5692C13.5961 13.5692 13.2679 13.897 13.2679 14.2999Z" fill="url(#paint0_linear_47537_77293)"/>
<defs>
<linearGradient id="paint0_linear_47537_77293" x1="14" y1="2.12695" x2="14" y2="39.9883" gradientUnits="userSpaceOnUse">
<stop stop-color="white"/>
<stop offset="1" stop-color="white" stop-opacity="0"/>
</linearGradient>
</defs>
</svg>
