<svg width="165" height="165" viewBox="0 0 165 165" fill="none" xmlns="http://www.w3.org/2000/svg">
  <g clip-path="url(#clip0_3362_8984)">
    <path opacity="0.5"
      d="M22.6465 28.3125C21.2339 28.3125 20.0309 27.9281 19.0371 27.1593C18.0433 26.3843 17.284 25.2625 16.759 23.7938C16.234 22.3187 15.9715 20.5376 15.9715 18.45C15.9715 16.375 16.234 14.6031 16.759 13.1344C17.2903 11.6594 18.0527 10.5344 19.0465 9.75937C20.0464 8.97813 21.2465 8.58751 22.6465 8.58751C24.0465 8.58751 25.2434 8.97813 26.2371 9.75937C27.2371 10.5344 27.9996 11.6594 28.5246 13.1344C29.0559 14.6031 29.3216 16.375 29.3216 18.45C29.3216 20.5376 29.0591 22.3187 28.534 23.7938C28.009 25.2625 27.2497 26.3843 26.2559 27.1593C25.2621 27.9281 24.0591 28.3125 22.6465 28.3125ZM22.6465 26.25C24.0465 26.25 25.134 25.575 25.909 24.225C26.684 22.8749 27.0715 20.9501 27.0715 18.45C27.0715 16.7874 26.8934 15.3719 26.5372 14.2031C26.1871 13.0344 25.6808 12.1438 25.0184 11.5313C24.3622 10.9187 23.5715 10.6125 22.6465 10.6125C21.259 10.6125 20.1746 11.2969 19.3934 12.6656C18.6121 14.0281 18.2215 15.9562 18.2215 18.45C18.2215 20.1125 18.3964 21.5251 18.7466 22.6875C19.0965 23.8499 19.5996 24.7343 20.2558 25.3407C20.9183 25.9469 21.7152 26.25 22.6465 26.25ZM42.2741 8.85001V28.05H39.9491V11.2875H39.8365L35.149 14.4V12.0375L39.9491 8.85001H42.2741ZM56.6984 28.3125C55.2858 28.3125 54.0828 27.9281 53.089 27.1593C52.0952 26.3843 51.3359 25.2625 50.8108 23.7938C50.2858 22.3187 50.0233 20.5376 50.0233 18.45C50.0233 16.375 50.2858 14.6031 50.8108 13.1344C51.3421 11.6594 52.1046 10.5344 53.0984 9.75937C54.0983 8.97813 55.2983 8.58751 56.6984 8.58751C58.0984 8.58751 59.2953 8.97813 60.2889 9.75937C61.289 10.5344 62.0515 11.6594 62.5765 13.1344C63.1078 14.6031 63.3735 16.375 63.3735 18.45C63.3735 20.5376 63.1109 22.3187 62.5859 23.7938C62.0609 25.2625 61.3015 26.3843 60.3077 27.1593C59.314 27.9281 58.1109 28.3125 56.6984 28.3125ZM56.6984 26.25C58.0984 26.25 59.1859 25.575 59.9609 24.225C60.7359 22.8749 61.1233 20.9501 61.1233 18.45C61.1233 16.7874 60.9453 15.3719 60.5891 14.2031C60.2389 13.0344 59.7327 12.1438 59.0702 11.5313C58.414 10.9187 57.6234 10.6125 56.6984 10.6125C55.3109 10.6125 54.2265 11.2969 53.4452 12.6656C52.664 14.0281 52.2734 15.9562 52.2734 18.45C52.2734 20.1125 52.4483 21.5251 52.7984 22.6875C53.1484 23.8499 53.6515 24.7343 54.3077 25.3407C54.9703 25.9469 55.7671 26.25 56.6984 26.25ZM76.3259 8.85001V28.05H74.0009V11.2875H73.8884L69.2009 14.4V12.0375L74.0009 8.85001H76.3259ZM90.7503 28.3125C89.3377 28.3125 88.1347 27.9281 87.1409 27.1593C86.1471 26.3843 85.3877 25.2625 84.8627 23.7938C84.3377 22.3187 84.0752 20.5376 84.0752 18.45C84.0752 16.375 84.3377 14.6031 84.8627 13.1344C85.394 11.6594 86.1565 10.5344 87.1503 9.75937C88.1502 8.97813 89.3502 8.58751 90.7503 8.58751C92.1503 8.58751 93.3472 8.97813 94.3408 9.75937C95.3409 10.5344 96.1033 11.6594 96.6284 13.1344C97.1597 14.6031 97.4253 16.375 97.4253 18.45C97.4253 20.5376 97.1628 22.3187 96.6378 23.7938C96.1127 25.2625 95.3534 26.3843 94.3596 27.1593C93.3658 27.9281 92.1628 28.3125 90.7503 28.3125ZM90.7503 26.25C92.1503 26.25 93.2378 25.575 94.0128 24.225C94.7878 22.8749 95.1752 20.9501 95.1752 18.45C95.1752 16.7874 94.9972 15.3719 94.641 14.2031C94.2908 13.0344 93.7846 12.1438 93.1221 11.5313C92.4659 10.9187 91.6752 10.6125 90.7503 10.6125C89.3628 10.6125 88.2784 11.2969 87.4971 12.6656C86.7158 14.0281 86.3253 15.9562 86.3253 18.45C86.3253 20.1125 86.5002 21.5251 86.8503 22.6875C87.2003 23.8499 87.7034 24.7343 88.3596 25.3407C89.0222 25.9469 89.819 26.25 90.7503 26.25ZM109.89 28.3125C108.478 28.3125 107.275 27.9281 106.281 27.1593C105.287 26.3843 104.528 25.2625 104.003 23.7938C103.478 22.3187 103.215 20.5376 103.215 18.45C103.215 16.375 103.478 14.6031 104.003 13.1344C104.534 11.6594 105.296 10.5344 106.29 9.75937C107.29 8.97813 108.49 8.58751 109.89 8.58751C111.29 8.58751 112.487 8.97813 113.481 9.75937C114.481 10.5344 115.243 11.6594 115.768 13.1344C116.3 14.6031 116.565 16.375 116.565 18.45C116.565 20.5376 116.303 22.3187 115.778 23.7938C115.253 25.2625 114.493 26.3843 113.5 27.1593C112.506 27.9281 111.303 28.3125 109.89 28.3125ZM109.89 26.25C111.29 26.25 112.378 25.575 113.153 24.225C113.928 22.8749 114.315 20.9501 114.315 18.45C114.315 16.7874 114.137 15.3719 113.781 14.2031C113.431 13.0344 112.925 12.1438 112.262 11.5313C111.606 10.9187 110.815 10.6125 109.89 10.6125C108.503 10.6125 107.418 11.2969 106.637 12.6656C105.856 14.0281 105.465 15.9562 105.465 18.45C105.465 20.1125 105.64 21.5251 105.99 22.6875C106.34 23.8499 106.843 24.7343 107.5 25.3407C108.162 25.9469 108.959 26.25 109.89 26.25ZM129.518 8.85001V28.05H127.193V11.2875H127.08L122.393 14.4V12.0375L127.193 8.85001H129.518ZM144.43 8.85001V28.05H142.105V11.2875H141.992L137.305 14.4V12.0375L142.105 8.85001H144.43ZM20.5323 59.6625C19.1199 59.6625 17.9168 59.2781 16.923 58.5093C15.9293 57.7343 15.1699 56.6125 14.6449 55.1438C14.1199 53.6687 13.8574 51.8876 13.8574 49.8C13.8574 47.7249 14.1199 45.9532 14.6449 44.4843C15.1762 43.0094 15.9387 41.8844 16.9324 41.1094C17.9324 40.3282 19.1325 39.9374 20.5323 39.9374C21.9324 39.9374 23.1293 40.3282 24.1231 41.1094C25.123 41.8844 25.8856 43.0094 26.4105 44.4843C26.9418 45.9532 27.2074 47.7249 27.2074 49.8C27.2074 51.8876 26.9449 53.6687 26.4199 55.1438C25.8948 56.6125 25.1355 57.7343 24.1417 58.5093C23.1481 59.2781 21.9449 59.6625 20.5323 59.6625ZM20.5323 57.6C21.9324 57.6 23.0199 56.925 23.7949 55.575C24.5699 54.2249 24.9575 52.3001 24.9575 49.8C24.9575 48.1374 24.7793 46.7219 24.423 45.5532C24.0731 44.3843 23.5669 43.4937 22.9042 42.8812C22.248 42.2687 21.4575 41.9625 20.5323 41.9625C19.1449 41.9625 18.0605 42.6469 17.2794 44.0156C16.4981 45.3781 16.1074 47.3063 16.1074 49.8C16.1074 51.4625 16.2824 52.8751 16.6324 54.0375C16.9824 55.1999 17.4856 56.0843 18.1418 56.6907C18.8043 57.2969 19.6013 57.6 20.5323 57.6ZM40.1599 40.1999V59.4H37.8349V42.6375H37.7224L33.0349 45.7501V43.3876L37.8349 40.1999H40.1599ZM55.0718 40.1999V59.4H52.7468V42.6375H52.6343L47.9468 45.7501V43.3876L52.7468 40.1999H55.0718ZM69.9837 40.1999V59.4H67.6587V42.6375H67.5461L62.8587 45.7501V43.3876L67.6587 40.1999H69.9837ZM84.408 59.6625C82.9956 59.6625 81.7924 59.2781 80.7988 58.5093C79.805 57.7343 79.0456 56.6125 78.5206 55.1438C77.9956 53.6687 77.7331 51.8876 77.7331 49.8C77.7331 47.7249 77.9956 45.9532 78.5206 44.4843C79.0518 43.0094 79.8144 41.8844 80.808 41.1094C81.8081 40.3282 83.0081 39.9374 84.408 39.9374C85.808 39.9374 87.0049 40.3282 87.9987 41.1094C88.9986 41.8844 89.7612 43.0094 90.2863 44.4843C90.8174 45.9532 91.0831 47.7249 91.0831 49.8C91.0831 51.8876 90.8205 53.6687 90.2955 55.1438C89.7705 56.6125 89.0111 57.7343 88.0175 58.5093C87.0237 59.2781 85.8205 59.6625 84.408 59.6625ZM84.408 57.6C85.808 57.6 86.8955 56.925 87.6705 55.575C88.4455 54.2249 88.8331 52.3001 88.8331 49.8C88.8331 48.1374 88.6549 46.7219 88.2987 45.5532C87.9487 44.3843 87.4425 43.4937 86.78 42.8812C86.1236 42.2687 85.3331 41.9625 84.408 41.9625C83.0205 41.9625 81.9361 42.6469 81.155 44.0156C80.3737 45.3781 79.983 47.3063 79.983 49.8C79.983 51.4625 80.1581 52.8751 80.508 54.0375C80.858 55.1999 81.3613 56.0843 82.0175 56.6907C82.6799 57.2969 83.4769 57.6 84.408 57.6ZM103.548 59.6625C102.136 59.6625 100.932 59.2781 99.9386 58.5093C98.945 57.7343 98.1855 56.6125 97.6606 55.1438C97.1356 53.6687 96.8731 51.8876 96.8731 49.8C96.8731 47.7249 97.1356 45.9532 97.6606 44.4843C98.1917 43.0094 98.9544 41.8844 99.948 41.1094C100.948 40.3282 102.148 39.9374 103.548 39.9374C104.948 39.9374 106.145 40.3282 107.139 41.1094C108.139 41.8844 108.901 43.0094 109.426 44.4843C109.957 45.9532 110.223 47.7249 110.223 49.8C110.223 51.8876 109.961 53.6687 109.436 55.1438C108.91 56.6125 108.151 57.7343 107.157 58.5093C106.164 59.2781 104.961 59.6625 103.548 59.6625ZM103.548 57.6C104.948 57.6 106.036 56.925 106.811 55.575C107.586 54.2249 107.973 52.3001 107.973 49.8C107.973 48.1374 107.795 46.7219 107.439 45.5532C107.089 44.3843 106.582 43.4937 105.92 42.8812C105.264 42.2687 104.473 41.9625 103.548 41.9625C102.16 41.9625 101.076 42.6469 100.295 44.0156C99.5137 45.3781 99.123 47.3063 99.123 49.8C99.123 51.4625 99.2981 52.8751 99.648 54.0375C99.998 55.1999 100.501 56.0843 101.157 56.6907C101.82 57.2969 102.617 57.6 103.548 57.6ZM122.688 59.6625C121.276 59.6625 120.072 59.2781 119.079 58.5093C118.085 57.7343 117.325 56.6125 116.801 55.1438C116.276 53.6687 116.013 51.8876 116.013 49.8C116.013 47.7249 116.276 45.9532 116.801 44.4843C117.332 43.0094 118.094 41.8844 119.088 41.1094C120.088 40.3282 121.288 39.9374 122.688 39.9374C124.088 39.9374 125.285 40.3282 126.279 41.1094C127.279 41.8844 128.041 43.0094 128.566 44.4843C129.097 45.9532 129.363 47.7249 129.363 49.8C129.363 51.8876 129.101 53.6687 128.576 55.1438C128.05 56.6125 127.291 57.7343 126.297 58.5093C125.304 59.2781 124.101 59.6625 122.688 59.6625ZM122.688 57.6C124.088 57.6 125.176 56.925 125.951 55.575C126.726 54.2249 127.113 52.3001 127.113 49.8C127.113 48.1374 126.935 46.7219 126.579 45.5532C126.229 44.3843 125.722 43.4937 125.06 42.8812C124.404 42.2687 123.613 41.9625 122.688 41.9625C121.3 41.9625 120.216 42.6469 119.435 44.0156C118.654 45.3781 118.263 47.3063 118.263 49.8C118.263 51.4625 118.438 52.8751 118.788 54.0375C119.138 55.1999 119.641 56.0843 120.297 56.6907C120.96 57.2969 121.757 57.6 122.688 57.6ZM141.828 59.6625C140.416 59.6625 139.212 59.2781 138.219 58.5093C137.225 57.7343 136.465 56.6125 135.941 55.1438C135.416 53.6687 135.153 51.8876 135.153 49.8C135.153 47.7249 135.416 45.9532 135.941 44.4843C136.472 43.0094 137.234 41.8844 138.228 41.1094C139.228 40.3282 140.428 39.9374 141.828 39.9374C143.228 39.9374 144.425 40.3282 145.419 41.1094C146.419 41.8844 147.181 43.0094 147.706 44.4843C148.237 45.9532 148.503 47.7249 148.503 49.8C148.503 51.8876 148.241 53.6687 147.715 55.1438C147.19 56.6125 146.431 57.7343 145.437 58.5093C144.444 59.2781 143.241 59.6625 141.828 59.6625ZM141.828 57.6C143.228 57.6 144.316 56.925 145.091 55.575C145.866 54.2249 146.253 52.3001 146.253 49.8C146.253 48.1374 146.075 46.7219 145.719 45.5532C145.369 44.3843 144.862 43.4937 144.2 42.8812C143.544 42.2687 142.753 41.9625 141.828 41.9625C140.44 41.9625 139.356 42.6469 138.575 44.0156C137.794 45.3781 137.403 47.3063 137.403 49.8C137.403 51.4625 137.578 52.8751 137.928 54.0375C138.278 55.1999 138.781 56.0843 139.437 56.6907C140.1 57.2969 140.897 57.6 141.828 57.6ZM26.8746 91.0125C25.4621 91.0125 24.259 90.6281 23.2652 89.8593C22.2715 89.0843 21.5121 87.9625 20.9871 86.4938C20.4621 85.0187 20.1995 83.2376 20.1995 81.15C20.1995 79.0749 20.4621 77.3032 20.9871 75.8343C21.5184 74.3594 22.2809 73.2344 23.2746 72.4594C24.2745 71.6782 25.4746 71.2874 26.8746 71.2874C28.2746 71.2874 29.4716 71.6782 30.4652 72.4594C31.4653 73.2344 32.2277 74.3594 32.7527 75.8343C33.284 77.3032 33.5497 79.0749 33.5497 81.15C33.5497 83.2376 33.2872 85.0187 32.7621 86.4938C32.2371 87.9625 31.4778 89.0843 30.484 89.8593C29.4902 90.6281 28.2872 91.0125 26.8746 91.0125ZM26.8746 88.95C28.2746 88.95 29.3622 88.275 30.1372 86.925C30.9122 85.575 31.2996 83.6501 31.2996 81.15C31.2996 79.4874 31.1216 78.0719 30.7653 76.9032C30.4152 75.7344 29.909 74.8437 29.2465 74.2312C28.5903 73.6187 27.7996 73.3125 26.8746 73.3125C25.4871 73.3125 24.4028 73.9969 23.6215 75.3656C22.8402 76.7281 22.4496 78.6563 22.4496 81.15C22.4496 82.8125 22.6245 84.2251 22.9747 85.3875C23.3246 86.5499 23.8277 87.4343 24.4839 88.0407C25.1464 88.6469 25.9434 88.95 26.8746 88.95ZM46.5022 71.5499V90.75H44.1772V73.9875H44.0647L39.3772 77.1001V74.7376L44.1772 71.5499H46.5022ZM61.4141 71.5499V90.75H59.0891V73.9875H58.9765L54.289 77.1001V74.7376L59.0891 71.5499H61.4141ZM75.8384 91.0125C74.4258 91.0125 73.2228 90.6281 72.229 89.8593C71.2352 89.0843 70.4759 87.9625 69.9508 86.4938C69.4258 85.0187 69.1633 83.2376 69.1633 81.15C69.1633 79.0749 69.4258 77.3032 69.9508 75.8343C70.4821 74.3594 71.2446 73.2344 72.2384 72.4594C73.2383 71.6782 74.4384 71.2874 75.8384 71.2874C77.2384 71.2874 78.4353 71.6782 79.4289 72.4594C80.429 73.2344 81.1915 74.3594 81.7165 75.8343C82.2478 77.3032 82.5135 79.0749 82.5135 81.15C82.5135 83.2376 82.2509 85.0187 81.7259 86.4938C81.2009 87.9625 80.4415 89.0843 79.4478 89.8593C78.454 90.6281 77.2509 91.0125 75.8384 91.0125ZM75.8384 88.95C77.2384 88.95 78.3259 88.275 79.1009 86.925C79.8759 85.575 80.2633 83.6501 80.2633 81.15C80.2633 79.4874 80.0853 78.0719 79.7291 76.9032C79.3789 75.7344 78.8727 74.8437 78.2103 74.2312C77.554 73.6187 76.7634 73.3125 75.8384 73.3125C74.4509 73.3125 73.3665 73.9969 72.5852 75.3656C71.804 76.7281 71.4134 78.6563 71.4134 81.15C71.4134 82.8125 71.5883 84.2251 71.9384 85.3875C72.2884 86.5499 72.7915 87.4343 73.4477 88.0407C74.1102 88.6469 74.9071 88.95 75.8384 88.95ZM95.466 71.5499V90.75H93.1409V73.9875H93.0284L88.3409 77.1001V74.7376L93.1409 71.5499H95.466ZM110.378 71.5499V90.75H108.053V73.9875H107.94L103.253 77.1001V74.7376L108.053 71.5499H110.378ZM125.29 71.5499V90.75H122.965V73.9875H122.852L118.165 77.1001V74.7376L122.965 71.5499H125.29ZM140.201 71.5499V90.75H137.877V73.9875H137.764L133.077 77.1001V74.7376L137.877 71.5499H140.201ZM22.6465 122.363C21.2339 122.363 20.0309 121.978 19.0371 121.209C18.0433 120.434 17.284 119.313 16.759 117.844C16.234 116.369 15.9715 114.588 15.9715 112.5C15.9715 110.425 16.234 108.653 16.759 107.184C17.2903 105.709 18.0527 104.584 19.0465 103.809C20.0464 103.028 21.2465 102.637 22.6465 102.637C24.0465 102.637 25.2434 103.028 26.2371 103.809C27.2371 104.584 27.9996 105.709 28.5246 107.184C29.0559 108.653 29.3216 110.425 29.3216 112.5C29.3216 114.588 29.0591 116.369 28.534 117.844C28.009 119.313 27.2497 120.434 26.2559 121.209C25.2621 121.978 24.0591 122.363 22.6465 122.363ZM22.6465 120.3C24.0465 120.3 25.134 119.625 25.909 118.275C26.684 116.925 27.0715 115 27.0715 112.5C27.0715 110.837 26.8934 109.422 26.5372 108.253C26.1871 107.084 25.6808 106.194 25.0184 105.581C24.3622 104.969 23.5715 104.662 22.6465 104.662C21.259 104.662 20.1746 105.347 19.3934 106.716C18.6121 108.078 18.2215 110.006 18.2215 112.5C18.2215 114.163 18.3964 115.575 18.7466 116.738C19.0965 117.9 19.5996 118.784 20.2558 119.391C20.9183 119.997 21.7152 120.3 22.6465 120.3ZM42.2741 102.9V122.1H39.9491V105.338H39.8365L35.149 108.45V106.088L39.9491 102.9H42.2741ZM57.186 102.9V122.1H54.8609V105.338H54.7484L50.0609 108.45V106.088L54.8609 102.9H57.186ZM72.0978 102.9V122.1H69.7728V105.338H69.6603L64.9728 108.45V106.088L69.7728 102.9H72.0978ZM86.5221 122.363C85.1096 122.363 83.9065 121.978 82.9128 121.209C81.919 120.434 81.1596 119.313 80.6346 117.844C80.1096 116.369 79.847 114.588 79.847 112.5C79.847 110.425 80.1096 108.653 80.6346 107.184C81.1659 105.709 81.9284 104.584 82.9221 103.809C83.9221 103.028 85.1221 102.637 86.5221 102.637C87.9221 102.637 89.1191 103.028 90.1127 103.809C91.1128 104.584 91.8752 105.709 92.4003 107.184C92.9315 108.653 93.1972 110.425 93.1972 112.5C93.1972 114.588 92.9347 116.369 92.4097 117.844C91.8846 119.313 91.1253 120.434 90.1315 121.209C89.1377 121.978 87.9347 122.363 86.5221 122.363ZM86.5221 120.3C87.9221 120.3 89.0097 119.625 89.7847 118.275C90.5597 116.925 90.9471 115 90.9471 112.5C90.9471 110.837 90.7691 109.422 90.4128 108.253C90.0627 107.084 89.5565 106.194 88.894 105.581C88.2378 104.969 87.4471 104.662 86.5221 104.662C85.1346 104.662 84.0503 105.347 83.269 106.716C82.4877 108.078 82.0972 110.006 82.0972 112.5C82.0972 114.163 82.272 115.575 82.6222 116.738C82.9721 117.9 83.4752 118.784 84.1314 119.391C84.7941 119.997 85.5909 120.3 86.5221 120.3ZM105.662 122.363C104.25 122.363 103.047 121.978 102.053 121.209C101.059 120.434 100.3 119.313 99.7746 117.844C99.2496 116.369 98.9871 114.588 98.9871 112.5C98.9871 110.425 99.2496 108.653 99.7746 107.184C100.306 105.709 101.068 104.584 102.062 103.809C103.062 103.028 104.262 102.637 105.662 102.637C107.062 102.637 108.259 103.028 109.253 103.809C110.253 104.584 111.015 105.709 111.54 107.184C112.072 108.653 112.337 110.425 112.337 112.5C112.337 114.588 112.075 116.369 111.55 117.844C111.025 119.313 110.265 120.434 109.271 121.209C108.278 121.978 107.075 122.363 105.662 122.363ZM105.662 120.3C107.062 120.3 108.15 119.625 108.925 118.275C109.7 116.925 110.087 115 110.087 112.5C110.087 110.837 109.909 109.422 109.553 108.253C109.203 107.084 108.696 106.194 108.034 105.581C107.378 104.969 106.587 104.662 105.662 104.662C104.275 104.662 103.19 105.347 102.409 106.716C101.628 108.078 101.237 110.006 101.237 112.5C101.237 114.163 101.412 115.575 101.762 116.738C102.112 117.9 102.615 118.784 103.271 119.391C103.934 119.997 104.731 120.3 105.662 120.3ZM125.29 102.9V122.1H122.965V105.338H122.852L118.165 108.45V106.088L122.965 102.9H125.29ZM139.714 122.363C138.301 122.363 137.098 121.978 136.105 121.209C135.111 120.434 134.351 119.313 133.826 117.844C133.301 116.369 133.039 114.588 133.039 112.5C133.039 110.425 133.301 108.653 133.826 107.184C134.358 105.709 135.12 104.584 136.114 103.809C137.114 103.028 138.314 102.637 139.714 102.637C141.114 102.637 142.311 103.028 143.305 103.809C144.305 104.584 145.067 105.709 145.592 107.184C146.123 108.653 146.389 110.425 146.389 112.5C146.389 114.588 146.127 116.369 145.602 117.844C145.077 119.313 144.317 120.434 143.323 121.209C142.33 121.978 141.127 122.363 139.714 122.363ZM139.714 120.3C141.114 120.3 142.202 119.625 142.977 118.275C143.752 116.925 144.139 115 144.139 112.5C144.139 110.837 143.961 109.422 143.605 108.253C143.255 107.084 142.748 106.194 142.086 105.581C141.43 104.969 140.639 104.662 139.714 104.662C138.327 104.662 137.242 105.347 136.461 106.716C135.68 108.078 135.289 110.006 135.289 112.5C135.289 114.163 135.464 115.575 135.814 116.738C136.164 117.9 136.667 118.784 137.323 119.391C137.986 119.997 138.783 120.3 139.714 120.3ZM23.9665 153.713C22.5539 153.713 21.3509 153.328 20.3571 152.559C19.3633 151.784 18.604 150.663 18.079 149.194C17.5539 147.719 17.2914 145.938 17.2914 143.85C17.2914 141.775 17.5539 140.003 18.079 138.534C18.6103 137.059 19.3727 135.934 20.3665 135.159C21.3664 134.378 22.5665 133.987 23.9665 133.987C25.3665 133.987 26.5634 134.378 27.5571 135.159C28.5571 135.934 29.3196 137.059 29.8446 138.534C30.3759 140.003 30.6416 141.775 30.6416 143.85C30.6416 145.938 30.3791 147.719 29.854 149.194C29.329 150.663 28.5697 151.784 27.5759 152.559C26.5821 153.328 25.3791 153.713 23.9665 153.713ZM23.9665 151.65C25.3665 151.65 26.454 150.975 27.229 149.625C28.004 148.275 28.3915 146.35 28.3915 143.85C28.3915 142.187 28.2134 140.772 27.8572 139.603C27.5071 138.434 27.0008 137.544 26.3384 136.931C25.6822 136.319 24.8915 136.012 23.9665 136.012C22.579 136.012 21.4946 136.697 20.7134 138.066C19.9321 139.428 19.5415 141.356 19.5415 143.85C19.5415 145.513 19.7164 146.925 20.0666 148.088C20.4165 149.25 20.9196 150.134 21.5758 150.741C22.2385 151.347 23.0352 151.65 23.9665 151.65ZM43.5941 134.25V153.45H41.2691V136.688H41.1565L36.469 139.8V137.438L41.2691 134.25H43.5941ZM58.5059 134.25V153.45H56.1809V136.688H56.0684L51.3809 139.8V137.438L56.1809 134.25H58.5059ZM72.9302 153.713C71.5177 153.713 70.3147 153.328 69.3209 152.559C68.3271 151.784 67.5678 150.663 67.0427 149.194C66.5177 147.719 66.2552 145.938 66.2552 143.85C66.2552 141.775 66.5177 140.003 67.0427 138.534C67.574 137.059 68.3365 135.934 69.3303 135.159C70.3302 134.378 71.5302 133.987 72.9302 133.987C74.3303 133.987 75.5272 134.378 76.5208 135.159C77.5209 135.934 78.2833 137.059 78.8084 138.534C79.3397 140.003 79.6053 141.775 79.6053 143.85C79.6053 145.938 79.3428 147.719 78.8178 149.194C78.2927 150.663 77.5334 151.784 76.5396 152.559C75.5458 153.328 74.3428 153.713 72.9302 153.713ZM72.9302 151.65C74.3303 151.65 75.4178 150.975 76.1928 149.625C76.9678 148.275 77.3552 146.35 77.3552 143.85C77.3552 142.187 77.1772 140.772 76.8209 139.603C76.4708 138.434 75.9646 137.544 75.3021 136.931C74.6459 136.319 73.8552 136.012 72.9302 136.012C71.5428 136.012 70.4584 136.697 69.6771 138.066C68.8958 139.428 68.5053 141.356 68.5053 143.85C68.5053 145.513 68.6802 146.925 69.0303 148.088C69.3803 149.25 69.8834 150.134 70.5396 150.741C71.2022 151.347 71.999 151.65 72.9302 151.65ZM92.0703 153.713C90.6577 153.713 89.4547 153.328 88.4609 152.559C87.4671 151.784 86.7077 150.663 86.1827 149.194C85.6577 147.719 85.3952 145.938 85.3952 143.85C85.3952 141.775 85.6577 140.003 86.1827 138.534C86.714 137.059 87.4765 135.934 88.4703 135.159C89.4702 134.378 90.6702 133.987 92.0703 133.987C93.4703 133.987 94.6672 134.378 95.6608 135.159C96.6609 135.934 97.4233 137.059 97.9484 138.534C98.4797 140.003 98.7453 141.775 98.7453 143.85C98.7453 145.938 98.4828 147.719 97.9578 149.194C97.4327 150.663 96.6734 151.784 95.6796 152.559C94.6858 153.328 93.4828 153.713 92.0703 153.713ZM92.0703 151.65C93.4703 151.65 94.5578 150.975 95.3328 149.625C96.1078 148.275 96.4952 146.35 96.4952 143.85C96.4952 142.187 96.3172 140.772 95.961 139.603C95.6108 138.434 95.1046 137.544 94.4421 136.931C93.7859 136.319 92.9952 136.012 92.0703 136.012C90.6828 136.012 89.5984 136.697 88.8171 138.066C88.0358 139.428 87.6453 141.356 87.6453 143.85C87.6453 145.513 87.8202 146.925 88.1703 148.088C88.5203 149.25 89.0234 150.134 89.6796 150.741C90.3422 151.347 91.139 151.65 92.0703 151.65ZM111.698 134.25V153.45H109.373V136.688H109.26L104.573 139.8V137.438L109.373 134.25H111.698ZM126.122 153.713C124.71 153.713 123.507 153.328 122.513 152.559C121.519 151.784 120.76 150.663 120.235 149.194C119.71 147.719 119.447 145.938 119.447 143.85C119.447 141.775 119.71 140.003 120.235 138.534C120.766 137.059 121.528 135.934 122.522 135.159C123.522 134.378 124.722 133.987 126.122 133.987C127.522 133.987 128.719 134.378 129.713 135.159C130.713 135.934 131.475 137.059 132 138.534C132.532 140.003 132.797 141.775 132.797 143.85C132.797 145.938 132.535 147.719 132.01 149.194C131.485 150.663 130.725 151.784 129.731 152.559C128.738 153.328 127.535 153.713 126.122 153.713ZM126.122 151.65C127.522 151.65 128.61 150.975 129.385 149.625C130.16 148.275 130.547 146.35 130.547 143.85C130.547 142.187 130.369 140.772 130.013 139.603C129.663 138.434 129.156 137.544 128.494 136.931C127.838 136.319 127.047 136.012 126.122 136.012C124.735 136.012 123.65 136.697 122.869 138.066C122.088 139.428 121.697 141.356 121.697 143.85C121.697 145.513 121.872 146.925 122.222 148.088C122.572 149.25 123.075 150.134 123.731 150.741C124.394 151.347 125.191 151.65 126.122 151.65ZM145.75 134.25V153.45H143.425V136.688H143.312L138.625 139.8V137.438L143.425 134.25H145.75Z"
      fill="#B6B5C8" />
    <path
      d="M90.8449 64.2335C96.3926 64.2335 101.527 66.5676 105.48 70.4788C109.408 74.3688 112.166 79.829 112.985 86.1094L115.956 108.959C116.744 115.008 115.318 120.854 112.391 125.41C109.439 129.994 104.967 133.281 99.6698 134.193C99.2446 134.263 98.8255 134.319 98.394 134.361L97.2243 134.473L95.7108 134.606L94.2535 134.732L92.8527 134.844L91.8394 134.921L91.1764 134.97L90.5323 135.013L89.9005 135.055L89.2814 135.09L88.3807 135.139L87.5052 135.181L86.6609 135.216L85.5851 135.258L84.8096 135.279L84.0715 135.293H83.5899L82.902 135.3H82.2139L81.7323 135.293L80.9943 135.279L80.4814 135.265L79.4245 135.23L78.3112 135.181L77.4355 135.139L76.535 135.09L75.9157 135.055L75.2841 135.013L74.6399 134.97L73.977 134.921L72.9637 134.844L71.5627 134.732L70.1056 134.606L68.5919 134.473L67.4224 134.361C62.0874 133.849 57.428 130.912 54.2194 126.553C51.0298 122.228 49.2785 116.501 49.7164 110.403C49.7538 109.92 49.7975 109.436 49.8601 108.952L52.8309 86.1023C53.6503 79.8221 56.4084 74.3619 60.3363 70.4717C64.289 66.5607 68.1526 64.9001 73.7003 64.9001L90.87 64.2266L90.8449 64.2335Z"
      fill="white" stroke="#787D7B" stroke-width="2" />
    <path
      d="M73.7992 30.7529C84.8442 28.296 102.425 29.1639 118.952 44.1218C135.769 59.3385 135.503 63.6011 135.232 72.5814C134.588 76.3612 133.729 78.9649 132.662 80.3928C131.197 82.3596 129.068 84.0885 126.328 85.5233C121.194 88.2111 113.742 89.9191 104.674 90.6329C96.4323 91.2769 91.6077 90.934 87.5597 90.6399C86.7639 90.584 78.9966 90.353 74.8412 91.1579C70.6353 91.9698 67.3642 93.0547 64.3645 94.0416C59.3378 95.6936 55.0372 97.0725 48.8549 96.8344C43.4239 96.6245 39.2748 95.8825 36.3447 94.4127C32.9852 92.7328 31.0022 90.1639 30.2381 86.4892C28.9625 80.3507 28.7476 66.9748 43.9039 49.7143C57.5822 34.1476 73.0414 30.9208 73.7992 30.7529Z"
      fill="#787D7B" />
    <mask id="mask0_3362_8984" style="mask-type:luminance" maskUnits="userSpaceOnUse" x="28" y="28"
      width="109" height="70">
      <path
        d="M73.7992 30.7529C84.8442 28.296 102.425 29.1639 118.952 44.1218C135.769 59.3385 135.504 63.6011 135.232 72.5814C134.588 76.3612 133.729 78.9649 132.662 80.3928C131.197 82.3596 129.068 84.0885 126.328 85.5233C121.194 88.2111 113.742 89.9191 104.674 90.6329C96.4323 91.2769 91.6077 90.934 87.5597 90.6399C86.7639 90.584 78.9966 90.353 74.8412 91.1579C70.6354 91.9698 67.3642 93.0547 64.3645 94.0416C59.3378 95.6936 55.0372 97.0725 48.8549 96.8344C43.4239 96.6245 39.275 95.8825 36.3447 94.4127C32.9852 92.7328 31.0022 90.1639 30.2381 86.4892C28.9625 80.3507 28.7476 66.9748 43.9039 49.7143C57.5822 34.1476 73.0414 30.9208 73.7992 30.7529Z"
        fill="white" stroke="#787D7B" stroke-width="2" />
    </mask>
    <g mask="url(#mask0_3362_8984)">
      <path fill-rule="evenodd" clip-rule="evenodd"
        d="M87.2252 61.4521C94.7919 61.4521 100.926 65.8238 100.926 71.2165C100.926 76.6093 94.7919 80.981 87.2252 80.981C79.6583 80.981 73.5243 76.6093 73.5243 71.2165C73.5243 65.8238 79.6583 61.4521 87.2252 61.4521ZM124.254 42.9206C131.944 42.9206 138.179 49.7963 138.179 58.2782C138.179 66.76 131.944 73.6357 124.254 73.6357C116.564 73.6357 110.329 66.76 110.329 58.2782C110.329 49.7963 116.564 42.9206 124.254 42.9206ZM46.9697 35.2559C56.5365 35.2559 64.2918 43.8091 64.2918 54.3602C64.2918 64.9113 56.5365 73.4646 46.9697 73.4646C37.403 73.4646 29.6475 64.9113 29.6475 54.3602C29.6475 43.8091 37.403 35.2559 46.9697 35.2559Z"
        fill="white" />
    </g>
    <path
      d="M70.9502 115.5C75.5065 115.5 79.2002 111.806 79.2002 107.25C79.2002 102.694 75.5065 99 70.9502 99C66.3938 99 62.7002 102.694 62.7002 107.25C62.7002 111.806 66.3938 115.5 70.9502 115.5Z"
      stroke="#787D7B" stroke-width="2" />
    <path
      d="M70.95 112.2C73.6838 112.2 75.9 109.984 75.9 107.25C75.9 104.516 73.6838 102.3 70.95 102.3C68.2162 102.3 66 104.516 66 107.25C66 109.984 68.2162 112.2 70.95 112.2Z"
      fill="#787D7B" />
    <path
      d="M97.3499 112.2C100.084 112.2 102.3 109.984 102.3 107.25C102.3 104.516 100.084 102.3 97.3499 102.3C94.6161 102.3 92.3999 104.516 92.3999 107.25C92.3999 109.984 94.6161 112.2 97.3499 112.2Z"
      fill="#787D7B" />
    <path
      d="M97.3501 115.5C101.906 115.5 105.6 111.806 105.6 107.25C105.6 102.694 101.906 99 97.3501 99C92.7937 99 89.1001 102.694 89.1001 107.25C89.1001 111.806 92.7937 115.5 97.3501 115.5Z"
      stroke="#787D7B" stroke-width="2" />
    <path d="M88.2749 105.6H80.0249V108.9H88.2749V105.6Z" fill="#787D7B" />
    <path d="M62.6999 105.6H51.1499V108.9H62.6999V105.6Z" fill="#787D7B" />
    <path d="M117.15 105.6H105.6V108.9H117.15V105.6Z" fill="#787D7B" />
  </g>
  <defs>
    <clipPath id="clip0_3362_8984">
      <rect width="165" height="165" fill="white" />
    </clipPath>
  </defs>
</svg>
