<svg width="24" height="24" viewBox="0 0 24 24" fill="none" xmlns="http://www.w3.org/2000/svg">
<path d="M21.5564 15.9833L21.6467 15.9894C22.1525 16.0456 22.547 16.4677 22.5593 16.9851L22.5571 17.1573C22.476 20.4172 20.0975 23 17.2051 23H7.35416C4.41101 23 2 20.3258 2 16.9851C2.01296 16.4373 2.45446 15.9963 3.00288 15.9833L3.09324 15.9894C3.59903 16.0456 3.99352 16.4677 4.00576 16.9851L4.00793 17.1314C4.07145 19.2678 5.52104 20.9804 7.35416 20.9964H17.2051C19.0799 20.9964 20.5535 19.1891 20.5535 16.9851C20.5665 16.4373 21.008 15.9963 21.5564 15.9833ZM12.3157 1.00208C12.8707 0.96668 13.3494 1.38742 13.3848 1.94182V13.3091L15.4602 11.236C15.8364 10.904 16.4013 10.904 16.7775 11.236C17.1892 11.5994 17.228 12.2273 16.8642 12.6386L13.0492 16.4495C12.6219 16.8034 12.0029 16.8034 11.5756 16.4495L7.8956 12.6386C7.56319 12.2628 7.56319 11.6985 7.8956 11.3227C8.25936 10.9115 8.88797 10.8727 9.29964 11.236L11.375 13.3091V1.94182C11.4073 1.43678 11.8102 1.03433 12.3157 1.00208Z" fill="currentColor"/>
</svg>
