<svg width="20" height="20" viewBox="0 0 20 20" fill="none" xmlns="http://www.w3.org/2000/svg">
  <path d="M19.2125 6.80506C18.2227 4.48273 16.3707 2.62068 14.0604 1.62518C14.6854 1.13021 15.4722 0.833496 16.3288 0.833496C18.3559 0.833496 20 2.48617 20 4.52427C20 5.3867 19.7042 6.17698 19.2125 6.80506H19.2125ZM19.0625 10.8882C19.0625 13.309 18.1173 15.5024 16.5855 17.1343L17.8536 18.4085C18.0211 18.5776 18.125 18.8106 18.125 19.0684C18.125 19.5828 17.7099 20.0002 17.198 20.0002C16.942 20.0002 16.7104 19.8962 16.5423 19.727L15.1807 18.3586C13.7116 19.3901 11.928 20.0002 10 20.0002C8.07549 20.0002 6.29535 19.3929 4.82773 18.3641L3.4759 19.7242C3.3057 19.8948 3.07134 20.0002 2.81253 20.0002C2.29495 20.0002 1.87502 19.5772 1.87502 19.0573C1.87502 18.7967 1.98038 18.561 2.14917 18.3904L3.40684 17.126C1.87989 15.4955 0.937528 13.3048 0.937528 10.8882C0.937528 5.85528 4.99516 1.77631 10 1.77631C15.0049 1.77631 19.0625 5.85534 19.0625 10.8882V10.8882ZM10 3.66055C6.0303 3.66055 2.8125 6.89657 2.8125 10.8883C2.8125 14.8785 6.0303 18.1145 10 18.1145C13.9697 18.1145 17.1875 14.8785 17.1875 10.8883C17.1875 6.89657 13.9697 3.66055 10 3.66055ZM13.75 11.831H10C9.48174 11.831 9.0625 11.4082 9.0625 10.8883V5.8609C9.0625 5.33957 9.48173 4.9181 10 4.9181C10.5183 4.9181 10.9375 5.33957 10.9375 5.8609V9.94544H13.75C14.2683 9.94544 14.6875 10.3669 14.6875 10.8882C14.6875 11.4082 14.2683 11.831 13.75 11.831ZM0.804281 6.93264C0.302045 6.29071 0 5.48376 0 4.60337C0 2.52089 1.67899 0.833557 3.75 0.833557C4.62543 0.833557 5.4283 1.13718 6.06656 1.64187C3.70674 2.65813 1.81574 4.56039 0.804281 6.93264Z" fill="#999999" />
</svg>
