<svg viewBox="-2 -1 14 15" fill="none" xmlns="http://www.w3.org/2000/svg">
<path d="M6.4984 1L9.5 4L9.5006 6.1303C9.21105 5.8903 8.8717 5.7089 8.5004 5.6037L8.5 4.5H6V2H1.5V10L4.02955 10.0005C4.08805 10.3682 4.2311 10.7086 4.43855 11.0003L0.9967 11C0.74206 11 0.532045 10.8085 0.503345 10.5619L0.5 10.5041V1.4959C0.5 1.24682 0.693445 1.03273 0.942665 1.00341L1.00111 1H6.4984ZM7.75 6.5C8.7165 6.5 9.5 7.2835 9.5 8.25L9.49925 8.30165C10.0766 8.46425 10.5 8.99515 10.5 9.625C10.5 10.3562 9.92915 10.9542 9.20875 10.9975L9.125 11H6.375L6.29125 10.9975C5.57085 10.9542 5 10.3562 5 9.625C5 8.995 5.4237 8.46395 6.0017 8.30125L6 8.25C6 7.2835 6.7835 6.5 7.75 6.5ZM7.75 7.5C7.3845 7.5 7.0801 7.76145 7.0135 8.1075L7.00345 8.17775L7 8.25V9.06L6.27795 9.2628C6.0779 9.3164 5.95915 9.522 6.0128 9.72205C6.0525 9.87025 6.1756 9.9738 6.3181 9.99575L6.3723 10.0001H9.1277C9.2923 9.999 9.44255 9.88875 9.4872 9.72205C9.54085 9.522 9.4221 9.3164 9.22205 9.2628L8.7161 9.1216L8.5 9.06V8.25L8.49655 8.17775C8.4602 7.79745 8.13985 7.5 7.75 7.5Z" fill="#666666"/>
<path d="M6.58105 0.799805L9.7002 3.91699V6.12988L9.70117 6.55566L9.37305 6.28418C9.10456 6.06164 8.79013 5.89337 8.44629 5.7959L8.30078 5.75488V5.60352L8.2998 4.7002H5.7998V2.2002H1.7002V9.7998L4.2002 9.80078L4.22754 9.96875C4.28108 10.3054 4.41154 10.6176 4.60156 10.8848L4.82617 11.2002H0.99707C0.640003 11.2002 0.345017 10.9315 0.304688 10.585L0.303711 10.5732L0.300781 10.5156L0.299805 10.5039V1.49609C0.299805 1.14353 0.571338 0.845748 0.918945 0.804688L0.930664 0.803711L0.989258 0.800781L1.00098 0.799805H6.58105ZM10.2998 9.625C10.2998 9.0871 9.93847 8.63316 9.44531 8.49414L9.29688 8.45215L9.29883 8.29883L9.2998 8.25L9.29199 8.0918C9.21274 7.31007 8.55263 6.7002 7.75 6.7002C6.89396 6.7002 6.2002 7.39396 6.2002 8.25L6.20117 8.29492L6.20703 8.45117L6.05566 8.49414C5.56178 8.63331 5.2002 9.08704 5.2002 9.625C5.2002 10.2498 5.68828 10.7609 6.30371 10.7979L6.38086 10.7998H9.11914L9.19629 10.7979L9.31055 10.7852C9.87123 10.6962 10.2998 10.2107 10.2998 9.625ZM7.75 7.2998C8.21294 7.2998 8.59815 7.63102 8.68262 8.06934L8.69531 8.15918L8.69629 8.16797L8.7002 8.24023V8.90918L8.76855 8.92871L9.27246 9.06934C9.54093 9.14127 9.71543 9.39206 9.69922 9.65918L9.68066 9.77344C9.61212 10.0293 9.38121 10.1985 9.12891 10.2002H6.36426L6.35645 10.1992L6.30176 10.1953L6.28809 10.1934C6.09725 10.164 5.92861 10.0388 5.84863 9.85547L5.81934 9.77344C5.74764 9.50522 5.87828 9.23092 6.11719 9.11133L6.22656 9.06934L6.7998 8.9082V8.24023L6.80371 8.16797V8.15918L6.80566 8.14941L6.81543 8.0791L6.81641 8.06934C6.90094 7.63113 7.28694 7.2998 7.75 7.2998ZM7.75 7.7002C7.4822 7.7002 7.25879 7.89182 7.20996 8.14551L7.20215 8.19531L7.2002 8.25977V9.21191L6.33203 9.45508L6.26758 9.4873C6.21393 9.52918 6.18745 9.6001 6.20605 9.66992L6.22656 9.71777C6.25355 9.76103 6.29838 9.79011 6.34863 9.79785L6.375 9.7998H9.12598C9.20287 9.79929 9.27319 9.74743 9.29395 9.66992L9.29883 9.60059C9.29251 9.55573 9.26815 9.51519 9.23242 9.4873L9.16797 9.45508L8.66211 9.31445L8.66113 9.31348L8.44531 9.25195L8.2998 9.21094V8.25977L8.29688 8.19336C8.26864 7.91633 8.03459 7.7002 7.75 7.7002ZM10.7002 9.625C10.7002 10.4627 10.0461 11.1477 9.2207 11.1973H9.21484L9.13086 11.2002H6.36914L6.28516 11.1973H6.2793C5.45393 11.1477 4.7998 10.4627 4.7998 9.625C4.7998 8.95605 5.21683 8.38472 5.80469 8.15625C5.85366 7.12288 6.70451 6.2998 7.75 6.2998C8.7958 6.2998 9.64583 7.12343 9.69434 8.15723C10.2824 8.38526 10.7002 8.95573 10.7002 9.625ZM0.700195 10.5039L0.702148 10.5391L0.712891 10.5918C0.750269 10.7122 0.863715 10.7998 0.99707 10.7998H4.08398C3.98752 10.612 3.91341 10.411 3.86523 10.2002H1.2998V1.7998H6.2002V4.2998H8.7002V5.45605C8.9122 5.52822 9.11266 5.62514 9.2998 5.74121V4.08301L6.41602 1.2002H1.00098L0.963867 1.20215C0.814247 1.22085 0.700195 1.35129 0.700195 1.49609V10.5039Z" fill="#666666"/>
</svg>
