<svg viewBox="2 2 16 16" fill="none" xmlns="http://www.w3.org/2000/svg">
<g clip-path="url(#clip0_53132_37199)">
<path d="M10.9651 7.38802C11.6066 7.38802 12.2004 7.6579 12.6576 8.1102C13.1118 8.56006 13.4307 9.19152 13.5255 9.91777L13.869 12.5602C13.9602 13.2598 13.7953 13.9357 13.4568 14.4626C13.1154 14.9927 12.5982 15.3729 11.9857 15.4783C11.9365 15.4864 11.888 15.4929 11.8381 15.4978L11.7029 15.5107L11.5278 15.5261L11.3593 15.5407L11.1973 15.5537L11.0801 15.5626L11.0034 15.5682L10.9289 15.5731L10.8559 15.578L10.7843 15.582L10.6801 15.5877L10.5788 15.5925L10.4812 15.5966L10.3568 15.6015L10.2671 15.6039L10.1818 15.6055H10.1261L10.0466 15.6063H9.96698L9.91131 15.6055L9.82593 15.6039L9.76665 15.6023L9.64438 15.5982L9.51565 15.5925L9.41439 15.5877L9.31023 15.582L9.23864 15.578L9.16557 15.5731L9.09108 15.5682L9.01445 15.5626L8.89727 15.5537L8.73526 15.5407L8.56673 15.5261L8.39169 15.5107L8.25645 15.4978C7.63949 15.4386 7.10064 15.0989 6.72961 14.5947C6.36074 14.0947 6.15823 13.4324 6.20886 12.7272C6.2132 12.6713 6.21826 12.6153 6.22549 12.5594L6.56905 9.91696C6.66379 9.1907 6.98274 8.5593 7.43698 8.10939C7.89406 7.65709 8.34086 7.46506 8.98245 7.46506L10.968 7.38721L10.9651 7.38802Z" fill="url(#paint0_linear_53132_37199)" stroke="#666666" stroke-width="1.35688"/>
<path d="M8.42285 11.4482C8.45993 11.4886 8.50481 11.5607 8.54785 11.6709C8.63365 11.8907 8.69234 12.2119 8.69238 12.5791C8.69238 12.9465 8.63368 13.2684 8.54785 13.4883C8.50479 13.5985 8.45993 13.6706 8.42285 13.7109C8.41117 13.7236 8.40074 13.7299 8.39453 13.7344C8.38831 13.7299 8.37805 13.7238 8.36621 13.7109C8.32908 13.6707 8.28339 13.5988 8.24023 13.4883C8.1544 13.2684 8.09668 12.9465 8.09668 12.5791C8.09672 12.2119 8.15443 11.8907 8.24023 11.6709C8.28337 11.5604 8.32908 11.4886 8.36621 11.4482C8.3783 11.4351 8.38831 11.4282 8.39453 11.4238C8.40075 11.4282 8.41093 11.4353 8.42285 11.4482ZM11.7373 11.4482C11.7745 11.4885 11.8201 11.5603 11.8633 11.6709C11.9491 11.8907 12.0078 12.2119 12.0078 12.5791C12.0078 12.9465 11.9491 13.2684 11.8633 13.4883C11.8201 13.5988 11.7744 13.6707 11.7373 13.7109C11.7253 13.7239 11.7152 13.73 11.709 13.7344C11.7028 13.7299 11.6932 13.7234 11.6816 13.7109C11.6445 13.6707 11.5988 13.5988 11.5557 13.4883C11.4698 13.2684 11.4111 12.9465 11.4111 12.5791C11.4112 12.2119 11.4699 11.8907 11.5557 11.6709C11.5988 11.5604 11.6445 11.4885 11.6816 11.4482C11.6934 11.4355 11.7028 11.4283 11.709 11.4238C11.7152 11.4282 11.7251 11.435 11.7373 11.4482Z" fill="#999999" stroke="#666666" stroke-width="0.50883"/>
<path d="M8.99428 3.51726C10.2715 3.23315 12.3047 3.33352 14.2159 5.06328C16.1606 6.82299 16.13 7.31594 16.0986 8.35446C16.0241 8.79155 15.9247 9.09267 15.8014 9.25779C15.6319 9.48523 15.3858 9.68515 15.0688 9.85108C14.4751 10.1619 13.6134 10.3594 12.5647 10.442C11.6116 10.5164 11.0537 10.4768 10.5856 10.4428C10.4936 10.4363 9.59531 10.4096 9.11477 10.5027C8.62843 10.5966 8.25011 10.722 7.90325 10.8362C7.32191 11.0272 6.82459 11.1867 6.10963 11.1591C5.48158 11.1349 5.00178 11.0491 4.66293 10.8791C4.27441 10.6848 4.0451 10.3877 3.95673 9.96282C3.80922 9.2529 3.78438 7.70611 5.53708 5.71002C7.11888 3.90984 8.90666 3.53669 8.99428 3.51726Z" fill="#666666"/>
<mask id="mask0_53132_37199" style="mask-type:luminance" maskUnits="userSpaceOnUse" x="3" y="2" width="14" height="10">
<path d="M8.99428 3.51726C10.2715 3.23315 12.3047 3.33352 14.2159 5.06328C16.1606 6.82299 16.13 7.31594 16.0986 8.35446C16.0241 8.79155 15.9247 9.09267 15.8014 9.25779C15.6319 9.48523 15.3858 9.68515 15.0688 9.85108C14.4751 10.1619 13.6134 10.3594 12.5647 10.442C11.6116 10.5164 11.0537 10.4768 10.5856 10.4428C10.4936 10.4363 9.59531 10.4096 9.11477 10.5027C8.62843 10.5966 8.25011 10.722 7.90325 10.8362C7.32191 11.0272 6.82459 11.1867 6.10963 11.1591C5.48158 11.1349 5.00178 11.0491 4.66293 10.8791C4.27441 10.6848 4.0451 10.3877 3.95673 9.96282C3.80922 9.2529 3.78438 7.70611 5.53708 5.71002C7.11888 3.90984 8.90666 3.53669 8.99428 3.51726Z" fill="white" stroke="#333333" stroke-width="1.01766"/>
</mask>
<g mask="url(#mask0_53132_37199)">
<path d="M10.5449 7.32275C10.9356 7.32275 11.2787 7.43578 11.5176 7.60596C11.7568 7.77646 11.8749 7.98883 11.875 8.19678C11.875 8.40487 11.757 8.61797 11.5176 8.78857C11.2787 8.95871 10.9355 9.07178 10.5449 9.07178C10.1543 9.07173 9.81108 8.95877 9.57227 8.78857C9.33295 8.61798 9.21484 8.40485 9.21484 8.19678C9.21499 7.98889 9.33315 7.77644 9.57227 7.60596C9.81108 7.43575 10.1543 7.3228 10.5449 7.32275ZM14.8271 5.1792C15.553 5.1792 16.1835 5.83643 16.1836 6.70068C16.1836 7.56506 15.5531 8.22217 14.8271 8.22217C14.1012 8.22206 13.4717 7.56498 13.4717 6.70068C13.4718 5.83651 14.1013 5.17931 14.8271 5.1792ZM5.88965 4.29346C6.83251 4.29346 7.63852 5.14404 7.63867 6.24756C7.63867 7.35122 6.8326 8.20264 5.88965 8.20264C4.9468 8.20248 4.1416 7.35111 4.1416 6.24756C4.14175 5.14414 4.94689 4.29361 5.88965 4.29346Z" fill="white" stroke="#666666" stroke-width="0.50883"/>
</g>
</g>
<defs>
<linearGradient id="paint0_linear_53132_37199" x1="10.0003" y1="11.0268" x2="9.85611" y2="16.6202" gradientUnits="userSpaceOnUse">
<stop stop-color="white"/>
<stop offset="1" stop-color="#D8D8D8"/>
</linearGradient>
<clipPath id="clip0_53132_37199">
<rect width="20" height="20" fill="white"/>
</clipPath>
</defs>
</svg>
