<svg width="60" height="60" viewBox="0 0 60 60" fill="none" xmlns="http://www.w3.org/2000/svg">
<path fill-rule="evenodd" clip-rule="evenodd" d="M28.2733 30.6362C32.8029 28.7998 36.0029 24.3094 36.0029 19.0612C36.0029 12.1791 30.5003 6.6 23.7124 6.6C16.9246 6.6 11.422 12.1791 11.422 19.0612C11.422 24.3086 14.621 28.7984 19.1495 30.6353C7.27259 33.6955 0 47.7342 0 47.7342V60.0002H47.4196V47.7342C47.4196 47.7342 40.1483 33.698 28.2733 30.6362Z" fill="#FEA005"/>
<path d="M44.7175 11.0377C46.6285 14.3358 51.0005 18 51.0005 18C51.0005 18 55.577 13.9677 57.2835 11.0377C59.2134 7.72424 60.0005 1.84085 60.0005 1.84085C60.0005 1.84085 56.5618 0 51.0005 0C45.4392 0 42.0005 1.84085 42.0005 1.84085C42.0005 1.84085 42.9257 7.94548 44.7175 11.0377Z" fill="#FEA005"/>
</svg>
