<svg width="60" height="60" viewBox="0 0 60 60" fill="none" xmlns="http://www.w3.org/2000/svg">
<path d="M44.7175 11.0377C46.6285 14.3358 51.0005 18 51.0005 18C51.0005 18 55.577 13.9677 57.2835 11.0377C59.2134 7.72424 60.0005 1.84085 60.0005 1.84085C60.0005 1.84085 56.5618 0 51.0005 0C45.4392 0 42.0005 1.84085 42.0005 1.84085C42.0005 1.84085 42.9257 7.94548 44.7175 11.0377Z" fill="#FEA005"/>
<path fill-rule="evenodd" clip-rule="evenodd" d="M14.3247 12L14.3247 33.4926H35.8173V12L14.3247 12Z" fill="#FEA005"/>
<rect y="47.1046" width="12.8955" height="12.8955" fill="#FEA005"/>
<rect x="18.627" y="47.1046" width="12.8955" height="12.8955" fill="#FEA005"/>
<rect x="37.2529" y="47.1046" width="12.8955" height="12.8955" fill="#FEA005"/>
<path fill-rule="evenodd" clip-rule="evenodd" d="M23.6445 39.9402V33.4924H26.5102V39.9402H23.6445Z" fill="#FEA005"/>
<path fill-rule="evenodd" clip-rule="evenodd" d="M7.87739 40.6566L7.87739 47.1044H5.01172L5.01172 40.6566H7.87739Z" fill="#FEA005"/>
<path fill-rule="evenodd" clip-rule="evenodd" d="M26.5102 40.6566V47.8208H23.6445V40.6566H26.5102Z" fill="#FEA005"/>
<path fill-rule="evenodd" clip-rule="evenodd" d="M45.1371 40.6566V47.1044H42.2715V40.6566H45.1371Z" fill="#FEA005"/>
<path fill-rule="evenodd" clip-rule="evenodd" d="M45.1311 41.3732L5.01172 41.3732L5.01172 38.5076L45.1311 38.5076L45.1311 41.3732Z" fill="#FEA005"/>
</svg>
