<svg width="24" height="24" viewBox="0 0 24 24" fill="none" xmlns="http://www.w3.org/2000/svg">
  <path
    d="M21.2168 2.82617C21.6743 2.92782 21.9998 3.33323 22 3.80176V13.7891C21.9999 15.7951 20.9973 17.6685 19.3281 18.7812L12 23L4.67188 18.7812C3.00273 17.6685 2.00005 15.7951 2 13.7891V3.80176C2.00019 3.33323 2.3258 2.92782 2.7832 2.82617L12 1L21.2168 2.82617ZM4 4.60449V13.7891C4.00005 15.1264 4.66849 16.3753 5.78125 17.1172L12 20.5967L18.2188 17.1172C19.3315 16.3753 19.9999 15.1264 20 13.7891V4.60449L12 3.04883L4 4.60449ZM8.11133 15.8252L8.84766 15.9668C8.78407 16.2968 8.75 16.6428 8.75 17H7.25C7.25 16.5478 7.29334 16.1064 7.375 15.6826L8.11133 15.8252ZM16.625 15.6826C16.7067 16.1064 16.75 16.5478 16.75 17H15.25C15.25 16.6428 15.2159 16.2968 15.1523 15.9668L15.8887 15.8252L16.625 15.6826ZM9.82617 12.8027L10.2979 13.3848C9.82492 13.7683 9.41953 14.316 9.1416 14.9834L8.44922 14.6943L7.75684 14.4062C8.12001 13.5341 8.66738 12.7761 9.35352 12.2197L9.82617 12.8027ZM14.6465 12.2197C15.3326 12.7761 15.88 13.5341 16.2432 14.4062L15.5508 14.6943L14.8584 14.9834C14.5805 14.316 14.1751 13.7683 13.7021 13.3848L14.1738 12.8027L14.6465 12.2197ZM12.6162 11.2979C12.8929 11.3409 13.162 11.4122 13.4209 11.5098L12.8916 12.9141C12.6072 12.8069 12.3086 12.75 12 12.75C11.6914 12.75 11.3928 12.8069 11.1084 12.9141L10.5791 11.5098C10.8377 11.4123 11.1065 11.3409 11.3828 11.2979L11.417 11.1738C11.6021 11.2233 11.7974 11.25 12 11.25C12.2026 11.25 12.3979 11.2233 12.583 11.1738L12.6162 11.2979ZM10.0508 10.125C10.2484 10.4665 10.5335 10.7516 10.875 10.9492L10.5 11.5986L10.124 12.248C9.55522 11.9189 9.08106 11.4448 8.75195 10.876L9.40137 10.5L10.0508 10.125ZM14.5986 10.5L15.248 10.876C14.9189 11.4448 14.4448 11.9189 13.876 12.248L13.5 11.5986L13.125 10.9492C13.4665 10.7516 13.7516 10.4665 13.9492 10.125L14.5986 10.5ZM9.10156 8.22363L9.82617 8.41699C9.77669 8.60212 9.75 8.79736 9.75 9C9.75 9.20264 9.77669 9.39788 9.82617 9.58301L9.10156 9.77637L8.37695 9.9707C8.29399 9.66035 8.25 9.3346 8.25 9C8.25 8.6654 8.29399 8.33965 8.37695 8.0293L9.10156 8.22363ZM15.623 8.0293C15.706 8.33965 15.75 8.6654 15.75 9C15.75 9.3346 15.706 9.66035 15.623 9.9707L14.8984 9.77637L14.1738 9.58301C14.2233 9.39788 14.25 9.20264 14.25 9C14.25 8.79736 14.2233 8.60212 14.1738 8.41699L14.8984 8.22363L15.623 8.0293ZM10.5 6.40137L10.875 7.05078C10.5335 7.24842 10.2484 7.53354 10.0508 7.875L9.40137 7.5L8.75195 7.12402C9.08106 6.55522 9.55522 6.08106 10.124 5.75195L10.5 6.40137ZM13.876 5.75195C14.4448 6.08106 14.9189 6.55522 15.248 7.12402L14.5986 7.5L13.9492 7.875C13.7516 7.53354 13.4665 7.24842 13.125 7.05078L13.5 6.40137L13.876 5.75195ZM12 5.25C12.3346 5.25 12.6604 5.29399 12.9707 5.37695L12.7764 6.10156L12.583 6.82617C12.3979 6.77669 12.2026 6.75 12 6.75C11.7974 6.75 11.6021 6.77669 11.417 6.82617L11.2236 6.10156L11.0293 5.37695C11.3396 5.29399 11.6654 5.25 12 5.25Z"
    fill="#333333" />
</svg>
