<svg viewBox="-5 -5 30 30" fill="none" xmlns="http://www.w3.org/2000/svg">
<path d="M10 0L19.2169 1.82598C19.6745 1.92766 20 2.33347 20 2.80217V12.7889C20 14.795 18.9974 16.6684 17.3282 17.7812L10 22L2.6718 17.7812C1.00261 16.6684 0 14.795 0 12.7889V2.80217C0 2.33347 0.32553 1.92766 0.78307 1.82598L10 0ZM10 2.04879L2 3.60434V12.7889C2 14.1263 2.6684 15.3752 3.7812 16.1171L10 19.5963L16.2188 16.1171C17.3316 15.3752 18 14.1263 18 12.7889V3.60434L10 2.04879ZM10 6C11.1046 6 12 6.89543 12 8C12 8.73984 11.5983 9.3858 11.0011 9.7318L11 14H9L8.9999 9.7324C8.4022 9.3866 8 8.74025 8 8C8 6.89543 8.8954 6 10 6Z" fill="#333333"/>
</svg>
