<svg width="12" height="12" viewBox="0 0 12 12" fill="none" xmlns="http://www.w3.org/2000/svg">
<path fill-rule="evenodd" clip-rule="evenodd" d="M11.1799 8.18594C11.1799 7.96043 11.3645 7.77592 11.59 7.77592C11.8155 7.77592 12 7.96043 12 8.18594V10.3522C12 11.0288 11.4465 11.5823 10.7699 11.5823H1.23007C0.55353 11.5823 0 11.0288 0 10.3522V1.64608C0 0.969546 0.55353 0.416016 1.23007 0.416016H5.11161C5.33713 0.416016 5.52164 0.600526 5.52164 0.826038C5.52164 1.05155 5.33713 1.23606 5.11161 1.23606H1.23007C1.00455 1.23606 0.820045 1.42057 0.820045 1.64608V10.3522C0.820045 10.5777 1.00455 10.7622 1.23007 10.7622H10.7699C10.9954 10.7622 11.1799 10.5777 11.1799 10.3522V8.18594ZM7.06659 0.416016H11.5222C11.6998 0.416016 12.0005 0.532189 11.9937 0.962712V5.38412C11.9937 5.60963 11.8092 5.79414 11.5837 5.79414C11.3582 5.79414 11.1736 5.60963 11.1736 5.38412V1.78959L4.57912 8.38412C4.50395 8.46612 4.39461 8.50712 4.2921 8.50712C4.1896 8.50712 4.08709 8.46612 4.00509 8.38412C3.84791 8.22011 3.84791 7.96043 4.00509 7.80325L10.5723 1.23606H7.06659C6.84108 1.23606 6.65657 1.05155 6.65657 0.826038C6.65657 0.600526 6.84108 0.416016 7.06659 0.416016Z" fill="#333333"/>
<path d="M11.9937 0.962712L11.8541 0.960497V0.962712H11.9937ZM11.1736 1.78959H11.3132V1.45262L11.075 1.69089L11.1736 1.78959ZM4.57912 8.38412L4.48033 8.28533L4.47623 8.2898L4.57912 8.38412ZM4.00509 8.38412L3.90429 8.48071L3.90639 8.48281L4.00509 8.38412ZM4.00509 7.80325L3.90639 7.70456L4.00509 7.80325ZM10.5723 1.23606L10.671 1.33476L10.9093 1.09648H10.5723V1.23606ZM11.59 7.63634C11.2874 7.63634 11.0404 7.88334 11.0404 8.18594H11.3195C11.3195 8.03751 11.4415 7.9155 11.59 7.9155V7.63634ZM12.1396 8.18594C12.1396 7.88334 11.8926 7.63634 11.59 7.63634V7.9155C11.7384 7.9155 11.8604 8.03752 11.8604 8.18594H12.1396ZM12.1396 10.3522V8.18594H11.8604V10.3522H12.1396ZM10.7699 11.7219C11.5235 11.7219 12.1396 11.1059 12.1396 10.3522H11.8604C11.8604 10.9517 11.3694 11.4427 10.7699 11.4427V11.7219ZM1.23007 11.7219H10.7699V11.4427H1.23007V11.7219ZM-0.139578 10.3522C-0.139578 11.1059 0.476443 11.7219 1.23007 11.7219V11.4427C0.630617 11.4427 0.139578 10.9517 0.139578 10.3522H-0.139578ZM-0.139578 1.64608V10.3522H0.139578V1.64608H-0.139578ZM1.23007 0.276437C0.476443 0.276437 -0.139578 0.892459 -0.139578 1.64608H0.139578C0.139578 1.04663 0.630617 0.555594 1.23007 0.555594V0.276437ZM5.11161 0.276437H1.23007V0.555594H5.11161V0.276437ZM5.66121 0.826038C5.66121 0.523439 5.41421 0.276437 5.11161 0.276437V0.555594C5.26004 0.555594 5.38206 0.677613 5.38206 0.826038H5.66121ZM5.11161 1.37564C5.41421 1.37564 5.66121 1.12864 5.66121 0.826038H5.38206C5.38206 0.974463 5.26004 1.09648 5.11161 1.09648V1.37564ZM1.23007 1.37564H5.11161V1.09648H1.23007V1.37564ZM0.959623 1.64608C0.959623 1.49766 1.08164 1.37564 1.23007 1.37564V1.09648C0.927468 1.09648 0.680466 1.34348 0.680466 1.64608H0.959623ZM0.959623 10.3522V1.64608H0.680466V10.3522H0.959623ZM1.23007 10.6227C1.08164 10.6227 0.959623 10.5007 0.959623 10.3522H0.680466C0.680466 10.6548 0.927468 10.9018 1.23007 10.9018V10.6227ZM10.7699 10.6227H1.23007V10.9018H10.7699V10.6227ZM11.0404 10.3522C11.0404 10.5007 10.9183 10.6227 10.7699 10.6227V10.9018C11.0725 10.9018 11.3195 10.6548 11.3195 10.3522H11.0404ZM11.0404 8.18594V10.3522H11.3195V8.18594H11.0404ZM11.5222 0.276437H7.06659V0.555594H11.5222V0.276437ZM12.1333 0.964928C12.1372 0.713489 12.0499 0.535162 11.918 0.422008C11.7913 0.313216 11.6373 0.276437 11.5222 0.276437V0.555594C11.5847 0.555594 11.6699 0.576902 11.7362 0.633827C11.7974 0.68639 11.857 0.781412 11.8541 0.960497L12.1333 0.964928ZM12.1333 5.38412V0.962712H11.8541V5.38412H12.1333ZM11.5837 5.93372C11.8863 5.93372 12.1333 5.68672 12.1333 5.38412H11.8541C11.8541 5.53255 11.7321 5.65456 11.5837 5.65456V5.93372ZM11.0341 5.38412C11.0341 5.68672 11.2811 5.93372 11.5837 5.93372V5.65456C11.4352 5.65456 11.3132 5.53255 11.3132 5.38412H11.0341ZM11.0341 1.78959V5.38412H11.3132V1.78959H11.0341ZM4.67782 8.48281L11.2723 1.88829L11.075 1.69089L4.48042 8.28542L4.67782 8.48281ZM4.2921 8.6467C4.42913 8.6467 4.57744 8.59251 4.68201 8.47843L4.47623 8.2898C4.43045 8.33974 4.36009 8.36755 4.2921 8.36755V8.6467ZM3.90639 8.48281C4.01374 8.59016 4.15141 8.6467 4.2921 8.6467V8.36755C4.22778 8.36755 4.16045 8.34208 4.10378 8.28542L3.90639 8.48281ZM3.90639 7.70456C3.69358 7.91737 3.69653 8.26387 3.90431 8.48069L4.10586 8.28754C3.9993 8.17634 4.00225 8.00349 4.10378 7.90195L3.90639 7.70456ZM10.4736 1.13736L3.90639 7.70456L4.10378 7.90195L10.671 1.33476L10.4736 1.13736ZM7.06659 1.37564H10.5723V1.09648H7.06659V1.37564ZM6.51699 0.826038C6.51699 1.12864 6.76399 1.37564 7.06659 1.37564V1.09648C6.91816 1.09648 6.79614 0.974463 6.79614 0.826038H6.51699ZM7.06659 0.276437C6.76399 0.276437 6.51699 0.523439 6.51699 0.826038H6.79614C6.79614 0.677613 6.91816 0.555594 7.06659 0.555594V0.276437Z" fill="#333333"/>
</svg>
