<svg viewBox="0 0 20 20" fill="currentColor" xmlns="http://www.w3.org/2000/svg">
<path d="M10 2.31896L12.0154 7.76545L12.0746 7.92542L12.2346 7.98462L17.681 10L12.2346 12.0154L12.0746 12.0746L12.0154 12.2346L10 17.681L7.98462 12.2346L7.92542 12.0746L7.76545 12.0154L2.31896 10L7.76545 7.98462L7.92542 7.92542L7.98462 7.76545L10 2.31896Z" fill="#FFF500" stroke="#FFF500" stroke-width="0.741939"/>
<path d="M15.625 2.31896L16.1211 3.65971L16.1803 3.81968L16.3403 3.87888L17.681 4.375L16.3403 4.87112L16.1803 4.93032L16.1211 5.09029L15.625 6.43104L15.1289 5.09029L15.0697 4.93032L14.9097 4.87112L13.569 4.375L14.9097 3.87888L15.0697 3.81968L15.1289 3.65971L15.625 2.31896Z" fill="#FFF500" stroke="#FFF500" stroke-width="0.741939"/>
</svg>
