<svg width="16" height="16" viewBox="0 0 16 16" fill="none" xmlns="http://www.w3.org/2000/svg">
    <path d="M15.0431 14.6787C15.3732 14.6787 15.7033 14.9993 15.7033 15.3199C15.7033 15.6405 15.6986 16 15.3684 16H0.631579C0.301435 16 0.257723 15.6405 0.257723 15.3199C0.257723 14.9993 0.626795 14.6787 0.956938 14.6787H15.0431ZM0 13.2184C0 12.8978 0.31579 12.5772 0.631579 12.5772C0.94737 12.5772 1.26316 12.8978 1.26316 13.2184V15.3588C1.26316 15.6794 0.947369 16 0.631579 16C0.315789 16 0 15.6794 0 15.3588L0 13.2184ZM14.7368 13.2184C14.7368 12.8978 15.0526 12.5772 15.3684 12.5772C15.6842 12.5772 16 12.8978 16 13.2184V15.3588C16 15.6794 15.6842 16 15.3684 16C15.0526 16 14.7368 15.6794 14.7368 15.3588V13.2184ZM7.89473 0C8.21052 0 8.52631 0.213734 8.52631 0.641194V10.1522L12.7368 6.09131C12.8421 5.98444 13.0526 5.87758 13.1579 5.87758C13.3684 5.87758 13.5789 5.98444 13.6842 6.30504C13.7895 6.51877 13.7895 6.7325 13.5789 6.94623C12 8.5492 9.05263 11.4346 8.5263 11.9689C8.42104 12.0757 8.21051 12.1826 7.99999 12.1826C7.78946 12.1826 7.57893 12.0758 7.47367 11.9689L6.84209 11.4346C5.47367 10.0453 2.31577 7.05308 2.2105 6.83936C2.10524 6.7325 2.10524 6.4119 2.2105 6.19817C2.31576 5.98444 2.52629 5.87757 2.73682 5.87757C2.84208 5.87757 2.94734 5.87757 3.05261 5.98444C3.15787 6.09131 7.15787 10.0453 7.26313 10.0453L7.36839 10.1522V0.641191C7.36839 0.106865 7.68421 0 7.89473 0Z" fill="#9A9A9A"/>
</svg>
