<svg width="14" height="14" viewBox="0 0 14 14" fill="none" xmlns="http://www.w3.org/2000/svg">
    <path fill-rule="evenodd" clip-rule="evenodd" d="M7.00001 14C3.1402 14 0 10.8595 0 7.00001C0 3.14049 3.1402 0 7.00001 0C10.8598 0 14 3.14049 14 7.00001C14 10.8595 10.8601 14 7.00001 14ZM7.00001 1.4C3.91217 1.4 1.4 3.91217 1.4 7.00001C1.4 10.0878 3.91217 12.6 7.00001 12.6C10.0878 12.6 12.6 10.0878 12.6 7.00001C12.6 3.91217 10.0878 1.4 7.00001 1.4ZM9.56386 4.43431C9.87628 4.74673 9.87628 5.25327 9.56386 5.56569L8.13039 6.99916L9.56523 8.43399C9.87764 8.74641 9.87764 9.25294 9.56523 9.56536C9.25281 9.87778 8.74627 9.87778 8.43385 9.56536L6.99902 8.13053L5.56419 9.56536C5.25177 9.87778 4.74524 9.87778 4.43282 9.56536C4.1204 9.25294 4.1204 8.74641 4.43282 8.43399L5.86765 6.99916L4.43418 5.56569C4.12176 5.25327 4.12176 4.74673 4.43418 4.43431C4.7466 4.1219 5.25313 4.1219 5.56555 4.43431L6.99902 5.86778L8.43249 4.43431C8.74491 4.1219 9.25144 4.1219 9.56386 4.43431Z" fill="#FA504F"/>
</svg>
