<svg width="18" height="20" viewBox="0 0 18 20" fill="none" xmlns="http://www.w3.org/2000/svg">
  <path fill-rule="evenodd" clip-rule="evenodd" d="M14.25 2H16.5C16.8978 2 17.2794 2.15804 17.5607 2.43934C17.842 2.72064 18 3.10218 18 3.5V18.5C18 18.8978 17.842 19.2794 17.5607 19.5607C17.2794 19.842 16.8978 20 16.5 20H1.5C1.10218 20 0.720644 19.842 0.43934 19.5607C0.158035 19.2794 0 18.8978 0 18.5V3.5C0 3.10218 0.158035 2.72064 0.43934 2.43934C0.720644 2.15804 1.10218 2 1.5 2H3.75V1.25C3.75 1.05109 3.82902 0.860322 3.96967 0.71967C4.11032 0.579018 4.30109 0.5 4.5 0.5C4.69891 0.5 4.88968 0.579018 5.03033 0.71967C5.17098 0.860322 5.25 1.05109 5.25 1.25V2H12.75V1.25C12.75 1.05109 12.829 0.860322 12.9697 0.71967C13.1103 0.579018 13.3011 0.5 13.5 0.5C13.6989 0.5 13.8897 0.579018 14.0303 0.71967C14.171 0.860322 14.25 1.05109 14.25 1.25V2ZM3.75 4.25V3.5H1.5V6.5H16.5V3.5H14.25V4.25C14.25 4.44891 14.171 4.63968 14.0303 4.78033C13.8897 4.92098 13.6989 5 13.5 5C13.3011 5 13.1103 4.92098 12.9697 4.78033C12.829 4.63968 12.75 4.44891 12.75 4.25V3.5H5.25V4.25C5.25 4.44891 5.17098 4.63968 5.03033 4.78033C4.88968 4.92098 4.69891 5 4.5 5C4.30109 5 4.11032 4.92098 3.96967 4.78033C3.82902 4.63968 3.75 4.44891 3.75 4.25ZM1.5 18.5H16.5V8H1.5V18.5ZM5.75 12.25C5.33579 12.25 5 12.5858 5 13C5 13.4142 5.33579 13.75 5.75 13.75H12.25C12.6642 13.75 13 13.4142 13 13C13 12.5858 12.6642 12.25 12.25 12.25H5.75Z" fill="#F0F0F0"/>
  </svg>
  