<svg xmlns="http://www.w3.org/2000/svg" fill="none" viewBox="0 0 40 40" class="w_40px h_40px"><g clip-path="url(#logo_svg__a)"><path fill="url(#logo_svg__b)" fill-rule="evenodd" d="M37.603 7.13a5.393 5.393 0 0 1-3.814 6.606L2.532 22.11A5.393 5.393 0 0 1-.259 11.692l31.256-8.375a5.393 5.393 0 0 1 6.606 3.813" clip-rule="evenodd" style="mix-blend-mode:screen"></path><path fill="url(#logo_svg__c)" fill-rule="evenodd" d="M5.713 35.236a5.393 5.393 0 0 1 0-7.627L28.594 4.728a5.393 5.393 0 1 1 7.627 7.627L13.34 35.236a5.393 5.393 0 0 1-7.627 0" clip-rule="evenodd" style="mix-blend-mode:screen"></path><path fill="url(#logo_svg__d)" fill-rule="evenodd" d="M22.622 44.993a5.393 5.393 0 0 1-3.814-6.606l8.375-31.256a5.393 5.393 0 0 1 10.42 2.791L29.226 41.18a5.393 5.393 0 0 1-6.605 3.813" clip-rule="evenodd" style="mix-blend-mode:screen"></path></g><defs><linearGradient id="logo_svg__b" x1="32.389" x2="1.132" y1="8.51" y2="16.885" gradientUnits="userSpaceOnUse"><stop stop-color="#F3674F"></stop><stop offset="1" stop-color="#F3674F" stop-opacity="0"></stop></linearGradient><linearGradient id="logo_svg__c" x1="32.419" x2="9.538" y1="8.553" y2="31.435" gradientUnits="userSpaceOnUse"><stop stop-color="#38E539"></stop><stop offset="1" stop-color="#38E539" stop-opacity="0"></stop></linearGradient><linearGradient id="logo_svg__d" x1="32.409" x2="24.034" y1="8.531" y2="39.788" gradientUnits="userSpaceOnUse"><stop stop-color="#0166FF"></stop><stop offset="1" stop-color="#0166FF" stop-opacity="0"></stop></linearGradient><clipPath id="logo_svg__a"><path fill="#fff" d="M0 0h40v40H0z"></path></clipPath></defs></svg>
