<svg width="32" height="27" viewBox="0 0 32 27" fill="none" xmlns="http://www.w3.org/2000/svg">
    <path d="M25.3333 13.3954C29 13.3954 32 16.4093 32 20.093C32 23.7767 29 26.7907 25.3333 26.7907C21.6667 26.7907 18.6667 23.7767 18.6667 20.093C18.6667 17.347 20.3333 15.0028 22.6667 13.9312L21.9333 10.3814L12.7333 17.28C13.1333 18.1507 13.3333 19.0884 13.3333 20.093C13.3333 23.7767 10.3333 26.7907 6.66667 26.7907C3 26.7907 0 23.7767 0 20.093C0 16.4093 3 13.3953 6.66667 13.3953C7.26667 13.3953 7.8 13.4623 8.33333 13.5963L7.46667 7.36743H6C5.26666 7.36743 4.66666 6.76464 4.66666 6.0279C4.66666 5.29115 5.26666 4.68836 6 4.68836H11.3333C12.0667 4.68836 12.6667 5.29115 12.6667 6.0279C12.6667 6.76464 12.0667 7.36743 11.3333 7.36743H10.2L11.2 15.0697L21.2667 7.56836L20.2667 2.67907H17.3333C16.6 2.67907 16 2.07628 16 1.33954C16 0.602791 16.6 0 17.3333 0H21.3333C21.9333 0 22.5334 0.468836 22.6667 1.07163L24.0667 7.76929V7.83627L25.3334 13.3953C25.2667 13.3953 25.3334 13.3953 25.3334 13.3953L25.3333 13.3954ZM25.3333 24.1116C27.5333 24.1116 29.3333 22.3033 29.3333 20.093C29.3333 18.0837 27.8 16.3423 25.8667 16.1414L26.6667 19.8251C26.8 20.5619 26.3333 21.2316 25.6667 21.4325H25.4C24.8 21.4325 24.2 21.0307 24.0667 20.3609L23.2667 16.6772C22.0667 17.414 21.3333 18.6195 21.3333 20.093C21.3333 22.3033 23.1333 24.1116 25.3333 24.1116H25.3333ZM6.66666 24.1116C8.86666 24.1116 10.6667 22.3033 10.6667 20.093C10.6667 19.6912 10.6 19.2893 10.4667 18.8875L7.46666 21.1647C7.19999 21.3656 6.93332 21.4326 6.66666 21.4326C6.26665 21.4326 5.86665 21.2316 5.59999 20.8968C5.13332 20.294 5.26665 19.4902 5.86666 19.0214L8.86666 16.7442C8.19999 16.3423 7.46666 16.0744 6.59999 16.0744C4.39999 16.0744 2.59999 17.8828 2.59999 20.093C2.59999 22.3033 4.46665 24.1116 6.66665 24.1116H6.66666Z" fill="#23BFF0"/>
</svg>
