<svg id="图层_1" data-name="图层 1" xmlns="http://www.w3.org/2000/svg" viewBox="0 0 1440 200">
  <defs>
    <style>.cls-1{fill:#232323;}.cls-2{fill:#ffffff;}</style>
  </defs>
  <rect class="cls-1" width="1440" height="200" />
  <rect x="973.5" y="60.47" width="19.95" height="13.11" />
  <rect x="973.5" y="102.62" width="41.47" height="13.11" />
  <rect class="cls-2" x="973.5" y="144.46" width="19.95" height="13.11" />
  <rect x="1342.19" y="133.53" width="15.15" height="9.95" />
  <rect x="1325.85" y="165.54" width="31.49" height="9.95" />
  <rect x="1204.53" y="121.42" width="10.88" height="50.23" transform="translate(319.96 979.23) rotate(-50)" />
  <rect x="1174.54" y="86.74" width="10.88" height="79.51" />
  <rect x="584.08" y="70.05" width="9.25" height="42.71" transform="translate(78.98 399.8) rotate(-40)" />
  <rect x="571.94" y="112.28" width="67.6" height="9.25" />
  <polygon points="1270.3 123.33 1253.89 96.14 1247.1 100 1263.6 127.53 1270.3 123.33" />
  <polygon points="1288.49 97.76 1281.51 93.94 1267.44 116.91 1274.24 120.94 1288.49 97.76" />
  <path d="M827.12,140.1v14.62l4.74-.29c17.37-1,31.68-16,31.68-33.31S849.09,88.65,831.77,88l-4.65-.19v14.51l4.24.27a19,19,0,0,1,17.39,18.53,19.25,19.25,0,0,1-17.49,18.74Z" />
  <path d="M848.41,80.81h14.77V76.39C863.36,58.65,848,43.28,830,43.28c-16.93,0-31.44,13.44-33.29,31.27l-.51,4.93h15.08l.21-4.25a18.5,18.5,0,0,1,37,1Z" />
  <path class="cls-2" d="M1127,69.53a30.25,30.25,0,0,0-10.56-22.79l-3.14-2.68-7.34,10,3.11,2.52a16.33,16.33,0,0,1,6.16,13c-.12,9.07-7.11,16.39-15.76,16.5h-4V98.57h4c14.92,0,27.53-13.35,27.53-29" />
  <rect class="cls-2" x="1074.44" y="86.23" width="18.55" height="12.39" />
  <path class="cls-2" d="M492.88,126.79a19.89,19.89,0,0,0-19.58-19.61,17.61,17.61,0,0,0-10.08,3.14,7.9,7.9,0,0,1-.85-.5,17.57,17.57,0,0,0-9.16-2.81,19.94,19.94,0,0,0-19.67,19.7h3.22a16.74,16.74,0,0,1,16.44-16.39,13.81,13.81,0,0,1,7.47,2.3c.69.34,1.78,1.18,2.45,1.61a16.2,16.2,0,0,1,26.54,12.56Z" />
  <path d="M702.57,130.35l20.26,33.54-4,2.47L698.64,132.6Zm34.65,0,4.14,2.27-16.88,27.56-4-2.39Z" />
  <rect class="cls-2" x="177.79" y="128.73" width="32.19" height="8.06" />
  <rect class="cls-2" x="211.49" y="128.73" width="8.06" height="39.52" />
  <path class="cls-2" d="M663.76,33.34a25.05,25.05,0,0,0,50,1.47h6.35c-1.79,17.29-15.8,29.72-31.46,29.72-17,0-31.46-14.6-31.3-31.19Z" />
  <path class="cls-2" d="M62.17,100.42v5.07a21.17,21.17,0,0,0-19.29,20.67,21,21,0,0,0,19.29,20.49v5.08c-13.36-.55-24.55-12.28-24.55-25.62s11.19-24.89,24.55-25.69" />
  <path d="M930.31,34.64v5.08A21.17,21.17,0,0,0,911,60.38a21,21,0,0,0,19.3,20.49V86c-13.36-.54-24.55-12.28-24.55-25.62S917,35.44,930.31,34.64" />
  <rect class="cls-2" x="1334.02" y="37.31" width="68.36" height="11.63" />
  <path d="M514.09,30.52v6.29H516a10.63,10.63,0,0,1,10.36,10.42,8.3,8.3,0,0,1-1.4,4.5l-.09.16,0,.07a5.43,5.43,0,0,1-.42.68l-.33.45-.11.17-.25.37L523,54.77l.85,1.06A10.26,10.26,0,0,1,516,72.65H514v6.28H516A16.86,16.86,0,0,0,532.62,62.3v-.1a15.11,15.11,0,0,0-2-7.43l0-.07,0-.06a14.7,14.7,0,0,0,2.11-7.42A16.9,16.9,0,0,0,516,30.52Z" />
  <rect x="102.12" y="31.69" width="8.51" height="38.15" />
  <rect class="cls-2" x="156.65" y="31.69" width="8.51" height="38.15" />
  <polygon class="cls-2" points="302.98 96.67 329.45 75.03 327.47 72.84 301.08 94.4 302.98 96.67" />
  <rect class="cls-2" x="308.32" y="93.56" width="24.65" height="3.11" />
  <polygon points="431.31 35.48 400.27 60.85 402.6 63.42 433.54 38.14 431.31 35.48" />
  <rect x="396.15" y="35.48" width="28.9" height="3.64" />
  <rect x="1181.13" y="24.51" width="40.84" height="4.15" />
  <rect x="1217.84" y="30.32" width="4.14" height="31.28" />
  <rect x="495.33" y="171.34" width="40.84" height="4.15" />
  <rect x="532.03" y="138.4" width="4.14" height="31.28" />
  <path d="M314.82,154a20.85,20.85,0,0,0,20.68,20.5h2.3v-7.67h-2.3a12.83,12.83,0,1,1,0-25.66h2.3v-7.67h-2.3A20.86,20.86,0,0,0,314.82,154" />
  <path d="M349,166.86v7.67h2.29a20.5,20.5,0,1,0,0-41H349v7.67h2.29a12.83,12.83,0,1,1,0,25.66Z" />
  <path class="cls-2" d="M265.31,24.51c-17.27,0-32,14.86-32,32.16A33,33,0,0,0,245.68,82L249,77.64a26.05,26.05,0,0,1-10.45-21A27,27,0,0,1,265.31,30Z" />
  <rect class="cls-2" x="267.97" y="24.51" width="25.15" height="5.71" />
  <rect class="cls-2" x="1049.5" y="138.71" width="8.72" height="30.64" />
  <rect class="cls-2" x="1059.87" y="138.72" width="23.46" height="8.72" />
</svg>
