<svg width="24" height="24" viewBox="0 0 24 24" fill="none" xmlns="http://www.w3.org/2000/svg">
  <path
    d="M9 2H3C2.44772 2 2 2.44772 2 3V9C2 9.55228 2.44772 10 3 10H9C9.55228 10 10 9.55228 10 9V3C10 2.44772 9.55228 2 9 2Z"
    stroke="currentColor" stroke-width="2" stroke-linecap="round" stroke-linejoin="round" />
  <path
    d="M21 2H15C14.4477 2 14 2.44772 14 3V9C14 9.55228 14.4477 10 15 10H21C21.5523 10 22 9.55228 22 9V3C22 2.44772 21.5523 2 21 2Z"
    stroke="currentColor" stroke-width="2" stroke-linecap="round" stroke-linejoin="round" />
  <path
    d="M9 14H3C2.44772 14 2 14.4477 2 15V21C2 21.5523 2.44772 22 3 22H9C9.55228 22 10 21.5523 10 21V15C10 14.4477 9.55228 14 9 14Z"
    stroke="currentColor" stroke-width="2" stroke-linecap="round" stroke-linejoin="round" />
  <path
    d="M21 14H15C14.4477 14 14 14.4477 14 15V21C14 21.5523 14.4477 22 15 22H21C21.5523 22 22 21.5523 22 21V15C22 14.4477 21.5523 14 21 14Z"
    stroke="currentColor" stroke-width="2" stroke-linecap="round" stroke-linejoin="round" />
</svg>
