<svg viewBox="0 0 16 17" fill="none" xmlns="http://www.w3.org/2000/svg">
<path d="M9.92617 8.49978H10.4558C10.6951 8.49978 10.8891 8.69377 10.8891 8.93312V11.6776C10.8891 11.9169 10.6951 12.1109 10.4558 12.1109H5.54466C5.30534 12.1109 5.11133 11.9169 5.11133 11.6776V8.93312C5.11133 8.69377 5.30534 8.49978 5.54466 8.49978H6.07429M9.92617 8.49978V6.69423C9.92617 6.09238 9.54093 4.88867 8.00022 4.88867C6.45948 4.88867 6.07429 6.09238 6.07429 6.69423V8.49978M9.92617 8.49978H6.07429" stroke="#999999" stroke-width="1.5" stroke-linecap="round" stroke-linejoin="round"/>
<path d="M1.33496 13.6848V3.31705C1.33496 2.49905 1.99808 1.83594 2.81607 1.83594H13.1838C14.0019 1.83594 14.665 2.49905 14.665 3.31705V13.6848C14.665 14.5028 14.0019 15.1659 13.1838 15.1659H2.81607C1.99808 15.1659 1.33496 14.5028 1.33496 13.6848Z" stroke="#999999" stroke-width="1.53808"/>
</svg>
