<svg width="152" height="152" viewBox="0 0 152 152" fill="none" xmlns="http://www.w3.org/2000/svg">
  <path
    d="M85.0366 63.776C85.3452 62.935 85.9009 62.207 86.6309 61.6878C87.3609 61.1685 88.2309 60.8822 89.1265 60.8666H117.086C117.569 60.8485 118.05 60.9367 118.495 61.1249C118.94 61.3131 119.339 61.5967 119.663 61.9558C119.987 62.3148 120.228 62.7405 120.369 63.2029C120.51 63.6653 120.548 64.153 120.48 64.6317L113.261 125.233C113.106 126.265 112.59 127.208 111.805 127.895C111.019 128.581 110.015 128.966 108.972 128.981H20.2577C19.7761 128.999 19.2963 128.912 18.8521 128.725C18.4079 128.538 18.01 128.256 17.6865 127.899C17.3629 127.541 17.1215 127.118 16.9792 126.657C16.8369 126.197 16.7971 125.711 16.8628 125.233L22.9191 74.3169C23.0731 73.2849 23.5891 72.3414 24.3749 71.6548C25.1606 70.9683 26.1648 70.5835 27.2081 70.5693H75.4876C77.5789 70.5329 79.6102 69.8645 81.3146 68.652C83.0189 67.4396 84.3164 65.7397 85.0366 63.776Z"
    fill="#E5E5E5" />
  <path d="M18.4688 115.016H111.165L116.446 52.6436H23.7497L18.4688 115.016Z" fill="#F0F0F0" />
  <path d="M18.4688 115.016H111.165L114.986 52.6436H23.7497L18.4688 115.016Z" fill="#E0E0E0" />
  <path d="M18.4688 115.015H111.165L114.35 50.6621H21.6541L18.4688 115.015Z" fill="#F0F0F0" />
  <path d="M18.4688 115.015H111.165L112.426 50.6621H21.6541L18.4688 115.015Z" fill="#E0E0E0" />
  <path d="M18.4688 115.015H111.165L111.717 48.916H19.0206L18.4688 115.015Z" fill="#F0F0F0" />
  <path d="M18.4664 115.015H111.162L109.259 50.166H17.1602L18.4664 115.015Z" fill="#E0E0E0" />
  <path d="M18.471 115.015H111.167L108.415 50.6621H15.7188L18.471 115.015Z" fill="#F0F0F0" />
  <path d="M18.4693 115.016H111.165L106.785 51.6338H14.0859L18.4693 115.016Z" fill="#E0E0E0" />
  <path d="M18.4686 115.014H111.165L106.086 52.1738H13.3867L18.4686 115.014Z" fill="#F0F0F0" />
  <path
    d="M64.8829 67.714C64.8886 67.3105 64.9751 66.9121 65.1371 66.5425C65.2992 66.1729 65.5336 65.8394 65.8266 65.5618C66.1195 65.2841 66.465 65.0679 66.8428 64.9259C67.2206 64.7839 67.623 64.7189 68.0263 64.7348H96.0132C97.0963 64.7756 98.1352 65.1751 98.9665 65.8705C99.7979 66.5659 100.375 67.5179 100.606 68.5767L111.65 125.158C112.066 127.278 110.679 129 108.559 129H19.8446C17.7246 129 15.6534 127.278 15.2518 125.158L6.13234 78.5134C5.71671 76.3934 7.09982 74.6715 9.22338 74.6715H57.4993C61.6801 74.6715 64.7432 71.7865 64.8829 67.714Z"
    fill="#407BFF" />
  <path
    d="M64.8829 67.714C64.8886 67.3105 64.9751 66.9121 65.1371 66.5425C65.2992 66.1729 65.5336 65.8394 65.8266 65.5618C66.1195 65.2841 66.465 65.0679 66.8428 64.9259C67.2206 64.7839 67.623 64.7189 68.0263 64.7348H96.0132C97.0963 64.7756 98.1352 65.1751 98.9665 65.8705C99.7979 66.5659 100.375 67.5179 100.606 68.5767L111.65 125.158C112.066 127.278 110.679 129 108.559 129H19.8446C17.7246 129 15.6534 127.278 15.2518 125.158L6.13234 78.5134C5.71671 76.3934 7.09982 74.6715 9.22338 74.6715H57.4993C61.6801 74.6715 64.7432 71.7865 64.8829 67.714Z"
    fill="#CCCCCC" />
  <path
    d="M100.378 33.4472C100.125 33.875 99.7475 34.2147 99.2954 34.4202C98.8432 34.6258 98.3388 34.6872 97.8505 34.5961C97.3623 34.5051 96.9139 34.2659 96.5663 33.9111C96.2187 33.5564 95.9886 33.1033 95.9075 32.6133L94.046 20.4312C93.9479 19.9268 94.0156 19.4042 94.239 18.9414C94.4914 18.5136 94.8693 18.1739 95.3214 17.9683C95.7736 17.7628 96.278 17.7014 96.7663 17.7924C97.2545 17.8835 97.7029 18.1227 98.0505 18.4774C98.3982 18.8322 98.6282 19.2853 98.7093 19.7753L100.571 31.9574C100.665 32.4619 100.598 32.9833 100.378 33.4472Z"
    fill="#E5E5E5" />
  <path
    d="M144.151 45.1883C143.994 45.4653 143.783 45.7084 143.531 45.9034L133.818 53.481C133.376 53.8296 132.827 54.0136 132.265 54.0013C131.703 53.9889 131.162 53.781 130.737 53.4133C130.311 53.0456 130.027 52.5411 129.933 51.9865C129.839 51.4319 129.941 50.862 130.222 50.3747C130.381 50.0985 130.591 49.8556 130.842 49.6595L140.558 42.0889C141 41.7451 141.546 41.5647 142.106 41.5787C142.665 41.5926 143.202 41.7999 143.626 42.1654C144.049 42.5308 144.333 43.0317 144.429 43.5829C144.525 44.134 144.426 44.7013 144.151 45.1883Z"
    fill="#E5E5E5" />
  <path
    d="M120.648 36.184C120.344 36.7226 119.843 37.1234 119.251 37.3034C118.659 37.4835 118.021 37.429 117.467 37.1513C116.894 36.8648 116.457 36.3628 116.252 35.7551C116.047 35.1474 116.092 34.4833 116.375 33.908L121.854 22.9016L121.919 22.7834C122.245 22.2652 122.755 21.8898 123.347 21.7328C123.939 21.5758 124.568 21.649 125.108 21.9375C125.647 22.226 126.058 22.7084 126.256 23.2875C126.454 23.8667 126.426 24.4994 126.176 25.0582L120.711 36.0588L120.648 36.184Z"
    fill="#E5E5E5" />
</svg>
