<svg width="35" height="35" viewBox="0 0 35 35" fill="none" xmlns="http://www.w3.org/2000/svg">
<path fill-rule="evenodd" clip-rule="evenodd" d="M17.5 35C27.165 35 35 27.165 35 17.5C35 7.83502 27.165 0 17.5 0C7.83502 0 0 7.83502 0 17.5C0 27.165 7.83502 35 17.5 35Z" fill="#A1A1A1" class="app-icon"/>
<path fill-rule="evenodd" clip-rule="evenodd" d="M8 22.5152L12.528 27H20.3636L15.8354 22.5152H8Z" fill="#5B5B5B"/>
<path fill-rule="evenodd" clip-rule="evenodd" d="M23.7576 22.5152H12.3999L12.3636 13.1818H23.7216L23.7576 22.5152Z" fill="#797979"/>
<path fill-rule="evenodd" clip-rule="evenodd" d="M23.4373 22.4787L28 27V13.5819L23.3939 9.06061L23.4373 22.4787Z" fill="#5B5B5B"/>
<path fill-rule="evenodd" clip-rule="evenodd" d="M15.7924 22.4787L20.3636 27V13.5819L15.7576 9.06061L15.7924 22.4787Z" fill="#F0F0F0"/>
<path fill-rule="evenodd" clip-rule="evenodd" d="M8 9.18182L12.5549 13.6667H28L23.4449 9.18182H8Z" fill="#E1E1E1"/>
<path fill-rule="evenodd" clip-rule="evenodd" d="M8 22.4787L12.5637 27L12.6061 13.5819L8 9.06061V22.4787Z" fill="#5B5B5B"/>
</svg>
