<svg width="24" height="24" viewBox="0 0 24 24" fill="none" xmlns="http://www.w3.org/2000/svg">
  <path
    d="M21.2168 2.82617C21.6743 2.92782 21.9998 3.33323 22 3.80176V13.7891C21.9999 15.7951 20.9973 17.6685 19.3281 18.7812L12 23L4.67188 18.7812C3.00273 17.6685 2.00005 15.7951 2 13.7891V3.80176C2.00019 3.33323 2.3258 2.92782 2.7832 2.82617L12 1L21.2168 2.82617ZM4 4.60449V13.7891C4.00005 15.1264 4.66849 16.3753 5.78125 17.1172L12 20.5967L18.2188 17.1172C19.3315 16.3753 19.9999 15.1264 20 13.7891V4.60449L12 3.04883L4 4.60449ZM12 11.5059C14.1221 11.5059 15.8428 13.2266 15.8428 15.3486V15.499H14.6191V15.3486C14.6191 13.9021 13.4466 12.7295 12 12.7295C10.5536 12.7297 9.38086 13.9022 9.38086 15.3486V15.499H8.1582V15.3486C8.1582 13.2267 9.87809 11.506 12 11.5059ZM15.8848 11.8438C17.22 12.4455 18.1504 13.7884 18.1504 15.3486V15.499H16.9268V15.3486C16.9268 14.2855 16.2935 13.3695 15.3828 12.959L15.2461 12.8975L15.748 11.7822L15.8848 11.8438ZM8.75391 12.8975L8.61719 12.959C7.70648 13.3695 7.07324 14.2855 7.07324 15.3486V15.498H5.84961V15.3486C5.84961 13.7884 6.78003 12.4455 8.11523 11.8438L8.25195 11.7822L8.75391 12.8975ZM8.63867 6.72852L8.89453 7.625L8.92871 7.74609L8.81641 7.80078C8.33025 8.03941 7.9962 8.53942 7.99609 9.11719C7.99609 9.85566 8.54173 10.4669 9.25195 10.5684L9.38086 10.5859V11.8096L9.21777 11.7949C7.84689 11.6715 6.77344 10.5202 6.77344 9.11719C6.77355 7.99472 7.46024 7.03348 8.43652 6.63086L8.5918 6.56738L8.63867 6.72852ZM15.5635 6.63184C16.5399 7.03448 17.2275 7.99557 17.2275 9.11816C17.2273 10.5209 16.1538 11.6714 14.7832 11.7949L14.6191 11.8096V10.5869L14.748 10.5684C15.4581 10.4669 16.0037 9.85647 16.0039 9.11816C16.0039 8.54028 15.6698 8.04043 15.1836 7.80176L15.0713 7.74609L15.1055 7.62598L15.3623 6.72852L15.4082 6.56738L15.5635 6.63184ZM12 5.50586C13.6128 5.50586 14.9199 6.81294 14.9199 8.42578C14.9198 10.0385 13.6127 11.3447 12 11.3447C10.3874 11.3446 9.08122 10.0384 9.08105 8.42578C9.08105 6.81304 10.3873 5.50602 12 5.50586ZM12 6.72949C11.063 6.72965 10.3037 7.48872 10.3037 8.42578C10.3039 9.3627 11.0631 10.1219 12 10.1221C12.9371 10.1221 13.6961 9.3628 13.6963 8.42578C13.6963 7.48862 12.9372 6.72949 12 6.72949Z"
    fill="currentcolor" />
</svg>
