<svg width="24" height="24" viewBox="0 0 24 24" fill="none" xmlns="http://www.w3.org/2000/svg">
  <path
    d="M21.2168 2.82617C21.6743 2.92782 21.9998 3.33323 22 3.80176V13.7891C21.9999 15.7951 20.9973 17.6685 19.3281 18.7812L12 23L4.67188 18.7812C3.00273 17.6685 2.00005 15.7951 2 13.7891V3.80176C2.00019 3.33323 2.3258 2.92782 2.7832 2.82617L12 1L21.2168 2.82617ZM4 4.60449V13.7891C4.00005 15.1264 4.66849 16.3753 5.78125 17.1172L12 20.5967L18.2188 17.1172C19.3315 16.3753 19.9999 15.1264 20 13.7891V4.60449L12 3.04883L4 4.60449ZM12 5.75C14.8995 5.75 17.25 8.1005 17.25 11C17.25 13.8995 14.8995 16.25 12 16.25C9.1005 16.25 6.75 13.8995 6.75 11C6.75 8.1005 9.1005 5.75 12 5.75ZM12 7.25C9.92893 7.25 8.25 8.92893 8.25 11C8.25 13.0711 9.92893 14.75 12 14.75C14.0711 14.75 15.75 13.0711 15.75 11C15.75 8.92893 14.0711 7.25 12 7.25ZM12.75 10.75H14.75V12.25H11.25V8.25H12.75V10.75Z"
    fill="currentcolor" />
</svg>
