<svg width="16" height="16" viewBox="0 0 16 16" fill="none" xmlns="http://www.w3.org/2000/svg">
<path d="M13.2583 3.19749e-07C13.6346 -0.000264878 13.9926 0.164446 14.24 0.451692C14.7129 1.00062 14.6571 1.83406 14.1154 2.31324L9.49645 6.40172C9.46523 6.42951 9.44732 6.46956 9.44726 6.51167V14.6798C9.44738 14.9203 9.38264 15.1562 9.26003 15.3621C8.88854 15.986 8.08831 16.1865 7.47268 15.8101L5.09738 14.3588C4.7068 14.1198 4.46812 13.6911 4.46812 13.2286V6.48015C4.46796 6.44133 4.45261 6.40416 4.42544 6.3768L0.378593 2.24947C0.136031 2.0022 0 1.66768 0 1.31902C0.000169993 0.590375 0.583202 -0.000172183 1.30224 3.19749e-07H13.2583ZM13.2583 1.17202H1.30225C1.26399 1.17202 1.22728 1.18732 1.20015 1.21465C1.14349 1.27172 1.14321 1.36454 1.19954 1.42196L1.19882 1.42271L5.24689 5.55055C5.48932 5.79774 5.62539 6.13209 5.62539 6.48059V13.23C5.62509 13.2815 5.65145 13.3294 5.69482 13.3561L8.07012 14.8074C8.09303 14.8215 8.11937 14.8289 8.14619 14.8288C8.22608 14.8283 8.29047 14.7623 8.29 14.6813V6.51241C8.28995 6.13146 8.4524 5.76909 8.73555 5.51851L13.3538 1.42856C13.3849 1.40078 13.4028 1.36082 13.4028 1.31882C13.4028 1.23786 13.3382 1.17202 13.2583 1.17202ZM13.8767 12.4604C14.1963 12.4604 14.4554 12.7229 14.4554 13.0468C14.4554 13.3706 14.1963 13.6331 13.8767 13.6331H10.9835C10.664 13.6331 10.4049 13.3706 10.4049 13.0468C10.4049 12.7229 10.664 12.4604 10.9835 12.4604H13.8767ZM14.0026 10.2615C14.3221 10.2615 14.5812 10.524 14.5812 10.8479C14.5812 11.1717 14.3221 11.4342 14.0026 11.4342H11.1094C10.7898 11.4342 10.5308 11.1717 10.5308 10.8479C10.5308 10.524 10.7898 10.2615 11.1094 10.2615H14.0026ZM14.0301 8.06261C14.3496 8.06261 14.6087 8.32514 14.6087 8.64898C14.6087 8.97283 14.3496 9.23535 14.0301 9.23535H11.1369C10.8173 9.23535 10.5582 8.97283 10.5582 8.64898C10.5582 8.32514 10.8173 8.06261 11.1369 8.06261H14.0301Z" fill="currentColor"/>
</svg>
