<svg width="16" height="16" viewBox="0 0 16 16" fill="none" xmlns="http://www.w3.org/2000/svg">
<path fill-rule="evenodd" clip-rule="evenodd" d="M7.01933 1.58778C7.31947 1.42059 7.65759 1.33301 8.00114 1.33301C8.34469 1.33301 8.68281 1.42059 8.98295 1.58778C9.28313 1.755 9.53554 1.99642 9.71517 2.28941L9.71711 2.29259L9.7171 2.29259L15.3919 11.6658L15.3974 11.6749L15.3973 11.675C15.5734 11.9766 15.6668 12.3191 15.6678 12.6684C15.6688 13.0177 15.5773 13.3607 15.403 13.6633C15.2287 13.9659 14.9778 14.2171 14.6761 14.3928C14.3745 14.5684 14.0322 14.6625 13.6831 14.6663L13.6759 14.6664V14.6663H2.32638H2.31913L2.31913 14.6663C1.97012 14.6625 1.62779 14.5684 1.32614 14.3928C1.02444 14.2171 0.773615 13.9659 0.599312 13.6633C0.424979 13.3607 0.333492 13.0177 0.334481 12.6684C0.335469 12.3191 0.428896 11.9766 0.604929 11.675L0.610341 11.6657L0.610415 11.6658L6.28517 2.29259L6.85548 2.63787L6.28711 2.28941C6.46674 1.99642 6.71915 1.755 7.01933 1.58778ZM7.42462 2.98501L7.42382 2.98631L1.75427 12.3509C1.69774 12.4493 1.66813 12.5599 1.66781 12.6722C1.66749 12.7859 1.69724 12.8981 1.75463 12.9977C1.81206 13.0974 1.89537 13.1813 1.99698 13.2405C2.09778 13.2992 2.21277 13.3312 2.33063 13.333H13.6716C13.7895 13.3312 13.9045 13.2992 14.0053 13.2405C14.1069 13.1813 14.1902 13.0974 14.2476 12.9977C14.305 12.8981 14.3348 12.7859 14.3345 12.6722C14.3342 12.5599 14.3045 12.4493 14.248 12.3509L8.57845 2.98631L8.57766 2.98501C8.51846 2.88895 8.43482 2.80869 8.3341 2.75259C8.23289 2.69621 8.11819 2.66634 8.00114 2.66634C7.88409 2.66634 7.76939 2.69621 7.66818 2.75259C7.56746 2.80869 7.48382 2.88895 7.42462 2.98501ZM7.99919 5.33301C8.36738 5.33301 8.66585 5.63148 8.66585 5.99967V8.99967C8.66585 9.36786 8.36738 9.66634 7.99919 9.66634C7.631 9.66634 7.33252 9.36786 7.33252 8.99967V5.99967C7.33252 5.63148 7.631 5.33301 7.99919 5.33301ZM7.99919 10.666C7.631 10.666 7.33252 10.9645 7.33252 11.3327C7.33252 11.7009 7.631 11.9993 7.99919 11.9993H8.00585C8.37404 11.9993 8.67252 11.7009 8.67252 11.3327C8.67252 10.9645 8.37404 10.666 8.00585 10.666H7.99919Z" fill="#FF1E1E"/>
</svg>
