<svg width="39" height="27" viewBox="0 0 39 27" fill="none" xmlns="http://www.w3.org/2000/svg">
    <path d="M38.5417 10.1301C38.1803 9.69764 37.6455 9.45409 37.0859 9.45409H31.2123L23.3684 0.556707C23.0069 0.198824 22.5315 0 22.0215 0H7.02166C6.32841 0 5.68962 0.377766 5.3529 0.984179L0 10.6321V21.3537C0 22.4124 0.856662 23.2724 1.9114 23.2724H4.33778C5.03598 25.4097 7.01671 26.9655 9.37376 26.9655C11.7308 26.9655 13.7115 25.4097 14.4098 23.2724H22.5177C23.2159 25.4097 25.1966 26.9655 27.5537 26.9655C29.9306 26.9655 31.9261 25.3799 32.6095 23.2127H35.5211C36.4669 23.2127 37.2642 22.5317 37.4078 21.5973L38.9775 11.6859C39.0617 11.1242 38.9082 10.5576 38.5417 10.1301ZM7.76443 3.18119H12.8101V7.67958H15.9792V3.18119H21.5015L26.7358 9.45409H4.28331L7.76443 3.18119ZM9.37376 23.7794C8.18533 23.7794 7.21973 22.8101 7.21973 21.6171C7.21973 20.4242 8.18533 19.4549 9.37376 19.4549C10.5622 19.4549 11.5278 20.4242 11.5278 21.6171C11.5278 22.8101 10.5572 23.7794 9.37376 23.7794ZM27.5537 23.7794C26.3653 23.7794 25.3997 22.8101 25.3997 21.6171C25.3997 20.4242 26.3653 19.4549 27.5537 19.4549C28.7421 19.4549 29.7077 20.4242 29.7077 21.6171C29.7077 22.8101 28.7372 23.7794 27.5537 23.7794ZM34.4417 20.0266H32.6045C31.9261 17.8594 29.9306 16.2738 27.5487 16.2738C25.1471 16.2738 23.1367 17.8892 22.4781 20.0862H14.4444C13.7858 17.8892 11.7704 16.2738 9.37376 16.2738C6.97709 16.2738 4.96171 17.8892 4.30312 20.0862H3.17411V12.6353H35.6152L34.4417 20.0266Z" fill="#00CC9B"/>
</svg>
