<svg width="16" height="16" viewBox="0 0 16 16" fill="none" xmlns="http://www.w3.org/2000/svg">
<path fill-rule="evenodd" clip-rule="evenodd" d="M14.2204 2.90963C14.5328 2.59721 14.5328 2.09068 14.2204 1.77826C13.908 1.46584 13.4015 1.46584 13.089 1.77826L7.99847 6.86882L2.90791 1.77826C2.59549 1.46584 2.08896 1.46584 1.77654 1.77826C1.46412 2.09068 1.46412 2.59721 1.77654 2.90963L6.8671 8.0002L1.77533 13.092C1.46291 13.4044 1.46291 13.9109 1.77533 14.2233C2.08775 14.5358 2.59428 14.5358 2.9067 14.2233L7.99847 9.13157L13.0902 14.2233C13.4027 14.5358 13.9092 14.5358 14.2216 14.2233C14.534 13.9109 14.534 13.4044 14.2216 13.092L9.12984 8.0002L14.2204 2.90963Z" fill="#333333"/>
</svg>
