<svg width="24" height="24" viewBox="0 0 24 24" fill="none" xmlns="http://www.w3.org/2000/svg">
<path d="M8.99219 13H11.9922H14.9922" stroke="currentColor" stroke-width="2" stroke-linecap="round" stroke-linejoin="round"/>
<path d="M3.03931 4.2939C3.01461 4.10866 3.07922 3.92338 3.23145 3.81499C3.92732 3.31953 6.31432 2 12.0001 2C17.6859 2 20.0729 3.31952 20.7688 3.81499C20.921 3.92338 20.9856 4.10866 20.9609 4.2939L19.2617 17.0378C19.0969 18.2744 18.3645 19.3632 17.2814 19.9821L16.9615 20.1649C13.8872 21.9217 10.113 21.9217 7.03873 20.1649L6.71885 19.9821C5.63572 19.3632 4.90337 18.2744 4.7385 17.0378L3.03931 4.2939Z" stroke="currentColor" stroke-width="2"/>
<path d="M3 5C5.57143 7.66666 18.4286 7.66662 21 5" stroke="currentColor" stroke-width="2"/>
</svg>
