<svg viewBox="-120 -120 440 440" fill="none" xmlns="http://www.w3.org/2000/svg">
<path d="M99.191 195.161C93.5725 195.161 88.1318 192.596 83.0251 187.536C78.1287 182.687 73.7376 175.754 69.9688 166.932C66.2 158.11 63.2596 147.88 61.1974 136.468C59.0745 124.66 57.9902 112.125 57.9902 99.1936C57.9902 86.2621 59.0745 73.7289 61.2039 61.921C63.2661 50.5093 66.2174 40.2602 69.9753 31.4574C73.7332 22.6545 78.1352 15.7005 83.0316 10.8509C88.1318 5.79135 93.5725 3.22583 99.191 3.22583C104.809 3.22583 110.25 5.79135 115.357 10.8509C120.253 15.7005 124.644 22.6328 128.413 31.4574C132.182 40.2819 135.122 50.5093 137.185 61.921C139.307 73.7267 140.392 86.2664 140.392 99.1936C140.392 112.121 139.307 124.663 137.178 136.468C135.116 147.878 132.167 158.118 128.407 166.932C124.646 175.746 120.247 182.687 115.35 187.536C110.25 192.596 104.809 195.161 99.191 195.161ZM99.191 3.97925C93.7893 3.97925 88.5373 6.46683 83.578 11.377C78.7532 16.1573 74.4141 23.0096 70.6844 31.7453C66.9546 40.4811 64.012 50.6934 61.9607 62.0552C59.8356 73.8198 58.7579 86.3162 58.7579 99.1979C58.7579 112.08 59.8421 124.578 61.9607 136.343C64.012 147.698 66.9481 157.895 70.6844 166.653C74.4206 175.41 78.7532 182.241 83.578 187.019C88.5351 191.929 93.7872 194.417 99.191 194.417C104.595 194.417 109.845 191.929 114.804 187.019C119.629 182.238 123.968 175.386 127.698 166.653C131.427 157.919 134.37 147.702 136.421 136.343C138.546 124.578 139.622 112.082 139.622 99.1979C139.622 86.314 138.538 73.8177 136.421 62.0552C134.37 50.6998 131.434 40.5027 127.698 31.7453C123.961 22.9879 119.629 16.1573 114.804 11.377C109.845 6.47332 104.593 3.97925 99.191 3.97925Z" fill="currentColor"/>
<path d="M99.1944 193.057H99.1293C93.2354 193.04 87.5281 190.515 82.1676 185.555C77.024 180.792 72.4096 174.003 68.4543 165.358C64.499 156.713 61.4111 146.698 59.2514 135.529C57.0157 123.974 55.8859 111.714 55.8946 99.0571C55.9033 86.4005 57.046 74.1596 59.2947 62.6072C61.4632 51.4531 64.5793 41.4357 68.5367 32.8363C72.4941 24.237 77.1346 17.4519 82.2804 12.7257C87.63 7.81766 93.3178 5.33008 99.1944 5.33008H99.2594C105.153 5.34956 110.861 7.87178 116.221 12.8318C121.363 17.5948 125.979 24.3864 129.934 33.029C133.89 41.6717 136.978 51.6891 139.137 62.8583C141.373 74.4151 142.503 86.6863 142.494 99.3298C142.485 111.973 141.336 124.249 139.094 135.782C136.926 146.936 133.809 156.951 129.85 165.553C125.89 174.154 121.254 180.937 116.108 185.663C110.759 190.569 105.071 193.057 99.1944 193.057ZM99.1944 6.06185C93.5238 6.06185 88.0116 8.48231 82.8095 13.2561C77.7266 17.9152 73.1598 24.6029 69.2349 33.1329C65.31 41.663 62.207 51.6437 60.045 62.7414C57.8028 74.2375 56.6644 86.4568 56.6557 99.0571C56.647 111.657 57.7768 123.883 59.9995 135.394C62.1484 146.507 65.2276 156.488 69.1525 165.055C73.0774 173.622 77.6247 180.327 82.6967 185.02C87.9184 189.848 93.4436 192.308 99.138 192.325H99.1944C104.865 192.325 110.377 189.905 115.579 185.131C120.656 180.472 125.222 173.784 129.147 165.254C133.072 156.724 136.175 146.743 138.337 135.645C140.579 124.147 141.718 111.928 141.727 99.3298C141.735 86.7317 140.612 74.506 138.389 62.9926C136.24 51.8796 133.161 41.899 129.236 33.3321C125.311 24.7652 120.764 18.0603 115.692 13.3665C110.47 8.53644 104.945 6.07917 99.2507 6.06185H99.1944Z" fill="currentColor"/>
<path d="M99.2197 190.955H99.0788C92.9095 190.918 86.9354 188.435 81.3235 183.576C75.9327 178.909 71.0992 172.249 66.9531 163.788C62.807 155.328 59.5803 145.52 57.3164 134.593C54.9788 123.283 53.8014 111.283 53.8166 98.9186C53.8317 86.5543 55.0396 74.5689 57.4075 63.2914C59.6931 52.3907 62.9609 42.6092 67.12 34.2134C71.2792 25.8175 76.1365 19.2013 81.5425 14.5985C87.1241 9.83552 93.057 7.43237 99.1785 7.43237H99.3173C105.487 7.46918 111.461 9.95243 117.07 14.8107C122.463 19.4806 127.297 26.1379 131.443 34.5987C135.589 43.0595 138.816 52.867 141.08 63.7937C143.417 75.1015 144.595 87.102 144.58 99.4642C144.564 111.826 143.357 123.816 140.989 135.096C138.703 145.994 135.433 155.778 131.276 164.174C127.119 172.57 122.257 179.186 116.854 183.789C111.272 188.549 105.339 190.955 99.2197 190.955ZM99.1785 8.14466C93.2413 8.14466 87.4689 10.4958 82.026 15.1333C76.696 19.6798 71.9037 26.1964 67.7814 34.523C63.6592 42.8495 60.4087 52.592 58.1253 63.4343C55.7682 74.6706 54.5647 86.6062 54.5495 98.9186C54.5343 111.231 55.7074 123.188 58.0342 134.448C60.2829 145.319 63.5052 155.085 67.6166 163.479C71.728 171.872 76.4943 178.437 81.8135 183.042C87.2889 187.783 93.0895 190.203 99.0831 190.24H99.2197C105.155 190.24 110.929 187.889 116.37 183.252C121.698 178.705 126.492 172.189 130.615 163.864C134.737 155.54 137.987 145.793 140.271 134.951C142.628 123.721 143.829 111.785 143.847 99.4642C143.864 87.1432 142.689 75.1946 140.36 63.9344C138.113 53.064 134.889 43.2977 130.779 34.904C126.67 26.5103 121.9 19.9482 116.583 15.3498C111.107 10.6106 105.307 8.18796 99.313 8.15115L99.1785 8.14466Z" fill="currentColor"/>
<path d="M99.2415 188.851H99.0247C92.58 188.796 86.3392 186.354 80.4735 181.594C74.8355 177.017 69.7808 170.496 65.4483 162.215C61.1157 153.934 57.7351 144.34 55.3758 133.654C52.9363 122.6 51.7089 110.867 51.7328 98.7976C51.7566 86.7278 53.0338 75.0065 55.5124 63.9932C57.9129 53.3501 61.339 43.7981 65.7041 35.6079C70.0692 27.4178 75.1521 20.9682 80.8075 16.4889C86.6233 11.8861 92.799 9.55005 99.1656 9.55005H99.3825C105.827 9.60634 112.068 12.0485 117.934 16.8071C123.572 21.3839 128.626 27.9049 132.959 36.186C137.291 44.4671 140.672 54.0623 143.031 64.7466C145.471 75.8032 146.696 87.5332 146.674 99.616C146.653 111.699 145.373 123.405 142.895 134.42C140.494 145.064 137.068 154.613 132.703 162.804C128.338 170.994 123.266 177.432 117.598 181.912C111.784 186.517 105.608 188.851 99.2415 188.851ZM99.1505 10.2385C92.953 10.2385 86.9268 12.5204 81.2433 17.0193C75.6639 21.4294 70.6417 27.788 66.3222 35.9175C62.0026 44.0471 58.5894 53.5492 56.202 64.1339C53.7277 75.1039 52.4635 86.7538 52.4397 98.7846C52.4158 110.816 53.6367 122.5 56.0653 133.509C58.4116 144.135 61.7792 153.687 66.075 161.901C70.3707 170.115 75.3603 176.545 80.9246 181.061C86.6601 185.718 92.7492 188.106 99.0247 188.16H99.2415C105.439 188.16 111.465 185.878 117.149 181.377C122.728 176.958 127.748 170.6 132.07 162.477C136.392 154.354 139.803 144.847 142.19 134.26C144.664 123.297 145.931 111.634 145.952 99.603C145.974 87.5721 144.755 75.8877 142.327 64.8808C139.98 54.2529 136.613 44.7009 132.315 36.4869C128.017 28.2729 123.032 21.8451 117.467 17.3267C111.732 12.672 105.643 10.284 99.3673 10.2277L99.1505 10.2385Z" fill="currentColor"/>
<path d="M99.2755 186.746H98.9568C92.2345 186.67 85.7292 184.269 79.6098 179.602C73.7246 175.114 68.4465 168.733 63.9275 160.632C59.4084 152.531 55.8803 143.15 53.4213 132.704C50.8777 121.898 49.6048 110.437 49.6373 98.6373C49.6699 86.8381 51.0035 75.4048 53.6034 64.6469C56.1167 54.2549 59.7011 44.9455 64.2571 36.9545C68.813 28.9635 74.1344 22.6893 80.0435 18.3355C86.087 13.8821 92.5013 11.624 99.1129 11.624H99.4295C106.152 11.6976 112.657 14.0986 118.776 18.7685C124.662 23.2544 129.938 29.6368 134.459 37.736C138.98 45.8353 142.506 55.2184 144.965 65.6645C147.509 76.4721 148.781 87.9336 148.749 99.7328C148.716 111.532 147.383 122.965 144.783 133.723C142.27 144.115 138.685 153.425 134.127 161.416C129.569 169.407 124.252 175.681 118.343 180.035C112.301 184.488 105.885 186.746 99.2755 186.746ZM99.1129 12.319C92.6552 12.319 86.3819 14.5316 80.4641 18.8941C74.631 23.1938 69.3833 29.3878 64.8642 37.3074C60.3452 45.2269 56.7781 54.4996 54.2778 64.8266C51.6887 75.5282 50.3616 86.9096 50.3291 98.6568C50.2965 110.404 51.5651 121.822 54.0978 132.574C56.5417 142.966 60.0546 152.297 64.5368 160.329C69.019 168.361 74.2277 174.661 80.0391 179.091C86.0327 183.659 92.3993 186.019 98.9654 186.086C105.532 186.153 111.913 183.945 117.926 179.513C123.76 175.213 129.007 169.017 133.526 161.097C138.045 153.178 141.613 143.907 144.113 133.578C146.702 122.879 148.029 111.495 148.062 99.748C148.094 88.0007 146.825 76.5825 144.293 65.8312C141.849 55.4392 138.336 46.1102 133.854 38.0759C129.372 30.0416 124.163 23.7437 118.351 19.3163C112.358 14.7459 105.991 12.3883 99.4251 12.3212L99.1129 12.319Z" fill="currentColor"/>
<path d="M99.3236 184.652H98.9007C91.9009 184.559 85.1245 182.197 78.7557 177.634C72.6233 173.239 67.1263 166.995 62.4186 159.075C57.7108 151.156 54.0375 141.987 51.4809 131.796C48.8332 121.242 47.5126 110.049 47.5516 98.5311C47.5907 87.0133 48.9893 75.8376 51.7064 65.3612C54.3324 55.229 58.0751 46.1469 62.8306 38.3637C67.586 30.5806 73.1329 24.471 79.2957 20.2384C85.5647 15.9344 92.2154 13.7434 99.0655 13.7434H99.4992C106.49 13.8343 113.267 16.2007 119.636 20.7623C125.768 25.1594 131.263 31.4033 135.973 39.3207C140.683 47.238 144.354 56.409 146.91 66.5996C149.556 77.1539 150.879 88.347 150.84 99.8647C150.801 111.383 149.402 122.552 146.685 133.035C144.059 143.167 140.316 152.251 135.561 160.032C130.805 167.813 125.256 173.925 119.093 178.157C112.827 182.461 106.174 184.652 99.3236 184.652ZM99.0677 14.3929C92.3585 14.3929 85.8401 16.5341 79.686 20.758C73.6078 24.9386 68.1238 30.9703 63.4161 38.6863C58.7083 46.4024 54.9591 55.439 52.3569 65.5106C49.6529 75.9437 48.2629 87.048 48.2238 98.5116C48.1848 109.975 49.4989 121.118 52.1271 131.623C54.6707 141.764 58.3267 150.892 62.9954 158.742C67.6641 166.592 73.0939 172.76 79.1526 177.101C85.4064 181.582 92.0506 183.901 98.9072 183.992C105.764 184.083 112.423 181.942 118.712 177.629C124.799 173.449 130.274 167.417 134.99 159.703C139.707 151.989 143.432 142.948 146.034 132.877C148.741 122.443 150.131 111.341 150.17 99.8756C150.209 88.4098 148.895 77.2687 146.266 66.7663C143.723 56.6233 140.067 47.4978 135.398 39.6476C130.729 31.7973 125.3 25.6292 119.241 21.2863C112.989 16.8047 106.341 14.486 99.4862 14.3951L99.0677 14.3929Z" fill="currentColor"/>
<path d="M99.3848 182.541H98.8427C91.5653 182.429 84.52 180.108 77.8997 175.642C71.5222 171.338 65.804 165.23 60.9076 157.495C56.0113 149.759 52.1926 140.794 49.5384 130.837C46.7888 120.532 45.4183 109.62 45.466 98.373C45.5138 87.1258 46.984 76.2597 49.803 66.0387C52.5417 56.1642 56.4428 47.3137 61.3977 39.7362C66.3526 32.1587 72.1294 26.218 78.5437 22.1088C85.1987 17.8481 92.2614 15.7394 99.5452 15.8498C106.829 15.9602 113.857 18.2833 120.486 22.7497C126.87 27.0537 132.59 33.1611 137.485 40.8967C142.379 48.6322 146.2 57.5909 148.856 67.5478C151.606 77.8531 152.976 88.7755 152.928 100.023C152.881 111.27 151.41 122.138 148.591 132.357C145.844 142.218 141.941 151.073 136.988 158.651C132.035 166.228 126.256 172.169 119.842 176.278C113.354 180.433 106.471 182.541 99.3848 182.541ZM99.0075 16.4733C92.051 16.4733 85.2876 18.5452 78.908 22.6328C72.5696 26.6921 66.8644 32.5593 61.9528 40.0718C57.0413 47.5843 53.1576 56.3872 50.434 66.2033C47.615 76.3788 46.16 87.2038 46.1122 98.3773C46.0295 109.276 47.3916 120.137 50.1629 130.679C52.8041 140.577 56.6033 149.489 61.4606 157.161C66.3179 164.834 71.9646 170.868 78.2705 175.131C84.7759 179.526 91.7149 181.81 98.8513 181.918H99.3848C106.341 181.918 113.105 179.846 119.484 175.759C125.823 171.699 131.528 165.832 136.439 158.32C141.351 150.807 145.235 142.002 147.958 132.186C150.777 122.01 152.232 111.185 152.28 100.012C152.363 89.1126 151.001 78.2504 148.229 67.708C145.588 57.8096 141.789 48.9071 136.927 41.2257C132.066 33.5443 126.423 27.5191 120.117 23.2563C113.612 18.8613 106.673 16.5794 99.5366 16.469L99.0075 16.4733Z" fill="currentColor"/>
<path d="M99.4561 180.439C99.2392 180.439 99.0072 180.439 98.7838 180.439C91.2289 180.309 83.9147 178.027 77.0429 173.656C70.4182 169.443 64.481 163.481 59.3959 155.921C54.3109 148.361 50.347 139.62 47.5865 129.897C44.7012 119.593 43.2828 108.935 43.3732 98.2366C43.4274 87.2817 44.954 76.6819 47.9053 66.7273C50.759 57.106 54.8183 48.4893 59.9727 41.1175C65.1272 33.7457 71.1295 27.9738 77.7975 23.9881C84.7127 19.8594 92.0573 17.8265 99.61 17.9477C107.163 18.069 114.477 20.3596 121.349 24.7307C127.973 28.9438 133.911 34.9062 138.996 42.4663C144.081 50.0265 148.045 58.7687 150.801 68.4831C153.686 78.7871 155.104 89.4453 155.014 100.144C154.96 111.097 153.433 121.699 150.482 131.655C147.628 141.275 143.569 149.891 138.415 157.263C133.26 164.635 127.258 170.407 120.59 174.392C113.885 178.406 106.785 180.439 99.4561 180.439ZM98.9356 18.5561C91.7342 18.5561 84.7365 20.5566 78.1314 24.5055C71.5263 28.4545 65.6042 34.1484 60.4953 41.4574C55.3865 48.7665 51.3466 57.3355 48.5103 66.894C45.5742 76.7945 44.0584 87.3423 44.0021 98.2409C43.913 108.884 45.3247 119.487 48.1959 129.737C50.9324 139.393 54.879 148.088 59.9207 155.583C64.9624 163.078 70.8346 168.978 77.3855 173.143C84.1576 177.449 91.3612 179.699 98.7947 179.827C106.228 179.954 113.453 177.952 120.262 173.884C126.857 169.943 132.79 164.239 137.898 156.93C143.007 149.621 147.047 141.052 149.881 131.493C152.82 121.593 154.335 111.045 154.392 100.148C154.48 89.5044 153.068 78.9011 150.198 68.6498C147.461 58.9961 143.515 50.2993 138.473 42.8041C133.431 35.3088 127.557 29.4222 121.006 25.2438C114.234 20.9376 107.03 18.6882 99.5992 18.5626C99.3758 18.5583 99.1568 18.5561 98.9356 18.5561Z" fill="currentColor"/>
<path d="M99.5427 178.335H98.7209C90.8906 178.185 83.3075 175.953 76.1841 171.671C69.3122 167.557 63.1538 161.712 57.8823 154.351C52.6108 146.99 48.4994 138.445 45.6457 128.971C42.6625 118.955 41.1963 108.549 41.2958 98.1001C41.3586 87.4288 42.9481 77.0996 46.0187 67.4134C48.9851 58.0498 53.2028 49.6605 58.5545 42.5008C63.9063 35.3412 70.1384 29.7274 77.058 25.8693C83.9775 22.0113 91.3004 20.052 98.8466 20.052C99.1199 20.052 99.3909 20.052 99.6663 20.052C107.497 20.2014 115.08 22.4335 122.205 26.718C129.075 30.8315 135.233 36.677 140.503 44.038C145.772 51.399 149.888 59.9485 152.742 69.4291C155.723 79.4411 157.189 89.8419 157.091 100.287C157.029 110.96 155.439 121.287 152.369 130.973C149.402 140.339 145.184 148.726 139.833 155.886C134.481 163.046 128.251 168.657 121.338 172.528C114.425 176.399 107.087 178.335 99.5427 178.335ZM98.8466 20.6366C91.4088 20.6366 84.177 22.5677 77.3507 26.376C70.5244 30.1842 64.34 35.7374 59.0359 42.8429C53.7319 49.9484 49.5359 58.2815 46.5868 67.5845C43.5336 77.2209 41.955 87.4873 41.8921 98.1109C41.7982 108.499 43.2599 118.843 46.229 128.8C49.0653 138.215 53.1551 146.696 58.3854 154.011C63.6157 161.327 69.7047 167.092 76.505 171.173C83.5373 175.39 91.0163 177.603 98.7382 177.75H99.5471C106.985 177.75 114.215 175.819 121.039 172.011C127.863 168.203 134.049 162.649 139.356 155.544C144.662 148.438 148.851 140.105 151.8 130.802C154.854 121.168 156.432 110.9 156.495 100.276C156.589 89.887 155.127 79.5424 152.158 69.5849C149.322 60.1715 145.232 51.6891 140.002 44.3736C134.772 37.058 128.682 31.2927 121.882 27.2138C114.852 22.9942 107.371 20.7816 99.649 20.6366C99.3844 20.6387 99.1155 20.6366 98.8466 20.6366Z" fill="currentColor"/>
<path d="M99.6417 176.235C99.3143 176.235 98.9912 176.235 98.6594 176.235C90.5494 176.068 82.6974 173.854 75.3225 169.688C68.2034 165.657 61.8282 159.965 56.3701 152.773C50.9121 145.581 46.6511 137.261 43.6977 128.029C40.6154 118.312 39.0967 108.167 39.1981 97.9748C39.2288 87.8186 40.8877 77.7327 44.1119 68.1C47.1911 58.9941 51.567 50.845 57.1226 43.8846C62.6782 36.9241 69.1315 31.4878 76.3026 27.751C83.4282 24.0359 90.9788 22.1523 98.7462 22.1523C99.0736 22.1523 99.3967 22.1523 99.7285 22.1523C107.839 22.319 115.691 24.5338 123.065 28.7015C130.184 32.7327 136.56 38.4223 142.018 45.6144C147.476 52.8065 151.737 61.1266 154.69 70.3581C157.773 80.083 159.289 90.2347 159.183 100.434C159.15 110.583 157.491 120.662 154.27 130.287C151.19 139.396 146.812 147.542 141.259 154.503C135.705 161.463 129.256 166.9 122.085 170.636C114.96 174.352 107.409 176.235 99.6417 176.235ZM98.7397 22.7109C91.0698 22.7109 83.6125 24.5728 76.5737 28.2403C69.4741 31.9425 63.0815 37.3181 57.5758 44.2223C52.0701 51.1265 47.7202 59.2236 44.6605 68.2689C41.4924 77.639 39.8508 87.6305 39.7793 97.9618C39.6805 108.094 41.1912 118.178 44.255 127.839C47.1889 137.01 51.4239 145.278 56.832 152.414C62.2402 159.549 68.5612 165.187 75.6087 169.177C82.8991 173.306 90.6578 175.482 98.6659 175.646C106.674 175.811 114.474 173.964 121.808 170.147C128.899 166.441 135.3 161.054 140.806 154.159C146.311 147.263 150.661 139.157 153.721 130.112C156.889 120.742 158.531 110.753 158.602 100.421C158.701 90.2887 157.19 80.2046 154.126 70.5443C151.193 61.3734 146.958 53.1053 141.549 45.9695C136.141 38.8336 129.82 33.196 122.773 29.2081C115.476 25.0708 107.719 22.8928 99.709 22.7282C99.3859 22.7217 99.0628 22.7109 98.7397 22.7109Z" fill="currentColor"/>
<path d="M99.7673 174.133C99.3835 174.133 98.9931 174.133 98.6093 174.12C90.2196 173.934 82.0987 171.771 74.47 167.69C67.0973 163.747 60.5095 158.194 54.865 151.184C49.2205 144.174 44.8142 136.068 41.7588 127.081C38.5816 117.661 37.0122 107.775 37.1162 97.8363C37.1582 87.9384 38.882 78.1194 42.2142 68.7972C45.4084 59.9446 49.9426 52.0315 55.6934 45.2767C61.4441 38.522 68.1295 33.248 75.5608 29.639C82.7359 26.1049 90.628 24.2628 98.6288 24.2546C99.0127 24.2546 99.4008 24.2546 99.7868 24.2676C108.174 24.4538 116.295 26.608 123.917 30.6998C131.29 34.6401 137.878 40.1933 143.522 47.2036C149.167 54.2138 153.58 62.3304 156.635 71.3086C159.813 80.7304 161.383 90.6186 161.278 100.56C161.236 110.458 159.512 120.277 156.178 129.599C152.986 138.452 148.451 146.365 142.701 153.122C136.95 159.879 130.264 165.142 122.833 168.757C115.658 172.287 107.767 174.127 99.7673 174.133ZM98.6288 24.7981C90.7129 24.8033 82.9039 26.6232 75.8036 30.1174C68.4504 33.6983 61.8301 38.9117 56.1271 45.6123C50.424 52.313 45.9158 60.1762 42.7433 68.9683C39.4312 78.2356 37.7184 87.9968 37.6778 97.8363C37.5723 107.719 39.1323 117.549 42.2923 126.914C45.3281 135.843 49.7041 143.899 55.303 150.855C60.902 157.811 67.4464 163.312 74.7368 167.216C82.283 171.251 90.3236 173.395 98.6223 173.577C99.0018 173.577 99.3878 173.59 99.7673 173.59C107.683 173.585 115.491 171.765 122.59 168.27C129.944 164.689 136.564 159.476 142.267 152.775C147.97 146.075 152.478 138.211 155.648 129.421C158.962 120.155 160.676 110.395 160.716 100.556C160.821 90.6732 159.261 80.8436 156.102 71.4775C153.066 62.5491 148.69 54.4931 143.091 47.537C137.492 40.5809 130.948 35.0796 123.657 31.1761C116.111 27.1362 108.07 24.9951 99.7738 24.811C99.3921 24.8024 99.0083 24.7981 98.6288 24.7981Z" fill="currentColor"/>
<path d="M99.908 172.031C99.4591 172.031 99.0038 172.031 98.5549 172.015C89.8727 171.808 81.349 169.65 73.6176 165.7C66.0085 161.851 59.193 156.436 53.362 149.608C47.4656 142.667 42.8788 134.716 39.8243 126.141C36.5488 117.017 34.9275 107.383 35.0364 97.6911C35.0882 88.0453 36.8782 78.4875 40.3209 69.4747C43.6278 60.8797 48.3204 53.2005 54.2685 46.6514C60.2165 40.1023 67.1296 35.0059 74.8059 31.5137C82.2378 28.1114 90.3182 26.3523 98.4942 26.3567C98.943 26.3567 99.3984 26.3567 99.8495 26.3719C108.532 26.58 117.055 28.7393 124.787 32.6893C132.396 36.5387 139.211 41.9512 145.042 48.7796C150.94 55.72 155.527 63.6708 158.582 72.2459C161.858 81.3702 163.479 91.0041 163.37 100.696C163.317 110.342 161.525 119.9 158.081 128.913C154.774 137.508 150.082 145.187 144.134 151.736C138.186 158.285 131.273 163.381 123.598 166.874C116.166 170.276 108.085 172.035 99.908 172.031ZM98.4942 26.8785C90.3967 26.8748 82.394 28.6177 75.0336 31.9879C67.4267 35.4518 60.5765 40.4984 54.674 46.9978C48.7714 53.4971 44.1092 61.1222 40.8262 69.6588C37.4041 78.6139 35.6244 88.1109 35.572 97.6955C35.4627 107.327 37.0738 116.901 40.3296 125.968C43.3631 134.484 47.9182 142.381 53.774 149.274C59.5617 156.049 66.3208 161.42 73.8648 165.237C81.5246 169.149 89.9688 171.287 98.5701 171.494C99.0146 171.494 99.4656 171.509 99.9102 171.509C108.008 171.512 116.01 169.77 123.371 166.399C130.978 162.935 137.828 157.889 143.73 151.392C149.633 144.895 154.295 137.265 157.578 128.731C161 119.775 162.78 110.277 162.832 100.692C162.941 91.0601 161.329 81.4861 158.073 72.4191C155.038 63.9071 150.484 56.0144 144.63 49.1238C138.843 42.3495 132.084 36.9803 124.54 33.1613C116.88 29.2495 108.437 27.1109 99.8364 26.9044C99.3897 26.885 98.9387 26.8785 98.4942 26.8785Z" fill="currentColor"/>
<path d="M100.063 169.93C99.5429 169.93 99.0138 169.93 98.4934 169.911C89.5652 169.697 80.7855 167.583 72.7408 163.71C64.813 159.897 57.7105 154.57 51.8347 148.029C45.7996 141.352 41.0637 133.611 37.8698 125.202C34.5002 116.377 32.828 106.998 32.9409 97.5546C33.0047 88.1595 34.863 78.8628 38.4163 70.1631C41.7639 61.9378 46.658 54.4286 52.8343 48.0411C58.8468 41.7874 66.0595 36.807 74.0419 33.3971C81.7193 30.1267 89.9816 28.4459 98.3286 28.4566C98.849 28.4566 99.376 28.4566 99.8986 28.4761C108.827 28.6914 117.606 30.8053 125.651 34.6766C133.579 38.4905 140.682 43.8178 146.559 50.3577C152.596 57.0351 157.333 64.7772 160.529 73.1876C163.899 82.0117 165.571 91.3914 165.458 100.835C165.394 110.229 163.535 119.525 159.982 128.224C156.635 136.451 151.741 143.961 145.564 150.35C139.55 156.604 132.335 161.583 124.35 164.99C116.673 168.26 108.41 169.941 100.063 169.93ZM98.3286 28.9589C90.0562 28.9495 81.8678 30.6155 74.2587 33.8561C66.3416 37.2384 59.1879 42.1783 53.2247 48.381C47.0935 54.7247 42.2354 62.1817 38.9128 70.3493C35.384 78.9916 33.5375 88.2263 33.4722 97.5589C33.361 106.941 35.0229 116.259 38.3707 125.026C41.5454 133.379 46.2518 141.068 52.2489 147.698C58.0803 154.189 65.129 159.476 72.9967 163.26C80.9652 167.096 89.6607 169.192 98.5043 169.411C99.0203 169.411 99.5451 169.43 100.061 169.43C108.334 169.439 116.522 167.772 124.131 164.531C132.048 161.149 139.201 156.21 145.165 150.008C151.296 143.664 156.154 136.207 159.477 128.04C163.006 119.397 164.852 110.163 164.918 100.83C165.033 91.4524 163.377 82.137 160.036 73.3716C156.861 65.0192 152.155 57.3307 146.158 50.6998C140.326 44.2098 133.278 38.9229 125.41 35.1378C117.438 31.2998 108.738 29.2036 99.8899 28.9892C99.3716 28.9654 98.849 28.9589 98.3286 28.9589Z" fill="currentColor"/>
<path d="M100.236 167.83C99.6373 167.83 99.0301 167.83 98.4295 167.806C89.261 167.579 80.2325 165.509 71.8832 161.721C59.5362 156.128 49.0839 147.073 41.7986 135.657C34.5133 124.24 30.7092 110.956 30.8494 97.4202C30.9288 88.2727 32.8591 79.2355 36.5243 70.8514C41.7369 58.8633 50.3493 48.6603 61.2997 41.5002C72.2501 34.34 85.0599 30.5358 98.1497 30.5565C98.7504 30.5565 99.3576 30.5565 99.9561 30.5803C109.125 30.8072 118.153 32.877 126.502 36.6661C138.849 42.2589 149.301 51.3144 156.586 62.7305C163.871 74.1466 167.676 87.4309 167.536 100.966C167.455 110.114 165.525 119.151 161.861 127.535C156.649 139.523 148.036 149.726 137.086 156.887C126.135 164.047 113.326 167.851 100.236 167.83ZM98.1497 31.0371C85.1584 31.0314 72.4482 34.8141 61.5803 41.9205C50.7123 49.0269 42.1598 59.1477 36.9732 71.0397C33.337 79.3659 31.423 88.3395 31.346 97.4224C31.232 106.556 32.9453 115.62 36.3855 124.084C43.0869 140.584 55.862 153.896 72.087 161.285C80.376 165.048 89.3396 167.105 98.4425 167.332C99.0388 167.345 99.6416 167.354 100.236 167.354C113.227 167.359 125.937 163.576 136.805 156.469C147.673 149.362 156.226 139.241 161.412 127.349C165.052 119.023 166.97 110.049 167.05 100.964C167.161 91.83 165.444 82.7655 162 74.3024C155.297 57.8035 142.522 44.4924 126.299 37.1013C118.011 33.3402 109.05 31.2859 99.9496 31.0609C99.3489 31.0458 98.7461 31.0371 98.1497 31.0371Z" fill="currentColor"/>
<path d="M100.443 165.73C99.758 165.73 99.0641 165.73 98.3767 165.702C88.9633 165.465 79.6814 163.439 71.0281 159.731C62.7606 156.206 55.2276 151.165 48.8187 144.871C42.5163 138.72 37.4772 131.399 33.9843 123.32C30.4297 115.103 28.6518 106.23 28.767 97.2797C28.8601 88.3814 30.8562 79.6057 34.6218 71.5401C38.2978 63.673 43.5185 56.623 49.9745 50.8081C56.5505 44.8589 64.2113 40.2283 72.5395 37.1686C80.673 34.1671 89.2782 32.6406 97.9495 32.6611C98.6347 32.6611 99.3308 32.6611 100.016 32.6892C109.429 32.9262 118.711 34.9527 127.365 38.6603C135.632 42.1859 143.165 47.2263 149.574 53.5208C155.876 59.6719 160.915 66.9923 164.408 75.0712C167.964 83.2866 169.743 92.1586 169.63 101.107C169.538 110.006 167.541 118.782 163.775 126.847C160.099 134.714 154.879 141.764 148.423 147.579C141.847 153.529 134.186 158.16 125.858 161.219C117.723 164.222 109.116 165.75 100.443 165.73ZM97.9538 33.1157C89.3404 33.0961 80.7925 34.6123 72.713 37.593C64.442 40.6332 56.8342 45.2337 50.3041 51.1437C43.8923 56.9169 38.7069 63.9169 35.0555 71.7284C31.3178 79.7337 29.3357 88.4436 29.2419 97.2754C29.1267 106.162 30.892 114.973 34.4223 123.132C37.891 131.157 42.8963 138.428 49.157 144.537C55.5236 150.798 63.0089 155.813 71.2254 159.322C79.8222 163.004 89.0427 165.017 98.394 165.254C99.0771 165.274 99.7667 165.282 100.448 165.282C109.061 165.302 117.609 163.786 125.688 160.805C133.959 157.765 141.567 153.164 148.097 147.254C154.509 141.481 159.694 134.481 163.346 126.67C167.084 118.664 169.066 109.954 169.16 101.123C169.274 92.2359 167.508 83.4251 163.979 75.266C160.506 67.2408 155.497 59.9696 149.234 53.8607C142.869 47.6002 135.386 42.5855 127.172 39.076C118.575 35.3943 109.354 33.3811 100.003 33.1439C99.3265 33.1266 98.6347 33.1157 97.9538 33.1157Z" fill="currentColor"/>
<path d="M100.667 163.633C99.8868 163.633 99.0954 163.633 98.3126 163.599C88.6536 163.353 79.1178 161.373 70.1616 157.753C61.7245 154.363 53.9771 149.466 47.2996 143.302C40.7204 137.201 35.5899 130.165 32.0358 122.392C28.3881 114.48 26.5567 105.854 26.6753 97.144C26.7819 88.4903 28.848 79.9728 32.7188 72.2293C36.4768 64.6518 41.8003 57.923 48.5486 52.1966C55.4042 46.4051 63.2849 41.9457 71.7836 39.0486C80.1292 36.1842 88.8957 34.7331 97.7206 34.7554C98.5012 34.7554 99.2927 34.7684 100.073 34.79C109.733 35.0403 119.268 37.024 128.224 40.6463C136.661 44.0366 144.408 48.9337 151.086 55.0977C157.665 61.1986 162.796 68.2349 166.35 76.0072C169.996 83.9164 171.828 92.5386 171.711 101.245C171.604 109.898 169.538 118.416 165.667 126.159C161.909 133.726 156.586 140.468 149.837 146.192C142.982 151.984 135.101 156.443 126.602 159.34C118.258 162.205 109.492 163.656 100.667 163.633ZM97.7206 35.1949C88.9471 35.1712 80.2316 36.6143 71.9354 39.4642C63.4893 42.3414 55.6571 46.7715 48.8435 52.5257C42.1451 58.2174 36.8584 64.9073 33.1265 72.4198C29.2858 80.1067 27.2354 88.561 27.1285 97.1505C27.0126 105.793 28.8306 114.352 32.4499 122.204C35.9737 129.924 41.0761 136.913 47.614 142.975C54.2507 149.101 61.9502 153.968 70.3351 157.337C79.2399 160.939 88.7211 162.912 98.3256 163.161C99.104 163.183 99.8912 163.194 100.667 163.194C109.44 163.217 118.155 161.775 126.45 158.927C134.897 156.048 142.73 151.617 149.545 145.863C156.239 140.175 161.527 133.483 165.259 125.969C169.1 118.282 171.15 109.828 171.257 101.238C171.373 92.5963 169.555 84.0378 165.936 76.1869C162.412 68.4665 157.31 61.4801 150.772 55.4159C144.135 49.2898 136.436 44.4228 128.051 41.0533C119.146 37.4519 109.665 35.4785 100.06 35.2273C99.284 35.2057 98.4969 35.1949 97.7206 35.1949Z" fill="currentColor"/>
<path d="M100.931 161.534C100.047 161.534 99.1489 161.521 98.262 161.495C88.3525 161.231 78.56 159.288 69.3022 155.75C60.4679 152.355 52.5574 147.631 45.7918 141.71C39.0262 135.788 33.7438 128.969 30.0943 121.434C26.3169 113.64 24.4563 105.413 24.5908 97.0025C24.7166 88.5929 26.8533 80.335 30.8229 72.9169C34.6958 65.6079 40.1777 59.102 47.1167 53.5835C54.0558 48.0649 62.1008 43.8085 71.0327 40.9334C79.5751 38.2043 88.4928 36.8273 97.4618 36.8524C98.3444 36.8524 99.2421 36.8675 100.129 36.8935C110.039 37.1532 119.832 39.0925 129.091 42.6286C137.927 46.0255 145.836 50.7473 152.601 56.6686C159.367 62.5899 164.652 69.4096 168.299 76.9394C172.076 84.7334 173.937 92.9604 173.802 101.371C173.676 109.782 171.539 118.041 167.57 125.461C163.697 132.77 158.216 139.276 151.276 144.797C144.337 150.318 136.292 154.57 127.363 157.447C118.82 160.177 109.901 161.556 100.931 161.534ZM97.4618 37.2637C88.5382 37.2413 79.6659 38.6132 71.1671 41.3296C62.2873 44.1896 54.2878 48.42 47.3921 53.9061C40.4964 59.3922 35.0514 65.8503 31.2068 73.1096C27.2676 80.4719 25.1472 88.6673 25.0223 97.0133C24.8965 105.364 26.7354 113.521 30.4847 121.261C34.1082 128.741 39.3558 135.516 46.0802 141.396C52.8046 147.276 60.6739 151.98 69.4605 155.358C78.6701 158.88 88.4122 160.813 98.2707 161.075C99.1532 161.104 100.047 161.117 100.927 161.117C109.852 161.142 118.726 159.772 127.226 157.057C136.117 154.197 144.105 149.967 151.001 144.481C157.897 138.995 163.342 132.537 167.186 125.279C171.125 117.916 173.246 109.72 173.371 101.374C173.497 93.0232 171.658 84.8655 167.909 77.1256C164.285 69.6456 159.037 62.8713 152.313 56.9912C145.589 51.111 137.719 46.4065 128.933 43.0291C119.723 39.5085 109.981 37.5765 100.123 37.3157C99.24 37.2854 98.3466 37.2702 97.4618 37.2702V37.2637Z" fill="currentColor"/>
<path d="M101.213 159.437C100.214 159.437 99.199 159.422 98.1971 159.391C88.0397 159.114 77.9923 157.214 68.4372 153.762C59.3557 150.457 51.2283 145.871 44.2762 140.123C37.3242 134.375 31.8943 127.783 28.1494 120.493C24.2679 112.946 22.3683 104.996 22.5114 96.8642C22.6545 88.7325 24.8057 80.9039 28.9322 73.6013C32.9157 66.5478 38.5559 60.2779 45.6944 54.965C52.833 49.6522 61.1013 45.5646 70.2826 42.8108C79.0115 40.2225 88.0723 38.9213 97.178 38.9484C98.1755 38.9484 99.1903 38.9657 100.192 38.996C110.35 39.2729 120.397 41.1733 129.952 44.625C139.034 47.931 147.161 52.5186 154.113 58.2645C161.065 64.0104 166.493 70.605 170.24 77.8945C174.121 85.4417 176.021 93.3916 175.878 101.523C175.735 109.655 173.581 117.484 169.455 124.788C165.482 131.827 159.842 138.105 152.704 143.416C145.565 148.727 137.307 152.816 128.115 155.57C119.385 158.161 110.322 159.464 101.213 159.437ZM97.178 39.3489C88.1104 39.3223 79.0876 40.6183 70.3953 43.1961C61.2596 45.9349 53.0303 50.0029 45.9351 55.2855C38.8399 60.5681 33.2388 66.7946 29.2835 73.8048C25.1895 81.0511 23.0449 88.8169 22.9126 96.8837C22.7803 104.95 24.6647 112.84 28.5159 120.328C32.237 127.566 37.6234 134.128 44.543 139.835C51.4625 145.542 59.5465 150.106 68.5825 153.394C78.0949 156.832 88.0977 158.724 98.2102 159C99.2076 159.03 100.218 159.045 101.213 159.045C110.28 159.072 119.302 157.776 127.994 155.198C137.13 152.459 145.359 148.391 152.454 143.109C159.549 137.826 165.15 131.599 169.106 124.596C173.202 117.349 175.344 109.584 175.477 101.517C175.609 93.45 173.725 85.5608 169.873 78.072C166.152 70.8345 160.766 64.2724 153.846 58.5676C146.927 52.8628 138.845 48.2904 129.809 45.0104C120.296 41.573 110.292 39.6806 100.179 39.4052C99.1816 39.3641 98.1711 39.3489 97.178 39.3489Z" fill="currentColor"/>
<path d="M101.535 157.339C100.409 157.339 99.2663 157.322 98.1387 157.287C87.7268 156.995 77.4188 155.135 67.5635 151.769C58.2391 148.554 49.8905 144.104 42.752 138.549C35.6134 132.994 30.0405 126.6 26.1936 119.558C22.2123 112.262 20.2607 104.582 20.4125 96.7344C20.5643 88.8863 22.7783 81.3348 27.022 74.2964C31.1204 67.5026 36.9167 61.4666 44.2526 56.3594C51.5884 51.2522 60.0823 47.3335 69.5151 44.7031C78.4191 42.2506 87.6163 41.0212 96.8529 41.0485C97.9783 41.0485 99.1189 41.0659 100.249 41.1005C110.661 41.3921 120.969 43.2526 130.824 46.6191C140.148 49.8341 148.497 54.2832 155.635 59.8385C162.774 65.3939 168.347 71.7893 172.194 78.8299C176.173 86.1259 178.125 93.8051 177.973 101.653C177.821 109.501 175.607 117.053 171.363 124.091C167.265 130.885 161.469 136.921 154.133 142.028C146.797 147.135 138.303 151.056 128.87 153.685C119.967 156.137 110.77 157.367 101.535 157.339ZM96.8529 41.4253C87.6529 41.3971 78.4921 42.6215 69.6235 45.0646C60.2341 47.6821 51.7749 51.5856 44.4694 56.6647C37.1639 61.7437 31.4283 67.7429 27.3581 74.4869C23.1491 81.469 20.9416 88.9599 20.8007 96.7409C20.6597 104.522 22.5918 112.143 26.5493 119.382C30.3701 126.378 35.9083 132.727 43.0079 138.255C50.1074 143.782 58.4213 148.214 67.7066 151.416C77.5202 154.766 87.7843 156.619 98.1518 156.91C99.275 156.945 100.413 156.962 101.535 156.962C110.734 156.991 119.894 155.766 128.762 153.323C138.151 150.706 146.61 146.802 153.916 141.723C161.221 136.644 166.966 130.651 171.036 123.901C175.245 116.919 177.452 109.432 177.593 101.647C177.734 93.8614 175.793 86.245 171.836 79.0009C168.015 72.0058 162.477 65.6559 155.377 60.1286C148.278 54.6014 139.964 50.1697 130.679 46.9676C120.864 43.6168 110.6 41.7643 100.231 41.4729C99.1124 41.4426 97.9739 41.4253 96.8529 41.4253Z" fill="currentColor"/>
<path d="M101.901 155.243C100.636 155.243 99.3526 155.224 98.0841 155.182C87.4229 154.872 76.8602 153.049 66.713 149.77C57.1414 146.644 48.5738 142.333 41.2509 136.957C33.928 131.582 28.2076 125.414 24.261 118.62C20.1757 111.575 18.1785 104.169 18.3281 96.6019C18.4778 89.0353 20.7677 81.7631 25.1284 74.991C29.3374 68.4548 35.292 62.6505 42.8252 57.7533C50.3584 52.856 59.0887 49.0933 68.7643 46.5927C77.8252 44.2774 87.1438 43.12 96.4967 43.1482C97.7588 43.1482 99.0425 43.1677 100.309 43.2088C110.971 43.5184 121.534 45.3408 131.682 48.6213C141.252 51.7454 149.819 56.0559 157.142 61.4316C164.465 66.8073 170.187 72.984 174.132 79.7821C178.217 86.827 180.204 94.2334 180.065 101.8C179.926 109.367 177.627 116.639 173.265 123.411C169.056 129.947 163.101 135.752 155.568 140.649C148.035 145.546 139.304 149.309 129.631 151.809C120.57 154.121 111.252 155.275 101.901 155.243ZM96.4967 43.4946C87.1754 43.4663 77.8881 44.6194 68.8576 46.9261C59.2144 49.4289 50.5232 53.1678 43.0334 58.0434C35.5435 62.9189 29.6258 68.68 25.4428 75.175C21.1059 81.8865 18.8486 89.1024 18.6989 96.6084C18.5493 104.114 20.5313 111.458 24.5863 118.447C28.5047 125.202 34.1882 131.339 41.4764 136.687C48.7646 142.034 57.3062 146.332 66.8344 149.445C76.9485 152.711 87.4761 154.524 98.1014 154.832C99.3656 154.873 100.645 154.892 101.905 154.892C111.225 154.92 120.511 153.767 129.54 151.461C139.183 148.965 147.874 145.226 155.368 140.348C162.862 135.47 168.776 129.711 172.957 123.216C177.294 116.505 179.553 109.289 179.703 101.783C179.852 94.2767 177.87 86.9331 173.815 79.9445C169.895 73.1897 164.213 67.0519 156.925 61.7044C149.637 56.3568 141.095 52.0593 131.567 48.9461C121.453 45.6801 110.924 43.8664 100.298 43.5596C99.0338 43.5184 97.7544 43.4946 96.4967 43.4946Z" fill="currentColor"/>
<path d="M102.305 153.15C100.889 153.15 99.4489 153.126 98.0264 153.078C87.1121 152.756 76.2901 150.976 65.8486 147.787C56.032 144.756 47.2476 140.578 39.736 135.384C32.2245 130.19 26.361 124.228 22.319 117.674C18.1295 110.883 16.0846 103.745 16.2473 96.4573C16.4099 89.17 18.7562 82.1792 23.234 75.6734C27.5558 69.3949 33.6665 63.8287 41.3971 59.135C49.1276 54.4413 58.0725 50.856 68.0062 48.4745C77.2082 46.2973 86.6353 45.2116 96.0921 45.24C97.5081 45.24 98.948 45.2617 100.368 45.3093C111.56 45.6795 122.387 47.4592 132.546 50.6006C142.363 53.6316 151.147 57.81 158.659 63.0038C166.17 68.1977 172.034 74.1601 176.076 80.7135C180.265 87.5051 182.31 94.6431 182.147 101.93C181.985 109.218 179.638 116.219 175.161 122.714C170.839 128.993 164.726 134.559 156.998 139.253C149.269 143.947 140.318 147.534 130.384 149.92C121.184 152.094 111.759 153.178 102.305 153.15ZM96.0921 45.5735C86.6637 45.5454 77.265 46.6281 68.0908 48.7993C58.1918 51.1808 49.2707 54.7487 41.577 59.4229C33.8833 64.0972 27.8117 69.6244 23.5181 75.8639C19.0749 82.3156 16.7438 89.2479 16.579 96.4682C16.4142 103.688 18.4504 110.757 22.6052 117.503C26.6255 124.018 32.4522 129.941 39.929 135.111C47.4059 140.281 56.1621 144.442 65.9505 147.469C76.3647 150.649 87.1582 152.423 98.0437 152.745C99.4597 152.791 100.895 152.814 102.309 152.814C111.737 152.842 121.136 151.76 130.31 149.591C140.207 147.209 149.128 143.639 156.822 138.967C164.516 134.295 170.583 128.763 174.877 122.517C179.32 116.066 181.651 109.131 181.816 101.913C181.98 94.695 179.944 87.6242 175.789 80.878C171.769 74.3657 165.943 68.4401 158.466 63.2701C150.989 58.1001 142.233 53.939 132.444 50.9145C122.313 47.7796 111.519 46.0065 100.351 45.6362C98.9393 45.5973 97.5038 45.5735 96.0921 45.5735Z" fill="currentColor"/>
<path d="M102.749 151.056C101.164 151.056 99.5527 151.028 97.961 150.974C86.4877 150.586 75.3917 148.843 64.9766 145.795C54.915 142.849 45.9115 138.813 38.2157 133.801C30.5198 128.789 24.5088 123.041 20.3671 116.732C16.0735 110.19 13.981 103.324 14.1479 96.3206C14.3149 89.3169 16.7284 82.6054 21.3234 76.3637C25.7579 70.3428 32.0269 65.0126 39.9548 60.5246C47.8826 56.0366 57.0574 52.618 67.2426 50.3491C76.5675 48.3083 86.088 47.292 95.6343 47.3181C97.2173 47.3181 98.8284 47.3441 100.42 47.3982C111.893 47.7858 122.992 49.5286 133.405 52.5769C143.466 55.5234 152.47 59.559 160.165 64.571C167.861 69.5829 173.872 75.331 178.014 81.6398C182.308 88.1824 184.4 95.0476 184.233 102.047C184.066 109.046 181.653 115.762 177.056 122.004C172.623 128.025 166.354 133.355 158.426 137.843C150.498 142.331 141.324 145.752 131.138 148.019C121.814 150.06 112.295 151.079 102.749 151.056ZM95.6343 47.6472C86.1123 47.6201 76.6159 48.6321 67.3142 50.6652C57.1615 52.919 48.0149 56.3288 40.1174 60.7995C32.2199 65.2703 25.9964 70.5572 21.5879 76.5499C17.0341 82.7396 14.6358 89.3948 14.471 96.3314C14.3062 103.268 16.3836 110.075 20.6403 116.563C24.7604 122.842 30.7323 128.549 38.3956 133.541C46.059 138.534 55.0407 142.558 65.0677 145.496C75.4568 148.527 86.5354 150.274 97.9719 150.66C99.5592 150.714 101.166 150.742 102.742 150.742C112.264 150.766 121.76 149.75 131.06 147.711C141.213 145.457 150.36 142.047 158.257 137.577C166.155 133.106 172.378 127.81 176.787 121.826C181.34 115.637 183.739 108.982 183.904 102.045C184.068 95.1082 181.997 88.3101 177.741 81.8152C173.621 75.5367 167.649 69.8297 159.985 64.8373C152.322 59.8448 143.34 55.8201 133.313 52.8843C122.927 49.8533 111.846 48.104 100.411 47.7186C98.8219 47.6732 97.2151 47.6472 95.6343 47.6472Z" fill="currentColor"/>
<path d="M103.261 148.962C101.49 148.962 99.6897 148.932 97.9094 148.869C86.1542 148.464 74.7849 146.758 64.1161 143.803C53.8094 140.948 44.587 137.048 36.7046 132.218C28.8223 127.388 22.6682 121.854 18.4267 115.788C14.0312 109.51 11.891 102.906 12.0644 96.1885C12.2379 89.4705 14.7165 83.0339 19.4372 77.0586C23.991 71.2953 30.4074 66.2033 38.5327 61.9187C46.6579 57.6342 56.0581 54.3846 66.5058 52.2455C75.934 50.3453 85.5306 49.4024 95.1489 49.4311C96.9206 49.4311 98.7204 49.4635 100.501 49.5242C112.254 49.929 123.623 51.635 134.292 54.5902C144.598 57.4459 153.821 61.345 161.703 66.1773C169.586 71.0096 175.74 76.539 179.981 82.6053C184.377 88.8838 186.517 95.487 186.343 102.205C186.17 108.923 183.691 115.359 178.971 121.335C174.417 127.098 168 132.19 159.875 136.475C151.75 140.759 142.348 144.002 131.902 146.144C122.475 148.044 112.879 148.989 103.261 148.962ZM95.1316 49.7168C85.5341 49.6902 75.9586 50.6331 66.5513 52.5313C56.1427 54.6639 46.7641 57.9092 38.6693 62.1764C30.5744 66.4436 24.1905 71.5075 19.6714 77.2361C14.9962 83.1617 12.5393 89.5398 12.368 96.195C12.1967 102.85 14.3196 109.388 18.6782 115.624C22.8937 121.657 29.0131 127.157 36.8673 131.969C44.7214 136.782 53.92 140.673 64.2007 143.522C74.8457 146.47 86.191 148.172 97.9202 148.577C99.6962 148.64 101.494 148.67 103.261 148.67C112.858 148.696 122.433 147.753 131.839 145.856C142.248 143.721 151.626 140.476 159.719 136.208C167.812 131.941 174.2 126.877 178.719 121.149C183.394 115.223 185.851 108.845 186.023 102.19C186.194 95.5346 184.071 88.9985 179.712 82.7612C175.497 76.7273 169.377 71.2282 161.525 66.4154C153.673 61.6027 144.471 57.7122 134.192 54.863C123.547 51.9165 112.206 50.2061 100.473 49.8099C98.6965 49.7493 96.8989 49.7168 95.1316 49.7168Z" fill="currentColor"/>
<path d="M103.836 146.871C101.856 146.871 99.846 146.836 97.8575 146.765C85.8226 146.332 74.1801 144.674 63.2576 141.811C52.7059 139.045 43.2558 135.29 35.1956 130.634C27.1354 125.977 20.8274 120.675 16.4905 114.844C11.9909 108.808 9.80296 102.486 9.98511 96.0521C10.1673 89.6177 12.7087 83.4604 17.5379 77.7513C22.1957 72.2458 28.777 67.3875 37.0995 63.3108C45.4221 59.2341 55.05 56.149 65.7383 54.1291C75.2496 52.3651 84.9049 51.4903 94.5788 51.5159C96.5543 51.5159 98.5666 51.5527 100.555 51.622C112.59 52.055 124.23 53.7134 135.153 56.5755C145.705 59.3424 155.146 63.103 163.215 67.7534C171.284 72.4038 177.583 77.7124 181.92 83.5405C186.42 89.5787 188.608 95.9005 188.425 102.335C188.243 108.769 185.702 114.926 180.873 120.636C176.215 126.141 169.633 130.999 161.311 135.076C152.988 139.153 143.363 142.24 132.674 144.258C123.164 146.022 113.509 146.896 103.836 146.871ZM94.5723 51.7887C84.918 51.7633 75.2823 52.6367 65.7904 54.3975C55.1281 56.411 45.5175 59.4918 37.2253 63.5533C28.9331 67.6148 22.3887 72.4471 17.7547 77.918C12.9646 83.5773 10.4448 89.6805 10.2648 96.0521C10.0849 102.424 12.2555 108.693 16.7182 114.671C21.0334 120.462 27.2981 125.749 35.3387 130.385C43.3794 135.02 52.8035 138.774 63.3313 141.534C74.2344 144.392 85.853 146.055 97.8684 146.479C99.8525 146.548 101.861 146.583 103.836 146.583C113.489 146.608 123.123 145.735 132.614 143.974C143.276 141.961 152.887 138.88 161.179 134.818C169.471 130.757 176.015 125.925 180.649 120.449C185.439 114.788 187.959 108.685 188.139 102.313C188.319 95.9416 186.148 89.6718 181.688 83.6943C177.371 77.9029 171.106 72.616 163.065 67.9807C155.025 63.3455 145.607 59.5979 135.073 56.8375C124.172 53.9797 112.553 52.317 100.538 51.8926C98.5514 51.8234 96.5456 51.7887 94.5723 51.7887Z" fill="currentColor"/>
<path d="M104.468 144.782C102.261 144.782 100.016 144.741 97.796 144.661C85.4791 144.228 73.5656 142.591 62.3894 139.82C51.5904 137.144 41.93 133.52 33.6768 129.049C25.4236 124.578 18.979 119.48 14.5423 113.894C9.94085 108.109 7.70517 102.058 7.89383 95.9074C8.08248 89.7567 10.689 83.8766 15.6352 78.4359C20.4058 73.188 27.1432 68.5657 35.6631 64.6947C44.183 60.8237 54.0365 57.9031 64.9763 56.0087C74.5417 54.3833 84.2289 53.5793 93.9318 53.6056C96.1393 53.6056 98.3836 53.6467 100.602 53.7268C112.921 54.1598 124.834 55.7987 136.009 58.5678C146.807 61.2437 156.468 64.8679 164.721 69.3386C172.974 73.8093 179.419 78.9079 183.856 84.4936C188.457 90.2785 190.695 96.3296 190.504 102.48C190.313 108.631 187.709 114.511 182.763 119.952C177.992 125.2 171.255 129.824 162.737 133.693C154.219 137.562 144.361 140.487 133.424 142.373C123.859 144 114.171 144.806 104.468 144.782ZM93.9318 53.8524C84.2437 53.8315 74.5716 54.6399 65.0219 56.2685C54.1037 58.1608 44.2632 61.0748 35.7715 64.9285C27.2798 68.7822 20.5771 73.3872 15.8217 78.607C10.9232 84.0065 8.34053 89.826 8.15187 95.9226C7.96322 102.019 10.1837 108.012 14.7462 113.749C19.1611 119.3 25.5733 124.375 33.8026 128.831C42.0319 133.286 51.6772 136.906 62.4523 139.578C73.6133 142.342 85.5073 143.97 97.7981 144.412C100.014 144.49 102.256 144.531 104.46 144.531C114.147 144.555 123.819 143.749 133.37 142.124C144.286 140.234 154.126 137.317 162.618 133.464C171.109 129.61 177.812 125.005 182.568 119.785C187.475 114.388 190.057 108.562 190.246 102.465C190.435 96.3686 188.214 90.3759 183.652 84.63C179.237 79.0876 172.825 74.0215 164.595 69.5573C156.366 65.0931 146.721 61.4819 135.946 58.8124C124.787 56.052 112.893 54.4196 100.593 53.9758C98.3771 53.8979 96.1349 53.8567 93.9318 53.8567V53.8524Z" fill="currentColor"/>
<path d="M105.177 142.695C102.716 142.695 100.211 142.647 97.7329 142.558C85.132 142.097 72.9474 140.506 61.5196 137.828C50.4778 135.23 40.5983 131.755 32.1565 127.464C23.7147 123.173 17.1291 118.291 12.5949 112.958C7.88714 107.425 5.60158 101.644 5.80108 95.7792C6.00058 89.9142 8.66561 84.3047 13.729 79.1369C18.6123 74.1466 25.5059 69.7603 34.2209 66.095C42.9359 62.4296 53.0193 59.6758 64.2085 57.9026C73.8028 56.4106 83.4995 55.6722 93.2095 55.6943C95.6707 55.6943 98.1753 55.7398 100.654 55.8307C113.253 56.2897 125.437 57.8831 136.867 60.5591C147.909 63.1462 157.788 66.634 166.23 70.9229C174.672 75.2118 181.258 80.096 185.792 85.4284C190.497 90.9621 192.783 96.7535 192.583 102.599C192.384 108.444 189.719 114.073 184.656 119.241C179.772 124.232 172.879 128.618 164.164 132.285C155.449 135.953 145.365 138.711 134.176 140.486C124.583 141.979 114.886 142.718 105.177 142.695ZM93.2095 55.9238C83.5126 55.902 73.8289 56.6396 64.2476 58.1299C53.0757 59.8987 42.9967 62.6505 34.3228 66.305C25.649 69.9595 18.7685 74.3284 13.9089 79.2949C8.88463 84.4281 6.23911 89.977 6.04395 95.7857C5.84878 101.594 8.11699 107.323 12.7727 112.811C17.2874 118.122 23.8448 122.987 32.2628 127.26C40.6807 131.534 50.5472 135.022 61.5717 137.605C72.9886 140.279 85.1558 141.868 97.7416 142.327C100.216 142.418 102.718 142.463 105.177 142.463C114.873 142.489 124.556 141.756 134.137 140.27C145.309 138.499 155.388 135.747 164.062 132.093C172.736 128.438 179.614 124.069 184.473 119.103C189.498 113.969 192.143 108.421 192.338 102.612C192.534 96.8032 190.268 91.0747 185.603 85.5864C181.088 80.2757 174.531 75.4109 166.113 71.1372C157.695 66.8635 147.829 63.3757 136.804 60.7951C125.398 58.1083 113.229 56.5192 100.645 56.0516C98.1688 55.9693 95.6685 55.9238 93.2095 55.9238Z" fill="currentColor"/>
<path d="M105.983 140.608C103.235 140.608 100.44 140.556 97.6731 140.454C84.7903 139.974 72.3347 138.422 60.6489 135.837C49.3599 133.338 39.2614 129.991 30.6352 125.878C22.0091 121.764 15.2717 117.105 10.6442 112.013C5.83891 106.735 3.50565 101.227 3.70515 95.6412C3.90465 90.0555 6.64124 84.7383 11.8217 79.8367C16.8091 75.1062 23.8653 70.9603 32.7777 67.4963C41.69 64.0323 52.0011 61.4494 63.4419 59.7975C73.0347 58.4377 82.7126 57.7648 92.4016 57.7841C95.1469 57.7841 97.9442 57.8361 100.711 57.94C113.592 58.4184 126.05 59.9729 137.735 62.5557C149.011 65.0542 159.121 68.4012 167.747 72.5147C176.373 76.6282 183.106 81.2916 187.74 86.3815C192.543 91.6598 194.876 97.1697 194.679 102.753C194.482 108.337 191.743 113.656 186.563 118.558C181.575 123.288 174.517 127.434 165.607 130.898C156.696 134.362 146.385 136.945 134.942 138.597C125.35 139.956 115.672 140.628 105.983 140.608ZM92.4016 57.9876C82.7257 57.9672 73.0607 58.6386 63.4809 59.9967C52.0553 61.6443 41.7551 64.2315 32.8644 67.6825C23.9737 71.1335 16.9523 75.2599 11.98 79.9796C6.83857 84.8465 4.13017 90.1226 3.92633 95.6499C3.7225 101.177 6.03841 106.637 10.8047 111.874C15.4192 116.945 22.1219 121.593 30.7285 125.693C39.3351 129.794 49.4249 133.139 60.6966 135.631C72.3694 138.214 84.8142 139.766 97.6731 140.244C100.436 140.348 103.229 140.4 105.974 140.4C115.65 140.42 125.315 139.75 134.895 138.393C146.318 136.744 156.621 134.156 165.509 130.708C174.398 127.259 181.421 123.119 186.393 118.408C191.533 113.539 194.243 108.265 194.447 102.738C194.651 97.2108 192.335 91.7507 187.569 86.5136C182.954 81.4432 176.252 76.7949 167.645 72.6966C159.038 68.5982 148.951 65.249 137.677 62.7571C126.015 60.1656 113.57 58.6219 100.709 58.1435C97.9377 58.0417 95.1447 57.9876 92.4016 57.9876Z" fill="currentColor"/>
<path d="M106.899 138.525C103.832 138.525 100.71 138.467 97.6175 138.35C84.4528 137.852 71.7239 136.336 59.7844 133.842C48.2504 131.437 37.9329 128.213 29.1202 124.295C20.3076 120.376 13.4314 115.914 8.69987 111.067C3.79265 106.042 1.41385 100.805 1.62636 95.5046C1.83887 90.2047 4.63401 85.1668 9.93155 80.5164C15.0361 76.0435 22.2441 72.1248 31.3516 68.8708C40.4591 65.6169 50.9978 63.1964 62.6901 61.6809C72.2421 60.4562 81.8634 59.8509 91.4938 59.8688C94.5578 59.8688 97.6804 59.9272 100.77 60.0442C113.935 60.5421 126.664 62.0598 138.604 64.5517C150.138 66.9592 160.455 70.1807 169.268 74.0993C178.08 78.0179 184.957 82.4649 189.688 87.3188C194.595 92.3459 196.974 97.583 196.762 102.881C196.549 108.178 193.754 113.221 188.456 117.863C183.352 122.335 176.144 126.254 167.036 129.508C157.929 132.762 147.39 135.182 135.698 136.713C126.147 137.939 116.527 138.544 106.899 138.525ZM91.5025 60.0507C81.8808 60.0328 72.268 60.6381 62.7248 61.8628C51.0477 63.3891 40.5155 65.8095 31.4275 69.057C22.3395 72.3045 15.164 76.2015 10.0703 80.6636C4.80532 85.2793 2.03186 90.2588 1.83019 95.5133C1.62852 100.768 3.97913 105.951 8.84949 110.939C13.5637 115.767 20.4139 120.203 29.2091 124.124C38.0044 128.044 48.3133 131.255 59.8343 133.66C71.7608 136.15 84.481 137.664 97.6349 138.162C100.723 138.278 103.843 138.337 106.907 138.337C116.527 138.355 126.139 137.751 135.68 136.527C147.36 134.998 157.89 132.578 166.978 129.33C176.066 126.083 183.241 122.186 188.335 117.724C193.591 113.117 196.358 108.122 196.575 102.874C196.792 97.6263 194.424 92.4368 189.556 87.4487C184.842 82.6207 177.991 78.1847 169.196 74.2638C160.401 70.343 150.092 67.1324 138.571 64.7379C126.644 62.2481 113.926 60.7326 100.773 60.2347C97.6761 60.1091 94.5556 60.0507 91.4938 60.0507H91.5025Z" fill="currentColor"/>
<path d="M85.9241 108.386C85.9241 109.047 85.9241 109.709 85.8732 110.37C85.6697 114.186 83.9399 116.119 82.5153 116.933C80.6838 118.002 78.8013 118.053 76.8171 118.053H66.1838V82.1334H78.3434C79.3101 82.1334 81.3452 82.2861 83.2785 83.9141C85.7206 86.0001 85.9241 88.6457 85.9241 91.5966V108.386ZM79.3101 108.946V91.0369C79.3101 89.9176 79.361 88.7983 78.3943 87.9843C77.5294 87.272 76.4101 87.3738 75.3925 87.3738H72.7978V112.812H75.1382C75.7487 112.812 76.4101 112.812 77.0206 112.711C79.1575 112.304 79.3101 110.726 79.3101 108.946ZM110.117 110.37C110.117 112.66 109.761 114.746 108.031 116.425C105.894 118.409 102.994 118.816 100.247 118.816C97.6012 118.816 94.9047 118.46 92.7679 116.73C91.6995 115.865 91.1907 115 90.9872 114.491C90.3767 113.219 90.224 111.693 90.224 110.37V90.2229C90.224 89.4597 90.0714 85.8475 92.4626 83.7106C93.7854 82.5405 96.2784 81.3703 100.298 81.3703C105.487 81.3703 108.235 83.5071 109.303 85.5931C109.863 86.7633 110.117 87.8826 110.117 90.3755V110.37ZM103.452 109.404V90.8334C103.452 90.6299 103.605 89.0019 103.045 87.9334C102.74 87.272 101.977 86.3562 100.298 86.3562C99.9416 86.3562 98.9749 86.4071 98.1609 87.0176C96.6854 88.0352 96.8889 89.6124 96.8889 91.0878V109.251C96.8889 110.319 96.8381 111.642 97.4995 112.558C98.2626 113.626 99.8907 113.626 100.196 113.626C100.501 113.626 101.468 113.576 102.282 113.016C103.503 112.151 103.452 110.726 103.452 109.404ZM134.513 110.37C134.513 110.93 134.463 111.49 134.463 111.998C134.412 112.863 134.208 116.018 131.308 117.34C129.731 118.053 127.899 118.053 126.22 118.053H114.875V82.1334H126.017C128.154 82.1334 130.189 82.0826 131.97 83.5071C134.005 85.0843 134.106 87.1703 134.106 89.4597V92.665C134.106 92.7668 134.106 94.2422 133.903 95.2089C133.241 98.2106 131.003 98.5159 129.934 98.7194C132.02 99.1264 132.834 99.6352 133.496 100.449C134.615 101.925 134.513 103.604 134.513 105.283V110.37ZM127.543 93.0212V90.579C127.543 89.7141 127.492 89.4597 127.391 89.0019C126.933 87.3229 125.508 87.272 124.134 87.272H121.489V96.3282H123.88C124.796 96.3282 125.254 96.2773 125.661 96.2264C126.933 95.972 127.543 95.2089 127.543 93.0212ZM128.001 109.251V105.028C128.001 103.96 128.001 103.553 127.798 103.044C127.289 101.569 125.661 101.518 124.338 101.518H121.489V112.863H124.287C124.847 112.863 125.457 112.863 125.966 112.762C127.391 112.558 128.001 111.693 128.001 109.251Z" fill="currentColor"/>
</svg>
