<svg width="24" height="24" viewBox="0 0 24 24" fill="none" xmlns="http://www.w3.org/2000/svg">
    <path d="M19.8875 4.79624e-07C20.4519 -0.000397317 20.9888 0.246669 21.36 0.677538C22.0693 1.50092 21.9856 2.75109 21.1731 3.46987L14.2447 9.60258C14.1978 9.64427 14.171 9.70435 14.1709 9.7675V22.0198C14.1711 22.3805 14.074 22.7344 13.89 23.0432C13.3328 23.979 12.1325 24.2798 11.209 23.7151L7.64608 21.5382C7.06021 21.1798 6.70218 20.5366 6.70218 19.8428V9.72022C6.70193 9.662 6.67891 9.60625 6.63816 9.5652L0.567889 3.3742C0.204046 3.0033 0 2.50152 0 1.97854C0.000254989 0.885563 0.874803 -0.000258274 1.95336 4.79624e-07H19.8875ZM19.8875 1.75803H1.95337C1.89598 1.75803 1.84092 1.78097 1.80022 1.82197C1.71523 1.90759 1.71482 2.04681 1.79931 2.13294L1.79823 2.13407L7.87033 8.32583C8.23397 8.69661 8.43808 9.19813 8.43808 9.72089V19.8451C8.43764 19.9223 8.47717 19.994 8.54224 20.0342L12.1052 22.2111C12.1395 22.2323 12.179 22.2434 12.2193 22.2431C12.3391 22.2424 12.4357 22.1434 12.435 22.022V9.76861C12.4349 9.19719 12.6786 8.65363 13.1033 8.27776L20.0307 2.14284C20.0773 2.10117 20.1041 2.04123 20.1041 1.97823C20.1041 1.85679 20.0073 1.75803 19.8875 1.75803ZM20.8151 18.6906C21.2944 18.6906 21.683 19.0844 21.683 19.5701C21.683 20.0559 21.2944 20.4497 20.8151 20.4497H16.4753C15.996 20.4497 15.6074 20.0559 15.6074 19.5701C15.6074 19.0844 15.996 18.6906 16.4753 18.6906H20.8151ZM21.0039 15.3922C21.4832 15.3922 21.8718 15.786 21.8718 16.2718C21.8718 16.7576 21.4832 17.1514 21.0039 17.1514H16.6641C16.1847 17.1514 15.7961 16.7576 15.7961 16.2718C15.7961 15.786 16.1847 15.3922 16.6641 15.3922H21.0039ZM21.0451 12.0939C21.5245 12.0939 21.913 12.4877 21.913 12.9735C21.913 13.4592 21.5245 13.853 21.0451 13.853H16.7053C16.226 13.853 15.8374 13.4592 15.8374 12.9735C15.8374 12.4877 16.226 12.0939 16.7053 12.0939H21.0451Z" fill="#9A9A9A"/>
</svg>