<?xml version="1.0" encoding="UTF-8"?>
<svg width="200px" height="200px" viewBox="0 0 200 200" version="1.1" xmlns="http://www.w3.org/2000/svg" xmlns:xlink="http://www.w3.org/1999/xlink">
    <!-- Generator: Sketch 52.5 (67469) - http://www.bohemiancoding.com/sketch -->
    <title>reddit</title>
    <desc>Created with Sketch.</desc>
    <g id="Page-1" stroke="none" stroke-width="1" fill="none" fill-rule="evenodd">
        <g id="reddit">
            <path d="M99.9040107,199.802079 C155.077488,199.802079 199.80505,155.077489 199.80505,99.9010397 C199.80505,44.730533 155.077489,0 99.9040107,0 C44.728019,0 0,44.730533 0,99.9010397 C0,155.077489 44.7282475,199.802079 99.9040107,199.802079" id="Path" fill="#A1A1A1" class="app-icon"></path>
            <path d="M119.568,123 C114.91,123 111,118.553316 111,113.073359 C111,107.593402 114.91,103 119.568,103 C124.226,103 128,107.593402 128,113.073359 C128,118.553316 124.226,122.999844 119.568,122.999844 M120.936488,142.168299 C116.296275,146.763952 109.14917,149 99.0694545,149 L98.9256607,149 C88.8517396,149 81.7046354,146.763952 77.0700818,142.168299 C76.3927469,141.541098 76,140.603491 76,139.613686 C76,138.623881 76.3927469,137.686274 77.0700818,137.059073 C78.5589442,135.649555 80.727474,135.649555 82.2163364,137.059073 C85.4133563,140.231163 90.8815635,141.778282 98.9257954,141.778282 L99.0694545,141.778282 C107.119347,141.778282 112.587688,140.231163 115.790368,137.059073 C117.27835,135.646976 119.448507,135.646976 120.936488,137.059073 C121.610061,137.688865 122,138.625519 122,139.613686 C122,140.601853 121.610061,141.538507 120.936488,142.168299 M71.0001328,113.066641 C71.0001328,107.600036 74.9101328,103 79.5624219,103 C84.2204219,103 88,107.600036 88,113.07336 C87.99685,118.554156 84.2210622,122.996294 79.5624219,123 C74.91,123 71,118.553403 71,113.07336 M145.623367,44 C148.631037,44.1561168 151,47.0200387 151,50.5 C151,53.9799613 148.631037,56.8438832 145.623367,57 C142.524887,57 140,54.0815736 140,50.5 C140,46.9185788 142.524887,44.0001523 145.623367,44.0001523 M167.99968,98.5148812 C167.99968,87.6390521 160.613203,78.8005734 151.536975,78.8005734 C147.603853,78.8005734 143.996239,80.4565753 141.159115,83.2230471 C131.123888,75.6659985 118.382918,71.1119934 104.722953,70.1459924 L111.846936,43.1701966 L131.426519,48.6902028 C131.940267,57.2331208 137.899753,63.9885056 145.154984,63.9885056 C152.747094,63.9885056 158.923451,56.5890174 158.923451,47.4942528 C158.923451,38.3994882 152.747094,31 145.154984,31 C139.846246,31 135.22826,34.6143411 132.933381,39.9043983 L110.174443,33.4972483 C108.240161,32.9835327 106.296092,34.3078156 105.756203,36.5069146 L96.9082183,69.9950547 C82.1922585,70.4221467 68.3609099,74.9892433 57.5836909,82.9932522 C54.7305955,80.2902341 51.1521078,78.8087011 47.4570866,78.8007275 C38.3866107,78.7941047 31,87.6458288 31,98.5148812 C31,105.23746 33.8256184,111.184558 38.1296025,114.746225 C37.9480828,116.314726 37.8565959,117.895299 37.8557369,119.477659 C37.8557369,133.06744 44.4488465,145.717403 56.4305657,155.07523 C67.9100418,164.058332 83.1112534,169 99.2202216,169 C115.32919,169 130.530268,164.058332 142.015363,155.07523 C153.991463,145.717403 160.590325,133.06744 160.590325,119.477659 C160.590325,118.025423 160.504701,116.586279 160.361948,115.153757 C165.167643,111.429868 168.034844,105.183644 167.99968,98.5148812" id="Shape" fill="#FFFFFF" fill-rule="nonzero"></path>
        </g>
    </g>
</svg>