<?xml version="1.0" encoding="UTF-8"?>
<svg width="200px" height="200px" viewBox="0 0 200 200" version="1.1" xmlns="http://www.w3.org/2000/svg" xmlns:xlink="http://www.w3.org/1999/xlink">
    <!-- Generator: Sketch 52.5 (67469) - http://www.bohemiancoding.com/sketch -->
    <title>telegram</title>
    <desc>Created with Sketch.</desc>
    <g id="Page-1" stroke="none" stroke-width="1" fill="none" fill-rule="evenodd">
        <g id="telegram">
            <path d="M199.80505,99.9010397 C199.80505,44.730533 155.077489,0 99.9040107,0 C44.728019,0 0,44.730533 0,99.9010397 C0,155.077489 44.7282475,199.802079 99.9040107,199.802079 C155.077488,199.802079 199.80505,155.077489 199.80505,99.9010397 Z" id="Path" fill="#A1A1A1" class="app-icon"></path>
            <g id="telegram-(1)" transform="translate(32.000000, 50.000000)" fill="#FFFFFF">
                <path d="M45.14115,94.5763288 C41.57115,94.5763288 42.17615,93.2213187 40.94615,89.8312935 L30.43115,55.231036 L111.31615,7.24067892" id="Path"></path>
                <path d="M45.14115,94.5763288 C47.90115,94.5763288 49.11615,93.3163194 50.66615,91.8113083 L65.37115,77.5262019 L47.01615,66.4561196" id="Path"></path>
                <path d="M47.01615,66.4561196 L91.46615,99.296364 C96.5411501,102.096385 100.20615,100.651374 101.46615,94.5863289 L119.56615,9.32069436 C121.42615,1.88563907 116.74615,-1.47438593 111.89615,0.720630324 L5.62614996,41.7059354 C-1.62385008,44.615957 -1.58885004,48.6659872 4.30614996,50.4710006 L31.58115,58.9710639 L94.70115,19.1557675 C97.67615,17.3557541 100.41615,18.3207613 98.17115,20.3157762" id="Path"></path>
            </g>
        </g>
    </g>
</svg>