<?xml version="1.0" encoding="UTF-8"?>
<svg width="200px" height="201px" viewBox="0 0 200 201" version="1.1" xmlns="http://www.w3.org/2000/svg" xmlns:xlink="http://www.w3.org/1999/xlink">
    <!-- Generator: Sketch 52.5 (67469) - http://www.bohemiancoding.com/sketch -->
    <title>youtube</title>
    <desc>Created with Sketch.</desc>
    <g id="Page-1" stroke="none" stroke-width="1" fill="none" fill-rule="evenodd">
        <g id="youtube">
            <path d="M99.9040107,200.200517 C155.077488,200.200517 199.80505,155.475926 199.80505,100.299477 C199.80505,45.1289705 155.077489,0.3984375 99.9040107,0.3984375 C44.728019,0.3984375 0,45.1289705 0,100.299477 C0,155.475926 44.7282475,200.200517 99.9040107,200.200517" id="Path" fill="#A1A1A1" class="app-icon"></path>
            <path d="M91,116 L91,85 L120,100.553091 L91,116 Z M156.84,78.3935847 C156.84,78.3935847 155.704129,70.9500519 152.229,67.6686736 C147.816129,63.3634951 142.871629,63.3455778 140.604871,63.0952597 C124.3745,62 100.024129,62 100.024129,62 L99.9758711,62 C99.9758711,62 75.6255,62 59.3951289,63.0952597 C57.1235,63.3456826 52.1838711,63.3634951 47.7661289,67.6686736 C44.291,70.9500519 43.16,78.3980903 43.16,78.3980903 C43.16,78.3980903 42,87.1335538 42,95.8736277 L42,104.077126 C42,112.821601 43.16,121.566075 43.16,121.566075 C43.16,121.566075 44.291,129.009608 47.7661289,132.291091 C52.1838711,136.59627 57.979,136.457646 60.56,136.909141 C69.84,137.745176 100,138 100,138 C100,138 124.3745,137.96427 140.604871,136.873411 C142.8765,136.618588 147.816129,136.60067 152.229,132.295597 C155.709,129.014114 156.84,121.56618 156.84,121.56618 C156.84,121.56618 158,112.826106 158,104.081631 L158,95.8826387 C158,87.1380593 156.84,78.3935847 156.84,78.3935847 Z" id="Shape" fill="#FFFFFF" fill-rule="nonzero"></path>
        </g>
    </g>
</svg>