<svg width="35" height="35" viewBox="0 0 35 35" fill="none" xmlns="http://www.w3.org/2000/svg">
<path fill-rule="evenodd" clip-rule="evenodd" d="M17.5 35C27.165 35 35 27.165 35 17.5C35 7.83502 27.165 0 17.5 0C7.83502 0 0 7.83502 0 17.5C0 27.165 7.83502 35 17.5 35Z" fill="#A1A1A1" class="app-icon"/>
<path d="M27.9981 11.9288C27.2113 12.2672 26.4244 12.4785 25.638 12.5634C26.5262 12.0305 27.127 11.2776 27.44 10.3048C26.6276 10.7869 25.7606 11.1167 24.8386 11.2944C24.0264 10.4316 23.0284 10 21.8438 10C20.7104 10 19.744 10.3996 18.9443 11.1991C18.145 11.9985 17.7453 12.9649 17.7453 14.0984C17.7453 14.4029 17.7791 14.716 17.8468 15.0375C16.1718 14.9529 14.6005 14.532 13.1327 13.7749C11.6649 13.0177 10.4193 12.0089 9.39573 10.7485C9.02351 11.3828 8.83733 12.0724 8.83733 12.8168C8.83733 13.5189 9.00227 14.1704 9.33236 14.771C9.66222 15.3716 10.1064 15.8579 10.6648 16.2302C10.0048 16.2048 9.38733 16.0313 8.81218 15.7098V15.7606C8.81218 16.7504 9.12307 17.6194 9.74476 18.3683C10.3665 19.1171 11.1512 19.5884 12.0986 19.7831C11.7432 19.876 11.3836 19.9226 11.02 19.9226C10.7831 19.9226 10.525 19.9015 10.2459 19.8595C10.5081 20.6799 10.9904 21.3543 11.6924 21.8832C12.3946 22.412 13.1898 22.6845 14.078 22.7018C12.5892 23.869 10.8932 24.4526 8.98978 24.4526C8.62596 24.4526 8.29613 24.436 8 24.402C9.90342 25.6285 12.0013 26.2417 14.2939 26.2417C15.7489 26.2417 17.1151 26.0115 18.3921 25.5503C19.6697 25.0895 20.7608 24.4718 21.6661 23.6976C22.5711 22.9236 23.3516 22.0332 24.0072 21.0266C24.6627 20.0199 25.1511 18.9689 25.4728 17.8735C25.7941 16.7778 25.9549 15.6804 25.9549 14.5805C25.9549 14.3436 25.9507 14.166 25.9422 14.0476C26.746 13.4641 27.4312 12.7576 27.9981 11.9288Z" fill="#E1E1E1"/>
</svg>
