<?xml version="1.0" encoding="UTF-8"?>
<svg width="200px" height="200px" viewBox="0 0 200 200" version="1.1" xmlns="http://www.w3.org/2000/svg" xmlns:xlink="http://www.w3.org/1999/xlink">
    <!-- Generator: Sketch 52.5 (67469) - http://www.bohemiancoding.com/sketch -->
    <title>footer_twitter</title>
    <desc>Created with Sketch.</desc>
    <g id="Page-1" stroke="none" stroke-width="1" fill="none" fill-rule="evenodd">
        <g id="footer_twitter">
            <path d="M100.06125,199.90104 C155.234728,199.90104 199.96229,155.176449 199.96229,100 C199.96229,44.8294933 155.234728,0.0989602679 100.06125,0.0989602679 C44.8852585,0.0989602679 0.157239509,44.8294933 0.157239509,100 C0.157239509,155.176449 44.8854871,199.90104 100.06125,199.90104" id="Path" fill="#A1A1A1" class="app-icon"></path>
            <path d="M150.180894,73.8292167 C146.501535,75.4610339 142.540835,76.5651388 138.390443,77.0610835 C142.632482,74.5201109 145.887889,70.499304 147.416175,65.7064694 C143.447248,68.0584346 139.05894,69.7652147 134.375121,70.6828263 C130.638169,66.6933304 125.297738,64.2010379 119.389828,64.2010379 C108.058069,64.2010379 98.8654984,73.3958937 98.8654984,84.7306246 C98.8654984,86.3423297 99.0405645,87.9053547 99.3936679,89.4055295 C82.3313502,88.5480254 67.2080154,80.3827685 57.074979,67.9526179 C55.3080913,70.9952484 54.2954047,74.5201109 54.2954047,78.283575 C54.2954047,85.399121 57.9208272,91.6859596 63.4303815,95.3712614 C60.0659583,95.2684158 56.8969417,94.3361772 54.1262808,92.8074342 L54.1262808,93.0599772 C54.1262808,103.012005 61.2018312,111.309362 70.6005498,113.190751 C68.8766286,113.672983 67.0644886,113.91387 65.188356,113.91387 C63.8929169,113.915552 62.6002718,113.793641 61.3279884,113.549797 C63.9377533,121.703169 71.5186185,127.643532 80.5036692,127.801001 C73.4774846,133.310555 64.6231621,136.591788 55.0064107,136.591788 C53.3487679,136.591788 51.7112368,136.500141 50.1075308,136.308162 C59.1938275,142.127396 69.9864473,145.528844 81.5789775,145.528844 C119.348919,145.528844 139.993692,114.249375 139.993692,87.1145859 C139.993692,86.2223431 139.976094,85.3335283 139.93907,84.4584263 C143.959009,81.5538366 147.427481,77.9541742 150.180894,73.8292167" id="Path" fill="#FFFFFF"></path>
        </g>
    </g>
</svg>