<?xml version="1.0" encoding="UTF-8"?>
<svg width="200px" height="200px" viewBox="0 0 200 200" version="1.1" xmlns="http://www.w3.org/2000/svg" xmlns:xlink="http://www.w3.org/1999/xlink">
    <!-- Generator: Sketch 52.5 (67469) - http://www.bohemiancoding.com/sketch -->
    <title>medium</title>
    <desc>Created with Sketch.</desc>
    <g id="Page-1" stroke="none" stroke-width="1" fill="none" fill-rule="evenodd">
        <g id="medium">
            <path d="M99.9040107,199.802079 C155.077488,199.802079 199.80505,155.077489 199.80505,99.9010397 C199.80505,44.730533 155.077489,0 99.9040107,0 C44.728019,0 0,44.730533 0,99.9010397 C0,155.077489 44.7282475,199.802079 99.9040107,199.802079" id="Path" fill="#A1A1A1" class="app-icon"></path>
            <path d="M80.9999999,64.4850895 L80.9999999,151.54672 C80.9999999,152.783742 80.7208262,153.835211 80.162479,154.701127 C79.6041317,155.567042 78.7889446,156 77.7169178,156 C76.9575655,156 76.220547,155.802076 75.5058625,155.406229 L44.3500837,138.112657 C43.4120602,137.617848 42.6192071,136.789043 41.9715243,135.626243 C41.3238414,134.463442 41,133.313011 41,132.17495 L41,47.5626242 C41,46.5730064 41.2233389,45.7318312 41.6700168,45.0390987 C42.1166946,44.3463662 42.7643775,44 43.6130654,44 C44.2384144,44 45.2211056,44.3711067 46.5611391,45.1133201 L80.7989949,64.1139828 C80.9329983,64.2624255 81,64.3861277 81,64.4850895 Z M85,72 L120,136 L85,116.341801 L85,72 Z M159,74 L159,150.913514 C159,152.12973 158.697531,153.114865 158.092593,153.868919 C157.487654,154.622973 156.666667,155 155.62963,155 C154.592593,155 153.57716,154.683784 152.583333,154.051351 L124,137.997297 L159,74 Z M159,64.8713203 C159,65.0193439 153.312038,75.368657 141.936114,95.9192598 C130.56019,116.469863 123.896515,128.496776 121.94509,132 L96,85.0765349 L117.554382,46.0723297 C118.308342,44.6907766 119.461457,44 121.013728,44 C121.634636,44 122.211193,44.1480235 122.7434,44.4440706 L158.733896,64.4272497 C158.911299,64.5259321 159,64.6739556 159,64.8713203 Z" id="Shape" fill="#FFFFFF" fill-rule="nonzero"></path>
        </g>
    </g>
</svg>