<svg width="35" height="35" viewBox="0 0 35 35" fill="none" xmlns="http://www.w3.org/2000/svg">
<path fill-rule="evenodd" clip-rule="evenodd" d="M17.5 35C27.165 35 35 27.165 35 17.5C35 7.83502 27.165 0 17.5 0C7.83502 0 0 7.83502 0 17.5C0 27.165 7.83502 35 17.5 35Z" fill="#A1A1A1" class="app-icon"/>
<path fill-rule="evenodd" clip-rule="evenodd" d="M24.175 16.6867C24.5841 16.2725 25.14 16.0067 25.7716 16.0067C28.1025 16.0083 28.8766 19.1758 26.7741 20.2708C26.8666 20.6091 26.9041 20.9858 26.9041 21.345C26.9041 24.9291 22.925 27.8333 18.0183 27.8333C13.1325 27.8333 9.15332 24.9291 9.15332 21.345C9.15332 20.9858 9.18749 20.6258 9.26332 20.2883C7.11749 19.1975 7.88499 16.0067 10.2283 16.0067C10.86 16.0067 11.4375 16.2725 11.8467 16.7042C13.3558 15.6467 15.3625 14.9675 17.5925 14.8733L18.8741 8.98833C18.9291 8.77833 19.1316 8.62833 19.3383 8.68417L23.4441 9.6075C23.7233 9.06417 24.2833 8.66667 24.9325 8.66667C25.8641 8.66667 26.605 9.44083 26.605 10.365C26.605 11.2892 25.8591 12.0633 24.9316 12.0633C24.0216 12.0633 23.28 11.3092 23.28 10.3858L19.5625 9.53916L18.395 14.8775C20.6425 14.95 22.6708 15.63 24.175 16.6867ZM14.3416 18.8167C13.41 18.8167 12.6683 19.5741 12.6683 20.515C12.6683 21.4391 13.4141 22.1966 14.3416 22.1925C15.2525 22.1925 15.9941 21.4391 15.9941 20.515C15.9941 19.5691 15.2516 18.8167 14.3416 18.8167ZM21.7008 24.5133C20.1666 26.07 15.8375 26.07 14.3025 24.5133C14.1333 24.3633 14.1333 24.0983 14.3025 23.9275C14.45 23.7775 14.7116 23.7775 14.8591 23.9275C16.0308 25.1466 19.9175 25.1675 21.14 23.9275C21.2875 23.7775 21.5491 23.7775 21.6966 23.9275C21.8691 24.0991 21.8691 24.3641 21.7008 24.5133ZM20.015 20.52C20.015 21.4433 20.7566 22.1958 21.6666 22.1958C22.5941 22.1958 23.3358 21.4391 23.34 20.52C23.34 19.5741 22.5941 18.8217 21.6666 18.8217C20.7566 18.8217 20.015 19.5791 20.015 20.52Z" fill="#E1E1E1"/>
</svg>
