<svg width="1440" height="360" viewBox="0 0 1440 360" xmlns="http://www.w3.org/2000/svg" xmlns:xlink="http://www.w3.org/1999/xlink"><title>Artboard</title><desc>Created with Sketch.</desc><g id="Artboard" stroke="none" stroke-width="1" fill="none" fill-rule="evenodd"><g id="Group-7-Copy"><g id="Group"><path id="Rectangle" fill="#111" d="M0 0h1440v360H0z"/><path id="Rectangle-Copy-13" stroke="#1f201f" fill="#141514" d="M841 60h60v60H841z"/><path id="Rectangle-Copy-58" stroke="#1f201f" fill="#141514" d="M480 60h60v60H480z"/><path id="Rectangle-Copy-59" stroke="#1f201f" fill="#141514" d="M480 120h60v60H480z"/><path id="Rectangle-Copy-85" stroke="#1f201f" fill="#141514" d="M120 120h60v60H120z"/><path id="Rectangle-Copy-60" stroke="#1f201f" fill="#141514" d="M480 180h60v60H480z"/><path id="Rectangle-Copy-36" stroke="#1f201f" fill="#1f201f" d="M841 240h60v60H841z"/><path id="Rectangle-Copy-87" stroke="#1f201f" fill="#1f201f" d="M120 240h60v60H120z"/><path id="Rectangle-Copy-30" stroke="#1f201f" fill="#141514" d="M1201 3e2h60v60h-60z"/><path id="Rectangle-Copy-37" stroke="#1f201f" fill="#141514" d="M841 3e2h60v60H841z"/><path id="Rectangle-Copy-62" stroke="#1f201f" fill="#141514" d="M480 3e2h60v60H480z"/><path id="Rectangle-Copy-88" stroke="#1f201f" fill="#141514" d="M120 3e2h60v60H120z"/><path id="Rectangle-Copy-63" stroke="#1f201f" fill="#141514" d="M540 60h60v60H540z"/><path id="Rectangle-Copy-89" stroke="#1f201f" fill="#141514" d="M180 60h60v60H180z"/><path id="Rectangle-Copy-107" stroke="#1f201f" fill="#1f201f" d="M180 120h60v60H180z"/><path id="Rectangle-Copy-38" stroke="#1f201f" fill="#141514" d="M901 240h60v60H901z"/><path id="Rectangle-Copy-64" stroke="#1f201f" fill="#141514" d="M540 240h60v60H540z"/><path id="Rectangle-Copy-90" stroke="#1f201f" fill="#141514" d="M180 240h60v60H180z"/><path id="Rectangle-Copy-31" stroke="#1f201f" fill="#141514" d="M1260 3e2h60v60h-60z"/><path id="Rectangle-Copy-39" stroke="#1f201f" fill="#141514" d="M901 3e2h60v60H901z"/><path id="Rectangle-Copy-65" stroke="#1f201f" fill="#141514" d="M540 3e2h60v60H540z"/><path id="Rectangle-Copy-91" stroke="#1f201f" fill="#141514" d="M180 3e2h60v60H180z"/><path id="Rectangle-Copy-40" stroke="#1f201f" fill="#141514" d="M781 60h60v60H781z"/><path id="Rectangle-Copy-66" stroke="#1f201f" fill="#141514" d="M420 60h60v60H420z"/><path id="Rectangle-Copy-92" stroke="#1f201f" fill="#141514" d="M60 60h60v60H60z"/><path id="Rectangle-Copy-41" stroke="#1f201f" fill="#171817" d="M781 120h60v60H781z"/><path id="Rectangle-Copy-67" stroke="#1f201f" fill="#171817" d="M420 120h60v60H420z"/><path id="Rectangle-Copy-93" stroke="#1f201f" fill="#171817" d="M60 120h60v60H60z"/><path id="Rectangle-Copy-42" stroke="#1f201f" fill="#141514" d="M781 240h60v60H781z"/><path id="Rectangle-Copy-68" stroke="#1f201f" fill="#141514" d="M420 240h60v60H420z"/><path id="Rectangle-Copy-94" stroke="#1f201f" fill="#141514" d="M60 240h60v60H60z"/><path id="Rectangle-Copy-32" stroke="#1f201f" fill="#141514" d="M1141 3e2h60v60h-60z"/><path id="Rectangle-Copy-43" stroke="#1f201f" fill="#141514" d="M781 3e2h60v60H781z"/><path id="Rectangle-Copy-69" stroke="#1f201f" fill="#141514" d="M420 3e2h60v60H420z"/><path id="Rectangle-Copy-95" stroke="#1f201f" fill="#141514" d="M60 3e2h60v60H60z"/><path id="Rectangle-Copy-44" stroke="#1f201f" fill="#141514" d="M721 60h60v60H721z"/><path id="Rectangle-Copy-70" stroke="#1f201f" fill="#141514" d="M360 60h60v60H360z"/><path id="Rectangle-Copy-45" stroke="#1f201f" fill="#141514" d="M721 180h60v60H721z"/><path id="Rectangle-Copy-71" stroke="#1f201f" fill="#141514" d="M360 180h60v60H360z"/><path id="Rectangle-Copy-27" stroke="#1f201f" fill="#141514" d="M1081 240h60v60h-60z"/><path id="Rectangle-Copy-46" stroke="#1f201f" fill="#141514" d="M721 240h60v60H721z"/><path id="Rectangle-Copy-72" stroke="#1f201f" fill="#141514" d="M360 240h60v60H360z"/><path id="Rectangle-Copy-33" stroke="#1f201f" fill="#1f201f" d="M1081 3e2h60v60h-60z"/><path id="Rectangle-Copy-47" stroke="#1f201f" fill="#1f201f" d="M721 3e2h60v60H721z"/><path id="Rectangle-Copy-48" stroke="#1f201f" fill="#141514" d="M781 0h60v60H781z"/><path id="Rectangle-Copy-74" stroke="#1f201f" fill="#141514" d="M420 0h60v60H420z"/><path id="Rectangle-Copy-100" stroke="#1f201f" fill="#141514" d="M60 0h60v60H60z"/><path id="Rectangle-Copy-49" stroke="#1f201f" fill="#141514" d="M901 0h60v60H901z"/><path id="Rectangle-Copy-50" stroke="#1f201f" fill="#141514" d="M961 0h60v60H961z"/><path id="Rectangle-Copy-101" stroke="#1f201f" fill="#141514" d="M180 0h60v60H180z"/><path id="Rectangle-Copy-76" stroke="#1f201f" fill="#141514" d="M660 60h60v60H660z"/><path id="Rectangle-Copy-102" stroke="#1f201f" fill="#141514" d="M3e2 60h60v60H3e2z"/><path id="Rectangle-Copy-77" stroke="#1f201f" fill="#141514" d="M660 120h60v60H660z"/><path id="Rectangle-Copy-103" stroke="#1f201f" fill="#141514" d="M3e2 120h60v60H3e2z"/><path id="Rectangle-Copy-110" stroke="#1f201f" fill="#141514" d="M240 120h60v60H240z"/><path id="Rectangle-Copy-78" stroke="#1f201f" fill="#141514" d="M660 180h60v60H660z"/><path id="Rectangle-Copy-104" stroke="#1f201f" fill="#141514" d="M3e2 180h60v60H3e2z"/><path id="Rectangle-Copy-111" stroke="#1f201f" fill="#141514" d="M240 180h60v60H240z"/><path id="Rectangle-Copy-112" stroke="#1f201f" fill="#141514" d="M180 180h60v60H180z"/><path id="Rectangle-Copy-79" stroke="#1f201f" fill="#141514" d="M660 240h60v60H660z"/><path id="Rectangle-Copy-105" stroke="#1f201f" fill="#141514" d="M3e2 240h60v60H3e2z"/><path id="Rectangle-Copy-54" stroke="#1f201f" fill="#141514" d="M1021 3e2h60v60h-60z"/><path id="Rectangle-Copy-80" stroke="#1f201f" fill="#141514" d="M660 3e2h60v60H660z"/><path id="Rectangle-Copy-106" stroke="#1f201f" fill="#141514" d="M3e2 3e2h60v60H3e2z"/><path id="Rectangle-Copy-81" stroke="#1f201f" fill="#141514" d="M6e2 60h60v60H6e2z"/><path id="Rectangle-Copy-56" stroke="#1f201f" fill="#141514" d="M961 240h60v60H961z"/><path id="Rectangle-Copy-82" stroke="#1f201f" fill="#141514" d="M6e2 240h60v60H6e2z"/><path id="Rectangle-Copy-108" stroke="#1f201f" fill="#141514" d="M240 240h60v60H240z"/><path id="Rectangle-Copy-57" stroke="#1f201f" fill="#141514" d="M961 3e2h60v60H961z"/><path id="Rectangle-Copy-83" stroke="#1f201f" fill="#141514" d="M6e2 3e2h60v60H6e2z"/><path id="Rectangle-Copy-96" stroke="#1f201f" fill="#141514" d="M0 60h60v60H0z"/><path id="Rectangle-Copy-97" stroke="#1f201f" fill="#141514" d="M0 180h60v60H0z"/><path id="Rectangle-Copy-98" stroke="#1f201f" fill="#141514" d="M0 240h60v60H0z"/><path id="Rectangle-Copy-99" stroke="#1f201f" fill="#1f201f" d="M0 3e2h60v60H0z"/><path id="Rectangle-Copy-109" stroke="#1f201f" fill="#141514" d="M240 3e2h60v60H240z"/></g></g></g></svg>