<?xml version="1.0" encoding="UTF-8"?>
<svg width="1440px" height="360px" viewBox="0 0 1440 360" version="1.1" xmlns="http://www.w3.org/2000/svg" xmlns:xlink="http://www.w3.org/1999/xlink">
    <!-- Generator: Sketch 62 (91390) - https://sketch.com -->
    <title>Artboard</title>
    <desc>Created with Sketch.</desc>
    <g id="Artboard" stroke="none" stroke-width="1" fill="none" fill-rule="evenodd">
        <g id="Group-7-Copy">
            <g id="Group">
                <rect id="Rectangle" fill="#111111" x="0" y="0" width="1440" height="360"></rect>
                <rect id="Rectangle-Copy-13" stroke="#1F201F" fill="#141514" x="841" y="60" width="60" height="60"></rect>
                <rect id="Rectangle-Copy-58" stroke="#1F201F" fill="#141514" x="480" y="60" width="60" height="60"></rect>
                <rect id="Rectangle-Copy-59" stroke="#1F201F" fill="#141514" x="480" y="120" width="60" height="60"></rect>
                <rect id="Rectangle-Copy-85" stroke="#1F201F" fill="#141514" x="120" y="120" width="60" height="60"></rect>
                <rect id="Rectangle-Copy-60" stroke="#1F201F" fill="#141514" x="480" y="180" width="60" height="60"></rect>
                <rect id="Rectangle-Copy-36" stroke="#1F201F" fill="#1F201F" x="841" y="240" width="60" height="60"></rect>
                <rect id="Rectangle-Copy-87" stroke="#1F201F" fill="#1F201F" x="120" y="240" width="60" height="60"></rect>
                <rect id="Rectangle-Copy-30" stroke="#1F201F" fill="#141514" x="1201" y="300" width="60" height="60"></rect>
                <rect id="Rectangle-Copy-37" stroke="#1F201F" fill="#141514" x="841" y="300" width="60" height="60"></rect>
                <rect id="Rectangle-Copy-62" stroke="#1F201F" fill="#141514" x="480" y="300" width="60" height="60"></rect>
                <rect id="Rectangle-Copy-88" stroke="#1F201F" fill="#141514" x="120" y="300" width="60" height="60"></rect>
                <rect id="Rectangle-Copy-63" stroke="#1F201F" fill="#141514" x="540" y="60" width="60" height="60"></rect>
                <rect id="Rectangle-Copy-89" stroke="#1F201F" fill="#141514" x="180" y="60" width="60" height="60"></rect>
                <rect id="Rectangle-Copy-107" stroke="#1F201F" fill="#1F201F" x="180" y="120" width="60" height="60"></rect>
                <rect id="Rectangle-Copy-38" stroke="#1F201F" fill="#141514" x="901" y="240" width="60" height="60"></rect>
                <rect id="Rectangle-Copy-64" stroke="#1F201F" fill="#141514" x="540" y="240" width="60" height="60"></rect>
                <rect id="Rectangle-Copy-90" stroke="#1F201F" fill="#141514" x="180" y="240" width="60" height="60"></rect>
                <rect id="Rectangle-Copy-31" stroke="#1F201F" fill="#141514" x="1260" y="300" width="60" height="60"></rect>
                <rect id="Rectangle-Copy-39" stroke="#1F201F" fill="#141514" x="901" y="300" width="60" height="60"></rect>
                <rect id="Rectangle-Copy-65" stroke="#1F201F" fill="#141514" x="540" y="300" width="60" height="60"></rect>
                <rect id="Rectangle-Copy-91" stroke="#1F201F" fill="#141514" x="180" y="300" width="60" height="60"></rect>
                <rect id="Rectangle-Copy-40" stroke="#1F201F" fill="#141514" x="781" y="60" width="60" height="60"></rect>
                <rect id="Rectangle-Copy-66" stroke="#1F201F" fill="#141514" x="420" y="60" width="60" height="60"></rect>
                <rect id="Rectangle-Copy-92" stroke="#1F201F" fill="#141514" x="60" y="60" width="60" height="60"></rect>
                <rect id="Rectangle-Copy-41" stroke="#1F201F" fill="#171817" x="781" y="120" width="60" height="60"></rect>
                <rect id="Rectangle-Copy-67" stroke="#1F201F" fill="#171817" x="420" y="120" width="60" height="60"></rect>
                <rect id="Rectangle-Copy-93" stroke="#1F201F" fill="#171817" x="60" y="120" width="60" height="60"></rect>
                <rect id="Rectangle-Copy-42" stroke="#1F201F" fill="#141514" x="781" y="240" width="60" height="60"></rect>
                <rect id="Rectangle-Copy-68" stroke="#1F201F" fill="#141514" x="420" y="240" width="60" height="60"></rect>
                <rect id="Rectangle-Copy-94" stroke="#1F201F" fill="#141514" x="60" y="240" width="60" height="60"></rect>
                <rect id="Rectangle-Copy-32" stroke="#1F201F" fill="#141514" x="1141" y="300" width="60" height="60"></rect>
                <rect id="Rectangle-Copy-43" stroke="#1F201F" fill="#141514" x="781" y="300" width="60" height="60"></rect>
                <rect id="Rectangle-Copy-69" stroke="#1F201F" fill="#141514" x="420" y="300" width="60" height="60"></rect>
                <rect id="Rectangle-Copy-95" stroke="#1F201F" fill="#141514" x="60" y="300" width="60" height="60"></rect>
                <rect id="Rectangle-Copy-44" stroke="#1F201F" fill="#141514" x="721" y="60" width="60" height="60"></rect>
                <rect id="Rectangle-Copy-70" stroke="#1F201F" fill="#141514" x="360" y="60" width="60" height="60"></rect>
                <rect id="Rectangle-Copy-45" stroke="#1F201F" fill="#141514" x="721" y="180" width="60" height="60"></rect>
                <rect id="Rectangle-Copy-71" stroke="#1F201F" fill="#141514" x="360" y="180" width="60" height="60"></rect>
                <rect id="Rectangle-Copy-27" stroke="#1F201F" fill="#141514" x="1081" y="240" width="60" height="60"></rect>
                <rect id="Rectangle-Copy-46" stroke="#1F201F" fill="#141514" x="721" y="240" width="60" height="60"></rect>
                <rect id="Rectangle-Copy-72" stroke="#1F201F" fill="#141514" x="360" y="240" width="60" height="60"></rect>
                <rect id="Rectangle-Copy-33" stroke="#1F201F" fill="#1F201F" x="1081" y="300" width="60" height="60"></rect>
                <rect id="Rectangle-Copy-47" stroke="#1F201F" fill="#1F201F" x="721" y="300" width="60" height="60"></rect>
                <rect id="Rectangle-Copy-48" stroke="#1F201F" fill="#141514" x="781" y="0" width="60" height="60"></rect>
                <rect id="Rectangle-Copy-74" stroke="#1F201F" fill="#141514" x="420" y="0" width="60" height="60"></rect>
                <rect id="Rectangle-Copy-100" stroke="#1F201F" fill="#141514" x="60" y="0" width="60" height="60"></rect>
                <rect id="Rectangle-Copy-49" stroke="#1F201F" fill="#141514" x="901" y="0" width="60" height="60"></rect>
                <rect id="Rectangle-Copy-50" stroke="#1F201F" fill="#141514" x="961" y="0" width="60" height="60"></rect>
                <rect id="Rectangle-Copy-101" stroke="#1F201F" fill="#141514" x="180" y="0" width="60" height="60"></rect>
                <rect id="Rectangle-Copy-76" stroke="#1F201F" fill="#141514" x="660" y="60" width="60" height="60"></rect>
                <rect id="Rectangle-Copy-102" stroke="#1F201F" fill="#141514" x="300" y="60" width="60" height="60"></rect>
                <rect id="Rectangle-Copy-77" stroke="#1F201F" fill="#141514" x="660" y="120" width="60" height="60"></rect>
                <rect id="Rectangle-Copy-103" stroke="#1F201F" fill="#141514" x="300" y="120" width="60" height="60"></rect>
                <rect id="Rectangle-Copy-110" stroke="#1F201F" fill="#141514" x="240" y="120" width="60" height="60"></rect>
                <rect id="Rectangle-Copy-78" stroke="#1F201F" fill="#141514" x="660" y="180" width="60" height="60"></rect>
                <rect id="Rectangle-Copy-104" stroke="#1F201F" fill="#141514" x="300" y="180" width="60" height="60"></rect>
                <rect id="Rectangle-Copy-111" stroke="#1F201F" fill="#141514" x="240" y="180" width="60" height="60"></rect>
                <rect id="Rectangle-Copy-112" stroke="#1F201F" fill="#141514" x="180" y="180" width="60" height="60"></rect>
                <rect id="Rectangle-Copy-79" stroke="#1F201F" fill="#141514" x="660" y="240" width="60" height="60"></rect>
                <rect id="Rectangle-Copy-105" stroke="#1F201F" fill="#141514" x="300" y="240" width="60" height="60"></rect>
                <rect id="Rectangle-Copy-54" stroke="#1F201F" fill="#141514" x="1021" y="300" width="60" height="60"></rect>
                <rect id="Rectangle-Copy-80" stroke="#1F201F" fill="#141514" x="660" y="300" width="60" height="60"></rect>
                <rect id="Rectangle-Copy-106" stroke="#1F201F" fill="#141514" x="300" y="300" width="60" height="60"></rect>
                <rect id="Rectangle-Copy-81" stroke="#1F201F" fill="#141514" x="600" y="60" width="60" height="60"></rect>
                <rect id="Rectangle-Copy-56" stroke="#1F201F" fill="#141514" x="961" y="240" width="60" height="60"></rect>
                <rect id="Rectangle-Copy-82" stroke="#1F201F" fill="#141514" x="600" y="240" width="60" height="60"></rect>
                <rect id="Rectangle-Copy-108" stroke="#1F201F" fill="#141514" x="240" y="240" width="60" height="60"></rect>
                <rect id="Rectangle-Copy-57" stroke="#1F201F" fill="#141514" x="961" y="300" width="60" height="60"></rect>
                <rect id="Rectangle-Copy-83" stroke="#1F201F" fill="#141514" x="600" y="300" width="60" height="60"></rect>
                <rect id="Rectangle-Copy-96" stroke="#1F201F" fill="#141514" x="0" y="60" width="60" height="60"></rect>
                <rect id="Rectangle-Copy-97" stroke="#1F201F" fill="#141514" x="0" y="180" width="60" height="60"></rect>
                <rect id="Rectangle-Copy-98" stroke="#1F201F" fill="#141514" x="0" y="240" width="60" height="60"></rect>
                <rect id="Rectangle-Copy-99" stroke="#1F201F" fill="#1F201F" x="0" y="300" width="60" height="60"></rect>
                <rect id="Rectangle-Copy-109" stroke="#1F201F" fill="#141514" x="240" y="300" width="60" height="60"></rect>
            </g>
        </g>
    </g>
</svg>