<svg width="18" height="18" viewBox="0 0 18 18" fill="none" xmlns="http://www.w3.org/2000/svg">
    <path fill-rule="evenodd" clip-rule="evenodd" d="M18 9C18 13.9706 13.9706 18 9 18C4.02944 18 0 13.9706 0 9C0 4.02944 4.02944 0 9 0C13.9706 0 18 4.02944 18 9ZM11 4C11 5.10457 10.1046 6 9 6C7.89543 6 7 5.10457 7 4C7 2.89543 7.89543 2 9 2C10.1046 2 11 2.89543 11 4ZM9 8C7.89543 8 7 8.89543 7 10V13C7 14.1046 7.89543 15 9 15C10.1046 15 11 14.1046 11 13V10C11 8.89543 10.1046 8 9 8Z" fill="#666666"/>
</svg>
