<svg width="376" height="200" viewBox="0 0 376 200" fill="#F4BA00" xmlns="http://www.w3.org/2000/svg">
<path fill-rule="evenodd" clip-rule="evenodd" d="M376 0H0V200H376V0ZM61.3494 42.5C61.3494 32.4841 68.7119 24.1879 78.3198 22.7279C77.9851 22.677 77.6475 22.6344 77.3074 22.6003C77.1411 22.5837 76.9744 22.5692 76.8071 22.5566C76.6372 22.5439 76.4668 22.5333 76.2959 22.5249C76.0933 22.5149 75.8896 22.5078 75.6853 22.5039C75.554 22.5013 75.4224 22.5 75.2905 22.5C64.2449 22.5 55.2905 31.4543 55.2905 42.5C55.2905 53.5457 64.2449 62.5 75.2905 62.5C76.3203 62.5 77.332 62.4221 78.3198 62.2721C68.7119 60.8121 61.3494 52.5159 61.3494 42.5ZM84.6868 42.5C84.6868 33.2061 91.0261 25.3928 99.6165 23.1483C97.9973 22.7252 96.2981 22.5 94.5461 22.5C83.5005 22.5 74.5461 31.4543 74.5461 42.5C74.5461 53.5457 83.5005 62.5 94.5461 62.5C96.2981 62.5 97.9973 62.2748 99.6165 61.8517C91.0261 59.6072 84.6868 51.7939 84.6868 42.5ZM123.698 23.9991C116.427 26.9934 111.309 34.149 111.309 42.5C111.309 50.851 116.427 58.0066 123.698 61.0009C121.352 61.967 118.782 62.5 116.087 62.5C105.041 62.5 96.0869 53.5457 96.0869 42.5C96.0869 31.4543 105.041 22.5 116.087 22.5C118.782 22.5 121.352 23.033 123.698 23.9991ZM143.962 42.5C143.962 35.1219 147.957 28.6771 153.902 25.2106C150.947 23.4873 147.51 22.5 143.842 22.5C132.796 22.5 123.842 31.4543 123.842 42.5C123.842 53.5457 132.796 62.5 143.842 62.5C147.51 62.5 150.947 61.5127 153.902 59.7894C147.957 56.3229 143.962 49.8781 143.962 42.5ZM188.004 26.8938C183.437 30.5593 180.513 36.1882 180.513 42.5C180.513 48.8118 183.437 54.4407 188.004 58.1062C184.579 60.8553 180.229 62.5 175.495 62.5C164.449 62.5 155.495 53.5457 155.495 42.5C155.495 31.4543 164.449 22.5 175.495 22.5C180.229 22.5 184.579 24.1447 188.004 26.8938ZM222.646 42.5C222.646 37.405 224.551 32.7549 227.688 29.2234C224.024 25.0989 218.68 22.5 212.73 22.5C201.684 22.5 192.73 31.4543 192.73 42.5C192.73 53.5457 201.684 62.5 212.73 62.5C218.68 62.5 224.024 59.9011 227.688 55.7766C224.551 52.2451 222.646 47.595 222.646 42.5ZM271.994 33.401C270.597 36.1305 269.809 39.2233 269.809 42.5C269.809 45.7767 270.597 48.8695 271.994 51.599C268.682 58.0703 261.948 62.5 254.179 62.5C243.133 62.5 234.179 53.5457 234.179 42.5C234.179 31.4543 243.133 22.5 254.179 22.5C261.948 22.5 268.682 26.9297 271.994 33.401ZM300.709 62.5C311.755 62.5 320.709 53.5457 320.709 42.5C320.709 31.4543 311.755 22.5 300.709 22.5C289.664 22.5 280.709 31.4543 280.709 42.5C280.709 53.5457 289.664 62.5 300.709 62.5Z" fill="#344150"/>
</svg>