<svg width="1440" height="200" viewBox="0 0 1440 200" fill="none" xmlns="http://www.w3.org/2000/svg">
<path fill-rule="evenodd" clip-rule="evenodd" d="M1440 0H0V200H1440V0ZM425.529 64.5C425.529 46.4715 438.781 31.5382 456.076 28.9103C454.298 28.6401 452.477 28.5 450.623 28.5C430.741 28.5 414.623 44.6177 414.623 64.5C414.623 84.3822 430.741 100.5 450.623 100.5C452.477 100.5 454.298 100.36 456.076 100.09C438.781 97.4618 425.529 82.5285 425.529 64.5ZM467.536 64.5C467.536 47.771 478.947 33.7071 494.41 29.6669C491.495 28.9054 488.437 28.5 485.283 28.5C465.401 28.5 449.283 44.6177 449.283 64.5C449.283 84.3822 465.401 100.5 485.283 100.5C488.437 100.5 491.495 100.095 494.41 99.3331C478.947 95.2929 467.536 81.229 467.536 64.5ZM537.757 31.1984C524.669 36.5882 515.456 49.4682 515.456 64.5C515.456 79.5318 524.669 92.4118 537.757 97.8016C533.534 99.5407 528.907 100.5 524.057 100.5C504.174 100.5 488.057 84.3822 488.057 64.5C488.057 44.6177 504.174 28.5 524.057 28.5C528.907 28.5 533.534 29.4593 537.757 31.1984ZM574.232 64.5C574.232 51.2196 581.423 39.6187 592.124 33.3789C586.804 30.2771 580.618 28.5 574.016 28.5C554.134 28.5 538.016 44.6177 538.016 64.5C538.016 84.3822 554.134 100.5 574.016 100.5C580.618 100.5 586.804 98.7229 592.124 95.6211C581.423 89.3813 574.232 77.7804 574.232 64.5ZM653.508 36.4088C645.287 43.0067 640.024 53.1387 640.024 64.5C640.024 75.8613 645.287 85.9933 653.508 92.5912C647.342 97.5396 639.512 100.5 630.991 100.5C611.109 100.5 594.991 84.3822 594.991 64.5C594.991 44.6177 611.109 28.5 630.991 28.5C639.512 28.5 647.342 31.4604 653.508 36.4088ZM715.863 64.5C715.863 55.329 719.292 46.9589 724.938 40.6021C718.344 33.1779 708.725 28.5 698.014 28.5C678.132 28.5 662.014 44.6177 662.014 64.5C662.014 84.3822 678.132 100.5 698.014 100.5C708.725 100.5 718.344 95.8221 724.938 88.3979C719.292 82.0411 715.863 73.6711 715.863 64.5ZM804.689 48.1218C802.175 53.0349 800.756 58.6018 800.756 64.5C800.756 70.3982 802.175 75.9651 804.689 80.8782C798.728 92.5267 786.606 100.5 772.622 100.5C752.74 100.5 736.622 84.3822 736.622 64.5C736.622 44.6177 752.74 28.5 772.622 28.5C786.606 28.5 798.728 36.4733 804.689 48.1218ZM856.377 100.5C876.259 100.5 892.377 84.3822 892.377 64.5C892.377 44.6177 876.259 28.5 856.377 28.5C836.495 28.5 820.377 44.6177 820.377 64.5C820.377 84.3822 836.495 100.5 856.377 100.5Z" fill="#344150"/>
</svg>
