<svg xmlns="http://www.w3.org/2000/svg" width="16" height="17" viewBox="0 0 16 17" fill="none">
  <g clip-path="url(#clip0_38551_24373)">
    <path fill-rule="evenodd" clip-rule="evenodd" d="M8 16.5C12.4183 16.5 16 12.9183 16 8.5C16 4.08172 12.4183 0.5 8 0.5C3.58172 0.5 0 4.08172 0 8.5C0 12.9183 3.58172 16.5 8 16.5ZM2.66645 10.2743C3.64829 10.2743 4.44423 9.47837 4.44423 8.49653C4.44423 7.51469 3.64829 6.71875 2.66645 6.71875C1.68461 6.71875 0.888672 7.51469 0.888672 8.49653C0.888672 9.47837 1.68461 10.2743 2.66645 10.2743ZM9.77821 8.49653C9.77821 9.47837 8.98227 10.2743 8.00043 10.2743C7.01859 10.2743 6.22266 9.47837 6.22266 8.49653C6.22266 7.51469 7.01859 6.71875 8.00043 6.71875C8.98227 6.71875 9.77821 7.51469 9.77821 8.49653ZM13.3325 10.2743C14.3143 10.2743 15.1102 9.47837 15.1102 8.49653C15.1102 7.51469 14.3143 6.71875 13.3325 6.71875C12.3506 6.71875 11.5547 7.51469 11.5547 8.49653C11.5547 9.47837 12.3506 10.2743 13.3325 10.2743Z" fill="#999999"/>
  </g>
  <defs>
    <clipPath id="clip0_38551_24373">
      <rect width="16" height="16" fill="white" transform="translate(0 0.5)"/>
    </clipPath>
  </defs>
</svg>