<svg t="1630315747554" class="icon" viewBox="0 0 1024 1024" version="1.1" xmlns="http://www.w3.org/2000/svg" p-id="5054" width="128" height="128"><path d="M512 0C229.22752 0 0 229.22752 0 512s229.22752 512 512 512 512-229.22752 512-512S794.77248 0 512 0zM204.8 614.4c-56.55552 0-102.4-45.84448-102.4-102.4v-0.04096c0.01024-56.5504 45.86496-102.38976 102.42048-102.37952C261.376 409.58976 307.21024 455.44448 307.2 512c0 56.55552-45.84448 102.4-102.4 102.4z m307.2 0c-56.55552 0-102.4-45.84448-102.4-102.4v-0.09216c0.0256-56.5504 45.89056-102.37952 102.44608-102.35392S614.4256 455.44448 614.4 512c0 56.55552-45.84448 102.4-102.4 102.4z m307.15392 0.04608c-56.55552-0.0256-102.37952-45.89056-102.35392-102.44608v-0.09216c0.0256-56.5504 45.89056-102.37952 102.44608-102.35392S921.6256 455.44448 921.6 512v0.09216c-0.0256 56.5504-45.89056 102.37952-102.44608 102.35392z" p-id="5055" fill="#707070"></path></svg>