<svg width="24" height="24" viewBox="0 0 24 24"  fill="none"  xmlns="http://www.w3.org/2000/svg">
<g clip-path="url(#clip0_52943_76905)">
<path d="M12.5875 18.3329L14.4216 15.1281L15.7987 15.9166L13.8473 19.3276C14.5595 20.4634 14.2161 21.9615 13.0803 22.6737C12.3228 23.1488 11.3653 23.1689 10.5885 22.726C9.42724 22.0561 9.02886 20.5717 9.69872 19.4104C9.74627 19.328 9.79863 19.2484 9.85553 19.1721L7.86283 15.8769L9.22091 15.0567L11.1724 18.2837C11.6385 18.1589 12.1312 18.176 12.5875 18.3329ZM19.9824 8.68194L17.7105 12.588L16.3397 11.7884L18.6735 7.7792C18.5771 7.64773 18.4942 7.50688 18.426 7.35876H13.8266V5.77222H18.2689C18.5898 4.47057 19.9051 3.67547 21.2068 3.99633C22.0628 4.20734 22.7371 4.8659 22.9683 5.7167C23.3125 7.01237 22.5412 8.34177 21.2455 8.68598C20.832 8.79583 20.3968 8.79444 19.984 8.68194L19.9824 8.68194ZM4.95787 7.98386L7.2774 11.7757L5.92408 12.6039L3.55855 8.73747C3.0093 8.82574 2.44641 8.72268 1.96407 8.44554C0.803092 7.77523 0.405316 6.29067 1.07561 5.12968C1.74812 3.96994 3.23345 3.57496 4.39319 4.24747C4.96519 4.57916 5.37712 5.12984 5.53379 5.77222H9.95865V7.35876H5.37514C5.26953 7.58811 5.12875 7.79956 4.95788 7.98545L4.95787 7.98386ZM12.678 8.8755C13.3523 9.16266 13.8726 9.74651 14.071 10.4779C14.1709 10.8587 14.1773 11.249 14.0948 11.6202L18.9194 14.9393C19.8698 13.9937 21.4068 13.9977 22.3523 14.9481C23.1281 15.7279 23.2825 16.9319 22.7287 17.8823C22.0584 19.0433 20.5738 19.4411 19.4128 18.7708C18.8543 18.4503 18.4483 17.9185 18.2864 17.2953C18.2059 16.9983 18.1828 16.6887 18.2182 16.383L13.2682 12.9751L13.2047 13.0259C12.3597 13.6744 11.1906 13.6963 10.322 13.0798L5.50681 16.1863C5.62202 16.7614 5.52509 17.3588 5.23392 17.868C4.56361 19.029 3.07905 19.4268 1.91806 18.7565C0.779953 18.0647 0.411817 16.5851 1.09305 15.4406H1.02959C1.70492 14.2825 3.1912 13.8911 4.3493 14.5665C4.47425 14.6393 4.59243 14.7232 4.70243 14.8171L9.40018 11.7868C9.02308 10.504 9.75732 9.15833 11.0402 8.78123C11.0561 8.77653 11.0722 8.772 11.0883 8.76763L11.0137 5.46604C9.74568 5.03084 9.07054 3.65011 9.50574 2.3821C9.55624 2.23496 9.62078 2.093 9.69845 1.9582C10.372 0.799081 11.8577 0.405458 13.0168 1.07903C13.5701 1.40052 13.974 1.92746 14.1408 2.54522C14.466 3.76896 13.796 5.03716 12.6018 5.45811L12.678 8.8755Z" fill="currentColor"/>
</g>
<defs>
<clipPath id="clip0_52943_76905">
<rect width="24" height="24" fill="white"/>
</clipPath>
</defs>
</svg>
