<svg width="16" height="16" viewBox="0 0 16 16" fill="none" xmlns="http://www.w3.org/2000/svg">
  <g clip-path="url(#clip0_40347_58422)">
    <path
      d="M8.3917 12.2219L9.61439 10.0854L10.5325 10.611L9.23151 12.8851C9.70632 13.6423 9.47742 14.641 8.72023 15.1158C8.21517 15.4325 7.57689 15.4459 7.05901 15.1507C6.28482 14.7041 6.01924 13.7145 6.46581 12.9403C6.49752 12.8853 6.53242 12.8323 6.57035 12.7814L5.24189 10.5846L6.14728 10.0378L7.44824 12.1891C7.75898 12.1059 8.08748 12.1173 8.3917 12.2219ZM13.3216 5.78796L11.807 8.392L10.8931 7.85892L12.449 5.18613C12.3847 5.09849 12.3294 5.00458 12.284 4.90584H9.21776V3.84815H12.1793C12.3932 2.98038 13.2701 2.45031 14.1378 2.66422C14.7085 2.80489 15.1581 3.24393 15.3122 3.81113C15.5417 4.67492 15.0275 5.56118 14.1637 5.79065C13.888 5.86389 13.5979 5.86296 13.3227 5.78796L13.3216 5.78796ZM3.30525 5.32257L4.8516 7.85046L3.94938 8.40258L2.37236 5.82498C2.0062 5.88382 1.63094 5.81512 1.30938 5.63036C0.535395 5.18348 0.270211 4.19378 0.717073 3.41978C1.16541 2.64662 2.15563 2.38331 2.92879 2.83165C3.31013 3.05278 3.58475 3.41989 3.68919 3.84815H6.6391V4.90584H3.58342C3.51302 5.05874 3.41917 5.1997 3.30525 5.32363L3.30525 5.32257ZM8.45199 5.917C8.90151 6.10844 9.24843 6.49767 9.38064 6.98527C9.44728 7.23911 9.45151 7.49931 9.39651 7.74681L12.613 9.9595C13.2466 9.32916 14.2712 9.33181 14.9015 9.96541C15.4187 10.4853 15.5217 11.2879 15.1525 11.9215C14.7056 12.6955 13.7159 12.9607 12.9419 12.5138C12.5695 12.3002 12.2989 11.9457 12.1909 11.5302C12.1373 11.3322 12.1218 11.1258 12.1454 10.922L8.84544 8.65008L8.80313 8.68393C8.2398 9.11628 7.46042 9.13087 6.88131 8.71989L3.67121 10.7909C3.74802 11.1743 3.68339 11.5725 3.48928 11.912C3.0424 12.686 2.0527 12.9512 1.2787 12.5043C0.519969 12.0431 0.274544 11.0567 0.728703 10.2937H0.686395C1.13661 9.52167 2.12747 9.26076 2.89954 9.71098C2.98283 9.75955 3.06162 9.81547 3.13496 9.87807L6.26679 7.85787C6.01539 7.00265 6.50488 6.10556 7.36011 5.85415C7.37076 5.85102 7.38145 5.848 7.39217 5.84509L7.34246 3.64403C6.49712 3.35389 6.04703 2.43341 6.33716 1.58807C6.37083 1.48997 6.41385 1.39534 6.46563 1.30547C6.91468 0.532721 7.90514 0.270305 8.67788 0.719351C9.04671 0.933679 9.316 1.28497 9.42717 1.69682C9.64401 2.51264 9.19734 3.35811 8.40121 3.63874L8.45199 5.917Z"
      fill="currentcolor" />
  </g>
  <defs>
    <clipPath id="clip0_40347_58422">
      <rect width="16" height="16" fill="white" />
    </clipPath>
  </defs>
</svg>
