<svg width="20" height="20" viewBox="0 0 20 20" fill="none" xmlns="http://www.w3.org/2000/svg">
<g clip-path="url(#clip0_37576_31653)">
<path d="M8.75 5.94598L11.0984 3.60223C11.8036 2.90843 12.7544 2.52139 13.7437 2.52542C14.7329 2.52945 15.6805 2.92422 16.3801 3.62374C17.0796 4.32326 17.4743 5.27086 17.4784 6.26012C17.4824 7.24938 17.0954 8.20016 16.4016 8.90536L14.0531 11.2499" stroke="#999999" stroke-width="1.875" stroke-linecap="round" stroke-linejoin="round"/>
<path d="M5.94611 8.75L3.60236 11.0984C2.90856 11.8036 2.52152 12.7544 2.52554 13.7437C2.52957 14.7329 2.92434 15.6805 3.62386 16.3801C4.32338 17.0796 5.27098 17.4743 6.26024 17.4784C7.24951 17.4824 8.20029 17.0954 8.90548 16.4016L11.25 14.0531" stroke="#999999" stroke-width="1.875" stroke-linecap="round" stroke-linejoin="round"/>
</g>
<defs>
<clipPath id="clip0_37576_31653">
<rect width="20" height="20" fill="white"/>
</clipPath>
</defs>
</svg>
