<svg width="32" height="32" viewBox="0 0 32 32" fill="none" xmlns="http://www.w3.org/2000/svg">
    <path d="M20.2627 22.4852L20.2161 21.2052L21.1868 20.3692C27.5255 14.9038 30.0668 8.30511 29.1815 2.81974C23.6494 1.91973 16.9974 4.44109 11.5507 10.7771L10.728 11.7345L9.46534 11.7051C7.572 11.6611 5.96666 12.1051 4.37466 13.1758L10.3013 17.1492L9.11467 19.2905C8.82934 19.8052 9.09734 20.9572 10.024 21.8799C10.9493 22.8026 12.1307 23.0799 12.628 22.8132L14.764 21.6639L18.7547 27.6439C19.8854 26.0146 20.3321 24.4039 20.2614 22.4839L20.2627 22.4852ZM31.0882 0.50238L31.4162 0.58638L31.4988 0.911716C32.9828 6.47978 31.4668 15.0278 22.9268 22.3879C23.0534 25.8666 21.8201 28.648 18.9481 31.5093L18.4547 32L13.8921 25.1613C12.2907 26.024 9.86537 25.4866 8.14136 23.7693C6.41469 22.0492 5.87735 19.6332 6.78136 17.9999L0 13.4532L0.492004 12.9638C3.28402 10.1825 6.07737 8.95848 9.52806 9.03846C16.8748 0.493046 25.4988 -0.972302 31.0882 0.502395L31.0882 0.50238ZM6.72001 25.1706C7.61335 26.0639 7.41868 27.656 6.32801 28.7466C4.89067 30.1853 1.06399 30.8266 1.06399 30.8266C1.06399 30.8266 1.856 26.8533 3.14667 25.5639C4.23734 24.4732 5.82402 24.2732 6.72002 25.1706L6.72001 25.1706ZM20.6668 9.33312C19.5622 9.33312 18.6667 10.2286 18.6667 11.3331C18.6667 12.4377 19.5622 13.3332 20.6668 13.3332C21.7713 13.3332 22.6668 12.4377 22.6668 11.3331C22.6668 10.2286 21.7713 9.33312 20.6668 9.33312H20.6668Z" fill="#FF5656"/>
</svg>
