<svg width="16" height="16" viewBox="0 0 16 16" fill="none" xmlns="http://www.w3.org/2000/svg">
    <path fill-rule="evenodd" clip-rule="evenodd" d="M5.01328 0C4.49437 0 4.07371 0.420662 4.07371 0.939575V12.8754L1.60395 10.4013C1.23703 10.0338 0.642122 10.0338 0.275195 10.4013C-0.0917317 10.7689 -0.0917317 11.3649 0.275195 11.7324L4.26147 15.7257C4.45752 15.9221 4.71865 16.0136 4.97532 16.0001C4.98791 16.0006 5.00057 16.0009 5.01328 16.0009C5.53219 16.0009 5.95286 15.5802 5.95286 15.0613V0.939575C5.95286 0.420662 5.53219 0 5.01328 0Z" fill="#CCCCCC"/>
    <path fill-rule="evenodd" clip-rule="evenodd" d="M10.963 0C10.4441 0 10.0234 0.420662 10.0234 0.939575V15.0613C10.0234 15.5802 10.4441 16.0009 10.963 16.0009C11.4819 16.0009 11.9026 15.5802 11.9026 15.0613V3.10457L14.3957 5.60204C14.7626 5.96961 15.3575 5.96961 15.7244 5.60204C16.0914 5.23447 16.0914 4.63852 15.7244 4.27094L11.7382 0.277653C11.5449 0.0841061 11.2885 -0.00752766 11.0355 0.00275218C11.0116 0.000928538 10.9874 0 10.963 0Z" fill="#CCCCCC"/>
</svg>
