<svg width="24" height="24" viewBox="0 0 24 24" fill="none" xmlns="http://www.w3.org/2000/svg">
<path d="M11.6065 2.34236C11.8322 2.1463 12.1678 2.1463 12.3935 2.34236L14.3418 4.03497C14.4646 4.14163 14.6254 4.19388 14.7874 4.17976L17.3586 3.95562C17.6564 3.92965 17.9279 4.12692 17.9953 4.4182L18.5766 6.93276C18.6133 7.09121 18.7126 7.228 18.852 7.31181L21.0639 8.64175C21.3201 8.79581 21.4238 9.11499 21.307 9.39022L20.2994 11.7662C20.2359 11.916 20.2359 12.085 20.2994 12.2348L21.307 14.6108C21.4238 14.886 21.3201 15.2052 21.0639 15.3593L18.852 16.6892C18.7126 16.773 18.6133 16.9098 18.5766 17.0683L17.9953 19.5828C17.9279 19.8741 17.6564 20.0714 17.3586 20.0454L14.7874 19.8213C14.6254 19.8071 14.4646 19.8594 14.3418 19.966L12.3935 21.6587C12.1678 21.8547 11.8322 21.8547 11.6065 21.6587L9.65818 19.966C9.53541 19.8594 9.3746 19.8071 9.21258 19.8213L6.64144 20.0454C6.34361 20.0714 6.0721 19.8741 6.00476 19.5828L5.4234 17.0683C5.38677 16.9098 5.28738 16.773 5.148 16.6892L2.93617 15.3593C2.67995 15.2052 2.57624 14.886 2.69297 14.6108L3.70067 12.2348C3.76416 12.085 3.76416 11.916 3.70067 11.7662L2.69297 9.39022C2.57624 9.11499 2.67995 8.79581 2.93617 8.64175L5.148 7.31181C5.28738 7.228 5.38677 7.09121 5.4234 6.93276L6.00476 4.4182C6.0721 4.12692 6.34361 3.92965 6.64144 3.95562L9.21258 4.17976C9.3746 4.19388 9.53541 4.14163 9.65818 4.03497L11.6065 2.34236Z" stroke="currentColor" stroke-width="2"/>
<path d="M9 13L11 15L16 10" stroke="currentColor" stroke-width="2" stroke-linecap="round" stroke-linejoin="round"/>
</svg>
