<svg width="20" height="20" viewBox="0 0 20 20" fill="none" xmlns="http://www.w3.org/2000/svg">
  <path d="M10 0.25C8.07164 0.25 6.18657 0.821828 4.58319 1.89317C2.97982 2.96451 1.73013 4.48726 0.992179 6.26884C0.254225 8.05042 0.061142 10.0108 0.437348 11.9021C0.813554 13.7934 1.74215 15.5307 3.10571 16.8943C4.46928 18.2579 6.20656 19.1865 8.09787 19.5627C9.98919 19.9389 11.9496 19.7458 13.7312 19.0078C15.5127 18.2699 17.0355 17.0202 18.1068 15.4168C19.1782 13.8134 19.75 11.9284 19.75 10C19.7473 7.41498 18.7192 4.93661 16.8913 3.10872C15.0634 1.28084 12.585 0.25273 10 0.25ZM10 18.25C8.36831 18.25 6.77326 17.7661 5.41655 16.8596C4.05984 15.9531 3.00242 14.6646 2.378 13.1571C1.75358 11.6496 1.5902 9.99085 1.90853 8.3905C2.22685 6.79016 3.01259 5.32015 4.16637 4.16637C5.32016 3.01259 6.79017 2.22685 8.39051 1.90852C9.99085 1.59019 11.6497 1.75357 13.1571 2.37799C14.6646 3.00242 15.9531 4.05984 16.8596 5.41655C17.7661 6.77325 18.25 8.3683 18.25 10C18.2475 12.1873 17.3775 14.2843 15.8309 15.8309C14.2843 17.3775 12.1873 18.2475 10 18.25ZM9.25 14.5V9.25C9.25 9.05109 9.32902 8.86032 9.46967 8.71967C9.61033 8.57902 9.80109 8.5 10 8.5C10.1989 8.5 10.3897 8.57902 10.5303 8.71967C10.671 8.86032 10.75 9.05109 10.75 9.25V14.5C10.75 14.6989 10.671 14.8897 10.5303 15.0303C10.3897 15.171 10.1989 15.25 10 15.25C9.80109 15.25 9.61033 15.171 9.46967 15.0303C9.32902 14.8897 9.25 14.6989 9.25 14.5ZM11.125 5.875C11.125 6.0975 11.059 6.31501 10.9354 6.50002C10.8118 6.68502 10.6361 6.82922 10.4305 6.91436C10.225 6.99951 9.99876 7.02179 9.78053 6.97838C9.5623 6.93498 9.36184 6.82783 9.20451 6.67049C9.04718 6.51316 8.94003 6.31271 8.89662 6.09448C8.85321 5.87625 8.87549 5.65005 8.96064 5.44448C9.04579 5.23891 9.18998 5.06321 9.37499 4.9396C9.55999 4.81598 9.7775 4.75 10 4.75C10.2984 4.75 10.5845 4.86853 10.7955 5.07951C11.0065 5.29048 11.125 5.57663 11.125 5.875Z" fill="#F0F0F0"/>
  </svg>
  