<svg width="24" height="24" viewBox="0 0 24 24" fill="none" xmlns="http://www.w3.org/2000/svg">
<path d="M21.0245 15.9168C21.0245 15.5129 21.355 15.1824 21.7589 15.1824C22.1628 15.1824 22.4933 15.5129 22.4933 15.9168V19.7968C22.4933 21.0086 21.5018 22 20.2901 22H3.20318C1.99143 22 1 21.0086 1 19.7968V4.20318C1 2.99143 1.99143 2 3.20318 2H10.1554C10.5594 2 10.8898 2.33048 10.8898 2.73439C10.8898 3.13831 10.5594 3.46879 10.1554 3.46879H3.20318C2.79927 3.46879 2.46879 3.79927 2.46879 4.20318V19.7968C2.46879 20.2007 2.79927 20.5312 3.20318 20.5312H20.2901C20.694 20.5312 21.0245 20.2007 21.0245 19.7968V15.9168Z" fill="currentColor"/>
<path d="M13.6562 2H21.6367C21.9549 2 22.4934 2.20808 22.4812 2.97919V10.8984C22.4812 11.3023 22.1507 11.6328 21.7468 11.6328C21.3429 11.6328 21.0124 11.3023 21.0124 10.8984V4.46022L9.20091 16.2717C9.06627 16.4186 8.87043 16.492 8.68684 16.492C8.50324 16.492 8.31964 16.4186 8.17276 16.2717C7.89124 15.978 7.89124 15.5129 8.17276 15.2313L19.9353 3.46879H13.6562C13.2523 3.46879 12.9218 3.13831 12.9218 2.73439C12.9218 2.33048 13.2523 2 13.6562 2Z" fill="currentColor"/>
<path d="M21.0245 15.9168C21.0245 15.5129 21.355 15.1824 21.7589 15.1824C22.1628 15.1824 22.4933 15.5129 22.4933 15.9168V19.7968C22.4933 21.0086 21.5018 22 20.2901 22H3.20318C1.99143 22 1 21.0086 1 19.7968V4.20318C1 2.99143 1.99143 2 3.20318 2H10.1554C10.5594 2 10.8898 2.33048 10.8898 2.73439C10.8898 3.13831 10.5594 3.46879 10.1554 3.46879H3.20318C2.79927 3.46879 2.46879 3.79927 2.46879 4.20318V19.7968C2.46879 20.2007 2.79927 20.5312 3.20318 20.5312H20.2901C20.694 20.5312 21.0245 20.2007 21.0245 19.7968V15.9168Z" stroke="currentColor" stroke-width="0.5"/>
<path d="M13.6562 2H21.6367C21.9549 2 22.4934 2.20808 22.4812 2.97919V10.8984C22.4812 11.3023 22.1507 11.6328 21.7468 11.6328C21.3429 11.6328 21.0124 11.3023 21.0124 10.8984V4.46022L9.20091 16.2717C9.06627 16.4186 8.87043 16.492 8.68684 16.492C8.50324 16.492 8.31964 16.4186 8.17276 16.2717C7.89124 15.978 7.89124 15.5129 8.17276 15.2313L19.9353 3.46879H13.6562C13.2523 3.46879 12.9218 3.13831 12.9218 2.73439C12.9218 2.33048 13.2523 2 13.6562 2Z" stroke="currentColor" stroke-width="0.5"/>
</svg>
