<svg width="16" height="16" viewBox="0 0 16 16" fill="none" xmlns="http://www.w3.org/2000/svg">
    <path fill-rule="evenodd" clip-rule="evenodd" d="M7.00083 0.267243C7.30457 0.0921646 7.64901 0 7.99961 0C8.35021 0 8.69465 0.0921646 8.99839 0.267243L8.99961 0.267949L13.8973 3.06662L13.8996 3.06794C14.1484 3.21158 14.3627 3.40673 14.5285 3.6395C14.5675 3.67729 14.602 3.72105 14.6306 3.7704C14.6555 3.81344 14.6744 3.85829 14.6877 3.90399C14.8265 4.181 14.8993 4.48702 14.8996 4.79795V4.79856V10.3986V10.3992C14.8993 10.7499 14.8067 11.0944 14.6311 11.398C14.4556 11.7017 14.2033 11.9538 13.8996 12.1292L13.8973 12.1305L8.99961 14.9292L8.99844 14.9299C8.78159 15.0549 8.54399 15.1376 8.29821 15.1747C8.21028 15.2253 8.10832 15.2542 7.99961 15.2542C7.8909 15.2542 7.78894 15.2253 7.70101 15.1747C7.45523 15.1376 7.21763 15.0549 7.00078 14.9299L6.99961 14.9292L2.10193 12.1305L2.09961 12.1292C1.79587 11.9538 1.54359 11.7017 1.36807 11.398C1.19255 11.0944 1.09997 10.7499 1.09961 10.3992V10.3986V4.79856V4.79795C1.09993 4.48492 1.17372 4.17687 1.31437 3.89838C1.32754 3.85462 1.34595 3.81168 1.36983 3.7704C1.39744 3.72266 1.43063 3.68016 1.46808 3.64323C1.63428 3.40882 1.8495 3.21235 2.09961 3.06795L2.10192 3.06661L2.10193 3.06662L6.99961 0.267949L7.00083 0.267243ZM8.59961 13.7757L13.2996 11.0899L13.3007 11.0893C13.4217 11.0192 13.5222 10.9186 13.5922 10.7975C13.6624 10.676 13.6995 10.5382 13.6996 10.3979V5.00207L8.59961 7.95225V13.7757ZM7.39961 7.95157V13.7757L2.69961 11.0899L2.6985 11.0893C2.5775 11.0192 2.47699 10.9186 2.40699 10.7975C2.33683 10.6761 2.2998 10.5384 2.29961 10.3982V5.0014L7.39961 7.95157ZM8.40193 1.30851L13.0735 3.97796L8.00019 6.91268L2.92633 3.97763L7.59729 1.30851L7.5973 1.30852L7.59961 1.30718C7.72122 1.23697 7.85918 1.2 7.99961 1.2C8.14004 1.2 8.27799 1.23697 8.39961 1.30718L8.39961 1.30718L8.40193 1.30851Z" fill="#999999"/>
</svg>
