<svg width="14" height="14" viewBox="0 0 14 14" fill="none" xmlns="http://www.w3.org/2000/svg">
    <path d="M7.00001 14C3.1402 14 0 10.8595 0 7.00001C0 3.14049 3.1402 0 7.00001 0C10.8598 0 14 3.14049 14 7.00001C14 10.8595 10.8601 14 7.00001 14ZM7.00001 1.4C3.91217 1.4 1.4 3.91217 1.4 7.00001C1.4 10.0878 3.91217 12.6 7.00001 12.6C10.0878 12.6 12.6 10.0878 12.6 7.00001C12.6 3.91217 10.0878 1.4 7.00001 1.4ZM5.10496 9.59506L3.70496 8.19506C3.43638 7.91698 3.44409 7.47383 3.72216 7.20525C3.99343 6.94326 4.42349 6.94326 4.69476 7.20525L5.6 8.11022L9.30525 4.40497C9.58333 4.13639 10.0265 4.1441 10.295 4.42217C10.557 4.69344 10.557 5.1235 10.295 5.39477L6.09504 9.59478H6.09504C5.82179 9.86826 5.37857 9.86844 5.10509 9.59519C5.10505 9.59514 5.10501 9.5951 5.10496 9.59506L5.10496 9.59506Z" fill="#00CC9B"/>
</svg>
