<svg width="24" height="24" viewBox="0 0 24 24" fill="none" xmlns="http://www.w3.org/2000/svg">
<path fill-rule="evenodd" clip-rule="evenodd" d="M21.0245 15.9168C21.0245 15.5129 21.355 15.1824 21.7589 15.1824C22.1628 15.1824 22.4933 15.5129 22.4933 15.9168V19.7968C22.4933 21.0086 21.5018 22 20.2901 22H3.20318C1.99143 22 1 21.0086 1 19.7968V4.20318C1 2.99143 1.99143 2 3.20318 2H10.1554C10.5594 2 10.8898 2.33048 10.8898 2.73439C10.8898 3.13831 10.5594 3.46879 10.1554 3.46879H3.20318C2.79927 3.46879 2.46879 3.79927 2.46879 4.20318V19.7968C2.46879 20.2007 2.79927 20.5312 3.20318 20.5312H20.2901C20.694 20.5312 21.0245 20.2007 21.0245 19.7968V15.9168ZM13.6562 2H21.6367C21.9549 2 22.4934 2.20808 22.4812 2.97919V10.8984C22.4812 11.3023 22.1507 11.6328 21.7468 11.6328C21.3429 11.6328 21.0124 11.3023 21.0124 10.8984V4.46022L9.20091 16.2717C9.06627 16.4186 8.87043 16.492 8.68684 16.492C8.50324 16.492 8.31964 16.4186 8.17276 16.2717C7.89124 15.978 7.89124 15.5129 8.17276 15.2313L19.9353 3.46879H13.6562C13.2523 3.46879 12.9218 3.13831 12.9218 2.73439C12.9218 2.33048 13.2523 2 13.6562 2Z" fill="white"/>
<path d="M22.4812 2.97919L22.2312 2.97522V2.97919H22.4812ZM21.0124 4.46022H21.2624V3.85667L20.8356 4.28344L21.0124 4.46022ZM9.20091 16.2717L9.02397 16.0948L9.01662 16.1028L9.20091 16.2717ZM8.17276 16.2717L7.99222 16.4447L7.99598 16.4485L8.17276 16.2717ZM8.17276 15.2313L7.99598 15.0546L8.17276 15.2313ZM19.9353 3.46879L20.1121 3.64556L20.5389 3.21879H19.9353V3.46879ZM21.7589 14.9324C21.2169 14.9324 20.7745 15.3748 20.7745 15.9168H21.2745C21.2745 15.6509 21.493 15.4324 21.7589 15.4324V14.9324ZM22.7433 15.9168C22.7433 15.3748 22.3009 14.9324 21.7589 14.9324V15.4324C22.0247 15.4324 22.2433 15.6509 22.2433 15.9168H22.7433ZM22.7433 19.7968V15.9168H22.2433V19.7968H22.7433ZM20.2901 22.25C21.6399 22.25 22.7433 21.1466 22.7433 19.7968H22.2433C22.2433 20.8705 21.3638 21.75 20.2901 21.75V22.25ZM3.20318 22.25H20.2901V21.75H3.20318V22.25ZM0.75 19.7968C0.75 21.1466 1.85336 22.25 3.20318 22.25V21.75C2.1295 21.75 1.25 20.8705 1.25 19.7968H0.75ZM0.75 4.20318V19.7968H1.25V4.20318H0.75ZM3.20318 1.75C1.85336 1.75 0.75 2.85336 0.75 4.20318H1.25C1.25 3.1295 2.1295 2.25 3.20318 2.25V1.75ZM10.1554 1.75H3.20318V2.25H10.1554V1.75ZM11.1398 2.73439C11.1398 2.19241 10.6974 1.75 10.1554 1.75V2.25C10.4213 2.25 10.6398 2.46855 10.6398 2.73439H11.1398ZM10.1554 3.71879C10.6974 3.71879 11.1398 3.27638 11.1398 2.73439H10.6398C10.6398 3.00024 10.4213 3.21879 10.1554 3.21879V3.71879ZM3.20318 3.71879H10.1554V3.21879H3.20318V3.71879ZM2.71879 4.20318C2.71879 3.93734 2.93734 3.71879 3.20318 3.71879V3.21879C2.66119 3.21879 2.21879 3.66119 2.21879 4.20318H2.71879ZM2.71879 19.7968V4.20318H2.21879V19.7968H2.71879ZM3.20318 20.2812C2.93734 20.2812 2.71879 20.0627 2.71879 19.7968H2.21879C2.21879 20.3388 2.66119 20.7812 3.20318 20.7812V20.2812ZM20.2901 20.2812H3.20318V20.7812H20.2901V20.2812ZM20.7745 19.7968C20.7745 20.0627 20.5559 20.2812 20.2901 20.2812V20.7812C20.8321 20.7812 21.2745 20.3388 21.2745 19.7968H20.7745ZM20.7745 15.9168V19.7968H21.2745V15.9168H20.7745ZM21.6367 1.75H13.6562V2.25H21.6367V1.75ZM22.7312 2.98316C22.7383 2.53281 22.5818 2.2134 22.3457 2.01073C22.1187 1.81588 21.8428 1.75 21.6367 1.75V2.25C21.7487 2.25 21.9012 2.28816 22.02 2.39012C22.1297 2.48427 22.2363 2.65446 22.2312 2.97522L22.7312 2.98316ZM22.7312 10.8984V2.97919H22.2312V10.8984H22.7312ZM21.7468 11.8828C22.2888 11.8828 22.7312 11.4404 22.7312 10.8984H22.2312C22.2312 11.1643 22.0127 11.3828 21.7468 11.3828V11.8828ZM20.7624 10.8984C20.7624 11.4404 21.2048 11.8828 21.7468 11.8828V11.3828C21.481 11.3828 21.2624 11.1643 21.2624 10.8984H20.7624ZM20.7624 4.46022V10.8984H21.2624V4.46022H20.7624ZM9.37769 16.4485L21.1892 4.637L20.8356 4.28344L9.02413 16.0949L9.37769 16.4485ZM8.68684 16.742C8.93227 16.742 9.19791 16.645 9.3852 16.4407L9.01662 16.1028C8.93463 16.1922 8.8086 16.242 8.68684 16.242V16.742ZM7.99598 16.4485C8.18825 16.6408 8.43485 16.742 8.68684 16.742V16.242C8.57163 16.242 8.45103 16.1964 8.34954 16.0949L7.99598 16.4485ZM7.99598 15.0546C7.61481 15.4357 7.6201 16.0564 7.99226 16.4447L8.35326 16.0987C8.16239 15.8996 8.16767 15.59 8.34954 15.4081L7.99598 15.0546ZM19.7585 3.29201L7.99598 15.0546L8.34954 15.4081L20.1121 3.64556L19.7585 3.29201ZM13.6562 3.71879H19.9353V3.21879H13.6562V3.71879ZM12.6718 2.73439C12.6718 3.27638 13.1142 3.71879 13.6562 3.71879V3.21879C13.3904 3.21879 13.1718 3.00024 13.1718 2.73439H12.6718ZM13.6562 1.75C13.1142 1.75 12.6718 2.19241 12.6718 2.73439H13.1718C13.1718 2.46855 13.3904 2.25 13.6562 2.25V1.75Z" fill="white"/>
</svg>