<svg id="图层_1" data-name="图层 1" xmlns="http://www.w3.org/2000/svg" viewBox="0 0 376 200">
  <defs>
    <style>.cls-1{fill:#232323;}.cls-2{fill:#ffffff;}</style>
  </defs>
  <rect class="cls-1" width="376" height="200" />
  <rect x="259.65" y="111.72" width="10.39" height="6.83" />
  <rect x="259.65" y="133.68" width="21.6" height="6.83" />
  <rect class="cls-2" x="259.65" y="155.47" width="10.39" height="6.83" />
  <rect x="157.79" y="83.7" width="5.63" height="26.02" transform="translate(-24.59 125.86) rotate(-40)" />
  <rect x="150.4" y="109.43" width="41.19" height="5.63" />
  <path d="M222.58,101.3v10.42l3.38-.2c12.38-.75,22.58-11.43,22.58-23.75s-10.3-23.15-22.65-23.64L222.58,64V74.35l3,.19A13.55,13.55,0,0,1,238,87.75a13.73,13.73,0,0,1-12.48,13.36Z" />
  <path d="M237.75,59h10.53V55.88c.13-12.65-10.83-23.61-23.64-23.61-12.08,0-22.42,9.59-23.74,22.3l-.36,3.51h10.75l.15-3a13.19,13.19,0,0,1,26.35.75Z" />
  <path class="cls-2" d="M356.92,128a23,23,0,0,0-8-17.36l-2.39-2-5.6,7.62,2.37,1.91A12.46,12.46,0,0,1,348,128c-.09,6.91-5.41,12.49-12,12.57h-3v9.56h3c11.36,0,21-10.17,21-22.13" />
  <rect class="cls-2" x="316.9" y="140.73" width="14.13" height="9.44" />
  <path d="M174.73,147.21l15.43,25.55-3,1.88-15.42-25.72Zm26.39,0,3.15,1.73-12.86,21-3.06-1.83Z" />
  <rect class="cls-2" x="30.67" y="25.36" width="24.52" height="6.14" />
  <rect class="cls-2" x="56.34" y="25.36" width="6.14" height="30.11" />
  <path class="cls-2" d="M133.17,34.75a15.93,15.93,0,0,0,31.83.93h4c-1.14,11-10,18.91-20,18.91-10.78,0-20-9.29-19.91-19.84Z" />
  <path d="M331.53,31.36v3.87A16.13,16.13,0,0,0,316.83,51a16,16,0,0,0,14.7,15.61v3.87a19.91,19.91,0,0,1-18.7-19.51c0-10.17,8.52-19,18.7-19.58" />
  <path d="M84.26,39.94v4.79h1.47a8.1,8.1,0,0,1,7.89,7.94,6.28,6.28,0,0,1-1.06,3.43l-.07.12,0,.05a4,4,0,0,1-.32.52l-.25.34-.09.13-.18.28-.55.88.65.8a7.81,7.81,0,0,1-6,12.81H84.21v4.79h1.47A12.83,12.83,0,0,0,98.37,64.15v-.08a11.54,11.54,0,0,0-1.51-5.65l0-.06,0,0a11.18,11.18,0,0,0,1.61-5.66A12.85,12.85,0,0,0,85.73,39.94Z" />
  <rect x="19.08" y="145.58" width="6.48" height="29.06" />
  <rect class="cls-2" x="60.62" y="145.58" width="6.48" height="29.06" />
  <polygon class="cls-2" points="277.34 84.25 297.51 67.76 296 66.09 275.89 82.52 277.34 84.25" />
  <rect class="cls-2" x="281.41" y="81.88" width="18.78" height="2.37" />
  <polygon points="51.57 91.14 31.01 107.95 32.55 109.65 53.05 92.9 51.57 91.14" />
  <rect x="28.27" y="91.14" width="19.15" height="2.41" />
  <rect x="111.84" y="160.73" width="18.79" height="1.91" />
  <rect x="128.72" y="145.58" width="1.9" height="14.39" />
  <path d="M79.47,113.77a15.89,15.89,0,0,0,15.76,15.62H97v-5.84H95.23a9.78,9.78,0,1,1,0-19.55H97V98.15H95.23a15.89,15.89,0,0,0-15.76,15.62" />
  <path d="M105.48,123.55v5.84h1.75a15.62,15.62,0,1,0,0-31.24h-1.75V104h1.75a9.78,9.78,0,1,1,0,19.55Z" />
</svg>
